G04 #@! TF.GenerationSoftware,KiCad,Pcbnew,(6.0.4)*
G04 #@! TF.CreationDate,2022-08-30T22:22:21+03:00*
G04 #@! TF.ProjectId,Pluton32,506c7574-6f6e-4333-922e-6b696361645f,1.0*
G04 #@! TF.SameCoordinates,Original*
G04 #@! TF.FileFunction,Paste,Top*
G04 #@! TF.FilePolarity,Positive*
%FSLAX46Y46*%
G04 Gerber Fmt 4.6, Leading zero omitted, Abs format (unit mm)*
G04 Created by KiCad (PCBNEW (6.0.4)) date 2022-08-30 22:22:21*
%MOMM*%
%LPD*%
G01*
G04 APERTURE LIST*
G04 Aperture macros list*
%AMRoundRect*
0 Rectangle with rounded corners*
0 $1 Rounding radius*
0 $2 $3 $4 $5 $6 $7 $8 $9 X,Y pos of 4 corners*
0 Add a 4 corners polygon primitive as box body*
4,1,4,$2,$3,$4,$5,$6,$7,$8,$9,$2,$3,0*
0 Add four circle primitives for the rounded corners*
1,1,$1+$1,$2,$3*
1,1,$1+$1,$4,$5*
1,1,$1+$1,$6,$7*
1,1,$1+$1,$8,$9*
0 Add four rect primitives between the rounded corners*
20,1,$1+$1,$2,$3,$4,$5,0*
20,1,$1+$1,$4,$5,$6,$7,0*
20,1,$1+$1,$6,$7,$8,$9,0*
20,1,$1+$1,$8,$9,$2,$3,0*%
G04 Aperture macros list end*
%ADD10RoundRect,0.150000X0.150000X-0.825000X0.150000X0.825000X-0.150000X0.825000X-0.150000X-0.825000X0*%
%ADD11RoundRect,0.225000X0.250000X-0.225000X0.250000X0.225000X-0.250000X0.225000X-0.250000X-0.225000X0*%
%ADD12RoundRect,0.150000X0.512500X0.150000X-0.512500X0.150000X-0.512500X-0.150000X0.512500X-0.150000X0*%
%ADD13RoundRect,0.200000X0.200000X0.275000X-0.200000X0.275000X-0.200000X-0.275000X0.200000X-0.275000X0*%
%ADD14R,2.000000X4.500000*%
%ADD15RoundRect,0.150000X-0.150000X0.587500X-0.150000X-0.587500X0.150000X-0.587500X0.150000X0.587500X0*%
%ADD16RoundRect,0.225000X0.225000X0.250000X-0.225000X0.250000X-0.225000X-0.250000X0.225000X-0.250000X0*%
%ADD17RoundRect,0.200000X0.275000X-0.200000X0.275000X0.200000X-0.275000X0.200000X-0.275000X-0.200000X0*%
%ADD18R,0.600000X1.450000*%
%ADD19R,0.300000X1.450000*%
%ADD20R,0.900000X2.000000*%
%ADD21R,2.000000X0.900000*%
%ADD22R,5.000000X5.000000*%
%ADD23RoundRect,0.150000X0.150000X-0.587500X0.150000X0.587500X-0.150000X0.587500X-0.150000X-0.587500X0*%
%ADD24RoundRect,0.200000X-0.275000X0.200000X-0.275000X-0.200000X0.275000X-0.200000X0.275000X0.200000X0*%
%ADD25RoundRect,0.243750X0.243750X0.456250X-0.243750X0.456250X-0.243750X-0.456250X0.243750X-0.456250X0*%
%ADD26RoundRect,0.218750X0.256250X-0.218750X0.256250X0.218750X-0.256250X0.218750X-0.256250X-0.218750X0*%
%ADD27RoundRect,0.225000X-0.250000X0.225000X-0.250000X-0.225000X0.250000X-0.225000X0.250000X0.225000X0*%
%ADD28RoundRect,0.225000X-0.225000X-0.250000X0.225000X-0.250000X0.225000X0.250000X-0.225000X0.250000X0*%
%ADD29RoundRect,0.243750X-0.456250X0.243750X-0.456250X-0.243750X0.456250X-0.243750X0.456250X0.243750X0*%
%ADD30RoundRect,0.200000X-0.200000X-0.275000X0.200000X-0.275000X0.200000X0.275000X-0.200000X0.275000X0*%
G04 APERTURE END LIST*
D10*
X162955000Y-98665000D03*
X164225000Y-98665000D03*
X165495000Y-98665000D03*
X166765000Y-98665000D03*
X168035000Y-98665000D03*
X169305000Y-98665000D03*
X170575000Y-98665000D03*
X171845000Y-98665000D03*
X171845000Y-93715000D03*
X170575000Y-93715000D03*
X169305000Y-93715000D03*
X168035000Y-93715000D03*
X166765000Y-93715000D03*
X165495000Y-93715000D03*
X164225000Y-93715000D03*
X162955000Y-93715000D03*
D11*
X173410000Y-94755000D03*
X173410000Y-93205000D03*
D12*
X161687500Y-105920000D03*
X161687500Y-104970000D03*
X161687500Y-104020000D03*
X159412500Y-104020000D03*
X159412500Y-105920000D03*
D13*
X155605000Y-96200572D03*
X153955000Y-96200572D03*
D11*
X171740000Y-102685000D03*
X171740000Y-101135000D03*
D14*
X177360000Y-91940000D03*
X177360000Y-100440000D03*
D15*
X155730000Y-102242500D03*
X153830000Y-102242500D03*
X154780000Y-104117500D03*
D16*
X161325000Y-102450000D03*
X159775000Y-102450000D03*
D17*
X152240000Y-101855000D03*
X152240000Y-100205000D03*
D18*
X165220000Y-104675000D03*
X166020000Y-104675000D03*
D19*
X167220000Y-104675000D03*
X168220000Y-104675000D03*
X168720000Y-104675000D03*
X169720000Y-104675000D03*
D18*
X170920000Y-104675000D03*
X171720000Y-104675000D03*
X171720000Y-104675000D03*
X170920000Y-104675000D03*
D19*
X170220000Y-104675000D03*
X169220000Y-104675000D03*
X167720000Y-104675000D03*
X166720000Y-104675000D03*
D18*
X166020000Y-104675000D03*
X165220000Y-104675000D03*
D20*
X131880000Y-109850000D03*
X133150000Y-109850000D03*
X134420000Y-109850000D03*
X135690000Y-109850000D03*
X136960000Y-109850000D03*
X138230000Y-109850000D03*
X139500000Y-109850000D03*
X140770000Y-109850000D03*
X142040000Y-109850000D03*
X143310000Y-109850000D03*
X144580000Y-109850000D03*
X145850000Y-109850000D03*
X147120000Y-109850000D03*
X148390000Y-109850000D03*
D21*
X149390000Y-107065000D03*
X149390000Y-105795000D03*
X149390000Y-104525000D03*
X149390000Y-103255000D03*
X149390000Y-101985000D03*
X149390000Y-100715000D03*
X149390000Y-99445000D03*
X149390000Y-98175000D03*
X149390000Y-96905000D03*
X149390000Y-95635000D03*
D20*
X148390000Y-92850000D03*
X147120000Y-92850000D03*
X145850000Y-92850000D03*
X144580000Y-92850000D03*
X143310000Y-92850000D03*
X142040000Y-92850000D03*
X140770000Y-92850000D03*
X139500000Y-92850000D03*
X138230000Y-92850000D03*
X136960000Y-92850000D03*
X135690000Y-92850000D03*
X134420000Y-92850000D03*
X133150000Y-92850000D03*
X131880000Y-92850000D03*
D22*
X139380000Y-102350000D03*
D23*
X153830000Y-99897500D03*
X155730000Y-99897500D03*
X154780000Y-98022500D03*
D17*
X157541000Y-111035000D03*
X157541000Y-109385000D03*
D24*
X157300000Y-100205000D03*
X157300000Y-101855000D03*
D25*
X165657500Y-102430000D03*
X163782500Y-102430000D03*
D26*
X173380000Y-102707500D03*
X173380000Y-101132500D03*
D27*
X173400000Y-97635000D03*
X173400000Y-99185000D03*
D17*
X155959000Y-111035000D03*
X155959000Y-109385000D03*
D28*
X159775000Y-107510000D03*
X161325000Y-107510000D03*
D24*
X170220000Y-101085000D03*
X170220000Y-102735000D03*
D29*
X159388000Y-109292500D03*
X159388000Y-111167500D03*
D28*
X154005000Y-94640000D03*
X155555000Y-94640000D03*
D29*
X161500000Y-109292500D03*
X161500000Y-111167500D03*
D16*
X155600000Y-107590572D03*
X154050000Y-107590572D03*
D11*
X161380000Y-99175000D03*
X161380000Y-97625000D03*
D29*
X152530000Y-109292500D03*
X152530000Y-111167500D03*
D24*
X167220000Y-101085000D03*
X167220000Y-102735000D03*
D30*
X154000000Y-106030000D03*
X155650000Y-106030000D03*
D17*
X154377000Y-111035000D03*
X154377000Y-109385000D03*
D27*
X161380000Y-93185000D03*
X161380000Y-94735000D03*
M02*
