G04 #@! TF.GenerationSoftware,KiCad,Pcbnew,(6.0.8)*
G04 #@! TF.CreationDate,2022-11-09T14:46:31+03:00*
G04 #@! TF.ProjectId,Pluton32,506c7574-6f6e-4333-922e-6b696361645f,1.0*
G04 #@! TF.SameCoordinates,Original*
G04 #@! TF.FileFunction,Soldermask,Top*
G04 #@! TF.FilePolarity,Negative*
%FSLAX46Y46*%
G04 Gerber Fmt 4.6, Leading zero omitted, Abs format (unit mm)*
G04 Created by KiCad (PCBNEW (6.0.8)) date 2022-11-09 14:46:31*
%MOMM*%
%LPD*%
G01*
G04 APERTURE LIST*
G04 Aperture macros list*
%AMRoundRect*
0 Rectangle with rounded corners*
0 $1 Rounding radius*
0 $2 $3 $4 $5 $6 $7 $8 $9 X,Y pos of 4 corners*
0 Add a 4 corners polygon primitive as box body*
4,1,4,$2,$3,$4,$5,$6,$7,$8,$9,$2,$3,0*
0 Add four circle primitives for the rounded corners*
1,1,$1+$1,$2,$3*
1,1,$1+$1,$4,$5*
1,1,$1+$1,$6,$7*
1,1,$1+$1,$8,$9*
0 Add four rect primitives between the rounded corners*
20,1,$1+$1,$2,$3,$4,$5,0*
20,1,$1+$1,$4,$5,$6,$7,0*
20,1,$1+$1,$6,$7,$8,$9,0*
20,1,$1+$1,$8,$9,$2,$3,0*%
G04 Aperture macros list end*
%ADD10C,1.200000*%
%ADD11RoundRect,0.150000X0.150000X-0.825000X0.150000X0.825000X-0.150000X0.825000X-0.150000X-0.825000X0*%
%ADD12RoundRect,0.225000X0.250000X-0.225000X0.250000X0.225000X-0.250000X0.225000X-0.250000X-0.225000X0*%
%ADD13RoundRect,0.150000X0.512500X0.150000X-0.512500X0.150000X-0.512500X-0.150000X0.512500X-0.150000X0*%
%ADD14RoundRect,0.200000X0.200000X0.275000X-0.200000X0.275000X-0.200000X-0.275000X0.200000X-0.275000X0*%
%ADD15R,2.000000X4.500000*%
%ADD16RoundRect,0.150000X-0.150000X0.587500X-0.150000X-0.587500X0.150000X-0.587500X0.150000X0.587500X0*%
%ADD17RoundRect,0.225000X0.225000X0.250000X-0.225000X0.250000X-0.225000X-0.250000X0.225000X-0.250000X0*%
%ADD18RoundRect,0.200000X0.275000X-0.200000X0.275000X0.200000X-0.275000X0.200000X-0.275000X-0.200000X0*%
%ADD19C,0.650000*%
%ADD20R,0.600000X1.450000*%
%ADD21R,0.300000X1.450000*%
%ADD22O,1.000000X1.600000*%
%ADD23O,1.000000X2.100000*%
%ADD24R,0.900000X2.000000*%
%ADD25R,2.000000X0.900000*%
%ADD26R,5.000000X5.000000*%
%ADD27RoundRect,0.150000X0.150000X-0.587500X0.150000X0.587500X-0.150000X0.587500X-0.150000X-0.587500X0*%
%ADD28RoundRect,0.200000X-0.275000X0.200000X-0.275000X-0.200000X0.275000X-0.200000X0.275000X0.200000X0*%
%ADD29RoundRect,0.243750X0.243750X0.456250X-0.243750X0.456250X-0.243750X-0.456250X0.243750X-0.456250X0*%
%ADD30RoundRect,0.218750X0.256250X-0.218750X0.256250X0.218750X-0.256250X0.218750X-0.256250X-0.218750X0*%
%ADD31C,3.200000*%
%ADD32R,1.508000X1.508000*%
%ADD33C,1.508000*%
%ADD34RoundRect,0.225000X-0.250000X0.225000X-0.250000X-0.225000X0.250000X-0.225000X0.250000X0.225000X0*%
%ADD35RoundRect,0.225000X-0.225000X-0.250000X0.225000X-0.250000X0.225000X0.250000X-0.225000X0.250000X0*%
%ADD36RoundRect,0.243750X-0.456250X0.243750X-0.456250X-0.243750X0.456250X-0.243750X0.456250X0.243750X0*%
%ADD37RoundRect,0.200000X-0.200000X-0.275000X0.200000X-0.275000X0.200000X0.275000X-0.200000X0.275000X0*%
G04 APERTURE END LIST*
D10*
X121010000Y-85503594D02*
G75*
G03*
X121010000Y-85503594I-2213594J0D01*
G01*
X179010000Y-85503594D02*
G75*
G03*
X179010000Y-85503594I-2213594J0D01*
G01*
X121000000Y-108503594D02*
G75*
G03*
X121000000Y-108503594I-2213594J0D01*
G01*
X179013594Y-108500000D02*
G75*
G03*
X179013594Y-108500000I-2213594J0D01*
G01*
D11*
X162955000Y-98665000D03*
X164225000Y-98665000D03*
X165495000Y-98665000D03*
X166765000Y-98665000D03*
X168035000Y-98665000D03*
X169305000Y-98665000D03*
X170575000Y-98665000D03*
X171845000Y-98665000D03*
X171845000Y-93715000D03*
X170575000Y-93715000D03*
X169305000Y-93715000D03*
X168035000Y-93715000D03*
X166765000Y-93715000D03*
X165495000Y-93715000D03*
X164225000Y-93715000D03*
X162955000Y-93715000D03*
D12*
X173410000Y-94755000D03*
X173410000Y-93205000D03*
D13*
X161687500Y-105920000D03*
X161687500Y-104970000D03*
X161687500Y-104020000D03*
X159412500Y-104020000D03*
X159412500Y-105920000D03*
D14*
X155605000Y-96200572D03*
X153955000Y-96200572D03*
D12*
X171740000Y-102685000D03*
X171740000Y-101135000D03*
D15*
X177360000Y-91940000D03*
X177360000Y-100440000D03*
D16*
X155730000Y-102242500D03*
X153830000Y-102242500D03*
X154780000Y-104117500D03*
D17*
X161325000Y-102450000D03*
X159775000Y-102450000D03*
D18*
X152240000Y-101855000D03*
X152240000Y-100205000D03*
D19*
X171360000Y-106120000D03*
X165580000Y-106120000D03*
D20*
X165220000Y-104675000D03*
X166020000Y-104675000D03*
D21*
X167220000Y-104675000D03*
X168220000Y-104675000D03*
X168720000Y-104675000D03*
X169720000Y-104675000D03*
D20*
X170920000Y-104675000D03*
X171720000Y-104675000D03*
X171720000Y-104675000D03*
X170920000Y-104675000D03*
D21*
X170220000Y-104675000D03*
X169220000Y-104675000D03*
X167720000Y-104675000D03*
X166720000Y-104675000D03*
D20*
X166020000Y-104675000D03*
X165220000Y-104675000D03*
D22*
X172790000Y-109770000D03*
X164150000Y-109770000D03*
D23*
X172790000Y-105590000D03*
X164150000Y-105590000D03*
D24*
X131880000Y-109850000D03*
X133150000Y-109850000D03*
X134420000Y-109850000D03*
X135690000Y-109850000D03*
X136960000Y-109850000D03*
X138230000Y-109850000D03*
X139500000Y-109850000D03*
X140770000Y-109850000D03*
X142040000Y-109850000D03*
X143310000Y-109850000D03*
X144580000Y-109850000D03*
X145850000Y-109850000D03*
X147120000Y-109850000D03*
X148390000Y-109850000D03*
D25*
X149390000Y-107065000D03*
X149390000Y-105795000D03*
X149390000Y-104525000D03*
X149390000Y-103255000D03*
X149390000Y-101985000D03*
X149390000Y-100715000D03*
X149390000Y-99445000D03*
X149390000Y-98175000D03*
X149390000Y-96905000D03*
X149390000Y-95635000D03*
D24*
X148390000Y-92850000D03*
X147120000Y-92850000D03*
X145850000Y-92850000D03*
X144580000Y-92850000D03*
X143310000Y-92850000D03*
X142040000Y-92850000D03*
X140770000Y-92850000D03*
X139500000Y-92850000D03*
X138230000Y-92850000D03*
X136960000Y-92850000D03*
X135690000Y-92850000D03*
X134420000Y-92850000D03*
X133150000Y-92850000D03*
X131880000Y-92850000D03*
D26*
X139380000Y-102350000D03*
D27*
X153830000Y-99897500D03*
X155730000Y-99897500D03*
X154780000Y-98022500D03*
D18*
X157541000Y-111035000D03*
X157541000Y-109385000D03*
D28*
X157300000Y-100205000D03*
X157300000Y-101855000D03*
D29*
X165657500Y-102430000D03*
X163782500Y-102430000D03*
D30*
X173380000Y-102707500D03*
X173380000Y-101132500D03*
D31*
X118800000Y-85500000D03*
X176800000Y-108500000D03*
X118800000Y-108500000D03*
X176800000Y-85500000D03*
D32*
X123670000Y-86770000D03*
D33*
X123670000Y-84230000D03*
X126210000Y-86770000D03*
X126210000Y-84230000D03*
X128750000Y-86770000D03*
X128750000Y-84230000D03*
X131290000Y-86770000D03*
X131290000Y-84230000D03*
X133830000Y-86770000D03*
X133830000Y-84230000D03*
X136370000Y-86770000D03*
X136370000Y-84230000D03*
X138910000Y-86770000D03*
X138910000Y-84230000D03*
X141450000Y-86770000D03*
X141450000Y-84230000D03*
X143990000Y-86770000D03*
X143990000Y-84230000D03*
X146530000Y-86770000D03*
X146530000Y-84230000D03*
X149070000Y-86770000D03*
X149070000Y-84230000D03*
X151610000Y-86770000D03*
X151610000Y-84230000D03*
X154150000Y-86770000D03*
X154150000Y-84230000D03*
X156690000Y-86770000D03*
X156690000Y-84230000D03*
X159230000Y-86770000D03*
X159230000Y-84230000D03*
X161770000Y-86770000D03*
X161770000Y-84230000D03*
X164310000Y-86770000D03*
X164310000Y-84230000D03*
X166850000Y-86770000D03*
X166850000Y-84230000D03*
X169390000Y-86770000D03*
X169390000Y-84230000D03*
X171930000Y-86770000D03*
X171930000Y-84230000D03*
D34*
X173400000Y-97635000D03*
X173400000Y-99185000D03*
D18*
X155959000Y-111035000D03*
X155959000Y-109385000D03*
D35*
X159775000Y-107510000D03*
X161325000Y-107510000D03*
D28*
X170220000Y-101085000D03*
X170220000Y-102735000D03*
D36*
X159388000Y-109292500D03*
X159388000Y-111167500D03*
D35*
X154005000Y-94640000D03*
X155555000Y-94640000D03*
D36*
X161500000Y-109292500D03*
X161500000Y-111167500D03*
D17*
X155600000Y-107590572D03*
X154050000Y-107590572D03*
D12*
X161380000Y-99175000D03*
X161380000Y-97625000D03*
D36*
X152530000Y-109292500D03*
X152530000Y-111167500D03*
D28*
X167220000Y-101085000D03*
X167220000Y-102735000D03*
D37*
X154000000Y-106030000D03*
X155650000Y-106030000D03*
D18*
X154377000Y-111035000D03*
X154377000Y-109385000D03*
D34*
X161380000Y-93185000D03*
X161380000Y-94735000D03*
M02*
