M48
; DRILL file {KiCad (6.0.8)} date Wed Nov  9 14:46:17 2022
; FORMAT={-:-/ absolute / metric / decimal}
; #@! TF.CreationDate,2022-11-09T14:46:17+03:00
; #@! TF.GenerationSoftware,Kicad,Pcbnew,(6.0.8)
; #@! TF.FileFunction,Plated,1,2,PTH
FMAT,2
METRIC
; #@! TA.AperFunction,Plated,PTH,ViaDrill
T1C0.400
; #@! TA.AperFunction,Plated,PTH,ComponentDrill
T2C0.600
; #@! TA.AperFunction,Plated,PTH,ComponentDrill
T3C1.000
%
G90
G05
T1
X130.98Y-111.41
X131.0Y-95.4
X131.0Y-97.0
X131.0Y-98.6
X131.0Y-100.0
X131.0Y-101.4
X131.0Y-102.8
X131.0Y-104.2
X131.0Y-105.6
X131.0Y-107.0
X131.0Y-108.4
X131.4Y-94.4
X131.8Y-96.2
X132.2Y-95.2
X132.5Y-111.45
X132.89Y-108.04
X133.2Y-94.6
X133.36Y-88.21
X133.46Y-103.06
X133.49Y-100.86
X133.66Y-111.46
X133.85Y-88.99
X134.28Y-88.2
X134.41Y-91.0
X134.84Y-88.99
X135.67Y-89.44
X136.08Y-90.22
X136.381Y-96.929
X137.306Y-97.413
X137.5Y-100.5
X137.5Y-102.0
X137.5Y-103.5
X137.6Y-83.6
X137.8Y-105.8
X138.156Y-97.938
X138.2Y-101.2
X138.2Y-102.8
X138.23Y-91.0
X138.4Y-107.0
X139.0Y-100.5
X139.0Y-102.0
X139.0Y-103.5
X139.15Y-98.145
X139.2Y-105.8
X139.53Y-107.41
X139.8Y-101.2
X139.8Y-102.8
X140.2Y-83.6
X140.5Y-100.5
X140.5Y-102.0
X140.5Y-103.5
X140.8Y-105.6
X140.82Y-107.41
X142.8Y-100.8
X142.8Y-102.4
X142.89Y-107.43
X143.0Y-104.0
X143.8Y-99.8
X143.8Y-101.4
X143.8Y-103.0
X143.93Y-94.79
X144.03Y-107.42
X145.029Y-107.431
X145.75Y-96.18
X146.08Y-107.46
X146.432Y-95.262
X147.71Y-96.41
X148.9Y-88.84
X149.18Y-108.07
X149.52Y-92.81
X149.6Y-89.96
X149.62Y-91.05
X149.79Y-88.25
X150.2Y-111.4
X151.17Y-105.23
X151.2Y-111.38
X151.63Y-91.7
X151.65Y-104.22
X151.69Y-109.28
X151.83Y-106.15
X152.2Y-105.17
X152.22Y-103.25
X152.74Y-104.21
X152.79Y-106.12
X153.8Y-89.4
X154.2Y-88.4
X154.543Y-90.083
X154.8Y-99.8
X154.8Y-101.07
X154.8Y-102.4
X155.8Y-98.0
X155.83Y-104.13
X156.0Y-110.384
X156.6Y-97.2
X156.86Y-103.52
X156.86Y-104.73
X157.153Y-98.143
X157.48Y-108.49
X157.769Y-96.201
X158.0Y-85.4
X159.11Y-104.93
X159.2Y-100.0
X159.6Y-101.0
X160.09Y-108.79
X160.12Y-104.92
X160.2Y-95.2
X160.2Y-99.0
X160.2Y-100.0
X160.325Y-97.625
X161.4Y-100.2
X161.5Y-110.379
X162.202Y-103.599
X162.28Y-106.26
X162.39Y-107.52
X162.4Y-91.6
X162.57Y-109.31
X162.97Y-104.97
X163.0Y-85.4
X163.01Y-110.59
X163.06Y-101.216
X163.6Y-95.2
X164.4Y-91.6
X164.51Y-100.07
X165.69Y-100.07
X166.08Y-107.88
X166.8Y-91.6
X167.15Y-100.22
X167.6Y-95.4
X168.42Y-101.84
X168.64Y-106.33
X169.8Y-96.6
X170.4Y-90.8
X170.44Y-100.39
X170.6Y-85.4
X170.8Y-95.6
X171.64Y-108.07
X171.77Y-100.27
X172.0Y-90.8
X172.57Y-101.16
X173.38Y-100.18
X174.51Y-99.19
X174.57Y-103.14
X174.6Y-89.0
X174.6Y-90.4
X174.6Y-91.6
X174.6Y-92.8
X174.6Y-94.0
X174.6Y-100.63
X174.61Y-101.93
T3
X123.67Y-84.23
X123.67Y-86.77
X126.21Y-84.23
X126.21Y-86.77
X128.75Y-84.23
X128.75Y-86.77
X131.29Y-84.23
X131.29Y-86.77
X133.83Y-84.23
X133.83Y-86.77
X136.37Y-84.23
X136.37Y-86.77
X138.91Y-84.23
X138.91Y-86.77
X141.45Y-84.23
X141.45Y-86.77
X143.99Y-84.23
X143.99Y-86.77
X146.53Y-84.23
X146.53Y-86.77
X149.07Y-84.23
X149.07Y-86.77
X151.61Y-84.23
X151.61Y-86.77
X154.15Y-84.23
X154.15Y-86.77
X156.69Y-84.23
X156.69Y-86.77
X159.23Y-84.23
X159.23Y-86.77
X161.77Y-84.23
X161.77Y-86.77
X164.31Y-84.23
X164.31Y-86.77
X166.85Y-84.23
X166.85Y-86.77
X169.39Y-84.23
X169.39Y-86.77
X171.93Y-84.23
X171.93Y-86.77
T2
X164.15Y-105.04G85X164.15Y-106.14
G05
X164.15Y-109.47G85X164.15Y-110.07
G05
X172.79Y-105.04G85X172.79Y-106.14
G05
X172.79Y-109.47G85X172.79Y-110.07
G05
T0
M30
