G04 #@! TF.GenerationSoftware,KiCad,Pcbnew,(6.0.4)*
G04 #@! TF.CreationDate,2022-08-30T22:22:21+03:00*
G04 #@! TF.ProjectId,Pluton32,506c7574-6f6e-4333-922e-6b696361645f,1.0*
G04 #@! TF.SameCoordinates,Original*
G04 #@! TF.FileFunction,Copper,L2,Bot*
G04 #@! TF.FilePolarity,Positive*
%FSLAX46Y46*%
G04 Gerber Fmt 4.6, Leading zero omitted, Abs format (unit mm)*
G04 Created by KiCad (PCBNEW (6.0.4)) date 2022-08-30 22:22:21*
%MOMM*%
%LPD*%
G01*
G04 APERTURE LIST*
G04 #@! TA.AperFunction,EtchedComponent*
%ADD10C,0.100000*%
G04 #@! TD*
G04 #@! TA.AperFunction,ComponentPad*
%ADD11O,1.000000X1.600000*%
G04 #@! TD*
G04 #@! TA.AperFunction,ComponentPad*
%ADD12O,1.000000X2.100000*%
G04 #@! TD*
G04 #@! TA.AperFunction,ComponentPad*
%ADD13R,1.508000X1.508000*%
G04 #@! TD*
G04 #@! TA.AperFunction,ComponentPad*
%ADD14C,1.508000*%
G04 #@! TD*
G04 #@! TA.AperFunction,ViaPad*
%ADD15C,0.800000*%
G04 #@! TD*
G04 #@! TA.AperFunction,Conductor*
%ADD16C,0.304800*%
G04 #@! TD*
G04 #@! TA.AperFunction,Conductor*
%ADD17C,0.609600*%
G04 #@! TD*
G04 #@! TA.AperFunction,Conductor*
%ADD18C,0.406400*%
G04 #@! TD*
G04 #@! TA.AperFunction,Conductor*
%ADD19C,0.254000*%
G04 #@! TD*
G04 #@! TA.AperFunction,Conductor*
%ADD20C,0.508000*%
G04 #@! TD*
G04 APERTURE END LIST*
D10*
X121589976Y-108503594D02*
G75*
G03*
X121589976Y-108503594I-2801785J0D01*
G01*
X121599976Y-85503594D02*
G75*
G03*
X121599976Y-85503594I-2801785J0D01*
G01*
X179599976Y-85503594D02*
G75*
G03*
X179599976Y-85503594I-2801785J0D01*
G01*
X179603570Y-108500000D02*
G75*
G03*
X179603570Y-108500000I-2801785J0D01*
G01*
D11*
X172790000Y-109770000D03*
X164150000Y-109770000D03*
D12*
X172790000Y-105590000D03*
X164150000Y-105590000D03*
D13*
X123670000Y-86770000D03*
D14*
X123670000Y-84230000D03*
X126210000Y-86770000D03*
X126210000Y-84230000D03*
X128750000Y-86770000D03*
X128750000Y-84230000D03*
X131290000Y-86770000D03*
X131290000Y-84230000D03*
X133830000Y-86770000D03*
X133830000Y-84230000D03*
X136370000Y-86770000D03*
X136370000Y-84230000D03*
X138910000Y-86770000D03*
X138910000Y-84230000D03*
X141450000Y-86770000D03*
X141450000Y-84230000D03*
X143990000Y-86770000D03*
X143990000Y-84230000D03*
X146530000Y-86770000D03*
X146530000Y-84230000D03*
X149070000Y-86770000D03*
X149070000Y-84230000D03*
X151610000Y-86770000D03*
X151610000Y-84230000D03*
X154150000Y-86770000D03*
X154150000Y-84230000D03*
X156690000Y-86770000D03*
X156690000Y-84230000D03*
X159230000Y-86770000D03*
X159230000Y-84230000D03*
X161770000Y-86770000D03*
X161770000Y-84230000D03*
X164310000Y-86770000D03*
X164310000Y-84230000D03*
X166850000Y-86770000D03*
X166850000Y-84230000D03*
X169390000Y-86770000D03*
X169390000Y-84230000D03*
X171930000Y-86770000D03*
X171930000Y-84230000D03*
D15*
X138230000Y-91000000D03*
X134410000Y-91000000D03*
X162570000Y-109310000D03*
X165690000Y-100070000D03*
X133460000Y-103060000D03*
X133490000Y-100860000D03*
X160090000Y-108790000D03*
X164510000Y-100070000D03*
X146431852Y-95261900D03*
X145750000Y-96180000D03*
X163060000Y-101216492D03*
X162201900Y-103598564D03*
X162280000Y-106260000D03*
X149520000Y-92810000D03*
X154543326Y-90083326D03*
X136381340Y-96929460D03*
X161500000Y-110379500D03*
X156000000Y-110384500D03*
X168640000Y-106330000D03*
X168420000Y-101840000D03*
X174600000Y-91600000D03*
X171640000Y-108070000D03*
X133660000Y-111460000D03*
X149180000Y-108070000D03*
X148900000Y-88840000D03*
X130980000Y-111410000D03*
X131000000Y-105600000D03*
X138400000Y-107000000D03*
X158000000Y-85400000D03*
X134840000Y-88990000D03*
X140500000Y-102000000D03*
X160120000Y-104920000D03*
X143800000Y-101400000D03*
X156860000Y-103520000D03*
X133200000Y-94600000D03*
X173380000Y-100180000D03*
X152220000Y-103250000D03*
X163600000Y-95200000D03*
X134280000Y-88200000D03*
X159200000Y-100000000D03*
X174600000Y-89000000D03*
X174570000Y-103140000D03*
X154200000Y-88400000D03*
X151830000Y-106150000D03*
X172000000Y-90800000D03*
X151170000Y-105230000D03*
X149600000Y-89960000D03*
X163010000Y-110590000D03*
X160200000Y-100000000D03*
X137500000Y-100500000D03*
X133850000Y-88990000D03*
X174610000Y-101930000D03*
X132500000Y-111450000D03*
X153800000Y-89400000D03*
X151200000Y-111380000D03*
X154800000Y-102400000D03*
X155830000Y-104130000D03*
X137500000Y-103500000D03*
X143800000Y-103000000D03*
X162390000Y-107520000D03*
X170400000Y-90800000D03*
X133360000Y-88210000D03*
X131000000Y-101400000D03*
X137800000Y-105800000D03*
X163000000Y-85400000D03*
X137600000Y-83600000D03*
X151650000Y-104220000D03*
X171770000Y-100270000D03*
X156600000Y-97200000D03*
X160200000Y-99000000D03*
X139000000Y-102000000D03*
X152200000Y-105170000D03*
X155800000Y-98000000D03*
X150200000Y-111400000D03*
X142800000Y-100800000D03*
X135670000Y-89440000D03*
X161400000Y-100200000D03*
X167150000Y-100220000D03*
X149620000Y-91050000D03*
X139200000Y-105800000D03*
X140500000Y-103500000D03*
X137500000Y-102000000D03*
X152790000Y-106120000D03*
X174510000Y-99190000D03*
X131000000Y-107000000D03*
X174600000Y-90400000D03*
X131800000Y-96200000D03*
X170440000Y-100390000D03*
X143000000Y-104000000D03*
X131000000Y-97000000D03*
X174600000Y-94000000D03*
X132200000Y-95200000D03*
X139000000Y-100500000D03*
X166080000Y-107880000D03*
X167600000Y-95400000D03*
X140500000Y-100500000D03*
X142800000Y-102400000D03*
X136080000Y-90220000D03*
X131400000Y-94400000D03*
X156860000Y-104730000D03*
X143800000Y-99800000D03*
X140200000Y-83600000D03*
X140800000Y-105600000D03*
X131000000Y-108400000D03*
X172570000Y-101160000D03*
X131000000Y-98600000D03*
X138200000Y-101200000D03*
X162970000Y-104970000D03*
X164400000Y-91600000D03*
X154800000Y-99800000D03*
X160200000Y-95200000D03*
X143930000Y-94790000D03*
X159600000Y-101000000D03*
X169800000Y-96600000D03*
X174600000Y-92800000D03*
X131000000Y-100000000D03*
X152740000Y-104210000D03*
X162400000Y-91600000D03*
X170800000Y-95600000D03*
X131000000Y-104200000D03*
X166800000Y-91600000D03*
X138200000Y-102800000D03*
X139800000Y-102800000D03*
X174600000Y-100630000D03*
X139800000Y-101200000D03*
X159110000Y-104930000D03*
X131000000Y-95400000D03*
X139000000Y-103500000D03*
X149790000Y-88250000D03*
X170600000Y-85400000D03*
X131000000Y-102800000D03*
X157769428Y-96200572D03*
X132890000Y-108040000D03*
X157480000Y-108490000D03*
X160325000Y-97625000D03*
X137305601Y-97412514D03*
X138155756Y-97938100D03*
X139150000Y-98144860D03*
X139530000Y-107410000D03*
X140820000Y-107410000D03*
X142889714Y-107429714D03*
X144030000Y-107420000D03*
X145029438Y-107431357D03*
X146080000Y-107460000D03*
X151630000Y-91700000D03*
X147710000Y-96410000D03*
X151690000Y-109280000D03*
X154800000Y-101070000D03*
X157153326Y-98143326D03*
D16*
X131310000Y-91870000D02*
X126210000Y-86770000D01*
X138230000Y-91000000D02*
X136280000Y-91000000D01*
X135410000Y-91870000D02*
X131310000Y-91870000D01*
X136280000Y-91000000D02*
X135410000Y-91870000D01*
X134410000Y-91000000D02*
X134390000Y-91020000D01*
X129604404Y-88474405D02*
X128750000Y-87620000D01*
X130885745Y-90592887D02*
X130880051Y-90587193D01*
X130880050Y-90168621D02*
X131089335Y-89959335D01*
X130270463Y-88232610D02*
X130270463Y-88232611D01*
X132150000Y-90595735D02*
X132391794Y-90353940D01*
X131967529Y-89929675D02*
X131967529Y-89929676D01*
X130665069Y-89535069D02*
X130455782Y-89744353D01*
X130240802Y-89110802D02*
X130694728Y-88656875D01*
X130880051Y-90168623D02*
X130880050Y-90168621D01*
X130037211Y-89744354D02*
X130037212Y-89744354D01*
X130037212Y-89744354D02*
X130031518Y-89738660D01*
X131089335Y-89959335D02*
X131543261Y-89505408D01*
X131118996Y-89081143D02*
X131118996Y-89081144D01*
X128750000Y-87620000D02*
X128750000Y-86770000D01*
X130031518Y-89320090D02*
X130031517Y-89320088D01*
X131967529Y-89929676D02*
X131304315Y-90592886D01*
X134390000Y-91020000D02*
X132150000Y-91020000D01*
X130270463Y-88232611D02*
X130028668Y-88474405D01*
X132149999Y-90595735D02*
X132150000Y-90595735D01*
X131118996Y-89081144D02*
X130665069Y-89535069D01*
X130885744Y-90592887D02*
X130885745Y-90592887D01*
X130031517Y-89320088D02*
X130240802Y-89110802D01*
X130885715Y-90592916D02*
G75*
G03*
X131304315Y-90592886I209285J209316D01*
G01*
X131967568Y-89929714D02*
G75*
G02*
X132391794Y-89929676I212132J-212086D01*
G01*
X132150032Y-90595769D02*
G75*
G03*
X132150000Y-91020000I212068J-212131D01*
G01*
X130694771Y-88232568D02*
G75*
G02*
X130694728Y-88656875I-212171J-212132D01*
G01*
X129604405Y-88474404D02*
G75*
G03*
X130028667Y-88474404I212131J212131D01*
G01*
X130037216Y-89744349D02*
G75*
G03*
X130455781Y-89744352I209284J209249D01*
G01*
X131543237Y-89081168D02*
G75*
G02*
X131543261Y-89505408I-212137J-212132D01*
G01*
X130880044Y-90168616D02*
G75*
G03*
X130880052Y-90587192I209256J-209284D01*
G01*
X132391801Y-89929669D02*
G75*
G02*
X132391793Y-90353939I-212101J-212131D01*
G01*
X130270469Y-88232616D02*
G75*
G02*
X130694727Y-88232612I212131J-212084D01*
G01*
X130031544Y-89320116D02*
G75*
G03*
X130031519Y-89738659I209256J-209284D01*
G01*
X131118968Y-89081115D02*
G75*
G02*
X131543261Y-89081144I212132J-212185D01*
G01*
X157820000Y-107450000D02*
X158640000Y-108270000D01*
X161450000Y-103030000D02*
X161450000Y-108190000D01*
X133460000Y-106466784D02*
X136327536Y-109334320D01*
X136327536Y-109334320D02*
X149745680Y-109334320D01*
X159341911Y-109541911D02*
X162338089Y-109541911D01*
X149745680Y-109334320D02*
X151630000Y-107450000D01*
X162338089Y-109541911D02*
X162570000Y-109310000D01*
X158640000Y-108270000D02*
X158640000Y-108840000D01*
X158640000Y-108840000D02*
X159341911Y-109541911D01*
X165690000Y-100600000D02*
X163810000Y-102480000D01*
X161450000Y-108190000D02*
X162570000Y-109310000D01*
X165690000Y-100070000D02*
X165690000Y-100600000D01*
X151630000Y-107450000D02*
X157820000Y-107450000D01*
X133460000Y-103060000D02*
X133460000Y-106466784D01*
X163810000Y-102480000D02*
X162000000Y-102480000D01*
X162000000Y-102480000D02*
X161450000Y-103030000D01*
X151421104Y-106945680D02*
X158245680Y-106945680D01*
X149536784Y-108830000D02*
X151421104Y-106945680D01*
X134420000Y-106713568D02*
X136536432Y-108830000D01*
X160945680Y-102821104D02*
X160945680Y-104330000D01*
X164510000Y-100070000D02*
X164510000Y-101066784D01*
X163608392Y-101968392D02*
X161798392Y-101968392D01*
X133490000Y-100860000D02*
X134420000Y-101790000D01*
X164510000Y-101066784D02*
X163608392Y-101968392D01*
X160945680Y-104330000D02*
X160945680Y-107934320D01*
X136536432Y-108830000D02*
X149536784Y-108830000D01*
X161798392Y-101968392D02*
X160945680Y-102821104D01*
X160945680Y-107934320D02*
X160090000Y-108790000D01*
X158245680Y-106945680D02*
X160090000Y-108790000D01*
X134420000Y-101790000D02*
X134420000Y-106713568D01*
X146431852Y-95261900D02*
X146530000Y-95163752D01*
X146530000Y-95163752D02*
X146530000Y-86770000D01*
X145750000Y-96180000D02*
X146577116Y-96180000D01*
X147530000Y-88310000D02*
X149070000Y-86770000D01*
X147530000Y-95227116D02*
X147530000Y-88310000D01*
X146577116Y-96180000D02*
X147530000Y-95227116D01*
D17*
X173360000Y-87570000D02*
X173360000Y-91110000D01*
X126890000Y-82720000D02*
X127020000Y-82590000D01*
X173360000Y-91110000D02*
X168860000Y-95610000D01*
X172910000Y-82590000D02*
X173330000Y-83010000D01*
D18*
X162005120Y-105985120D02*
X162280000Y-106260000D01*
D17*
X163060000Y-99200000D02*
X163060000Y-101216492D01*
X133760000Y-82590000D02*
X172910000Y-82590000D01*
D18*
X162201900Y-103598564D02*
X162005120Y-103795344D01*
D17*
X127020000Y-82590000D02*
X133760000Y-82590000D01*
D18*
X162005120Y-103795344D02*
X162005120Y-105985120D01*
D17*
X168860000Y-95610000D02*
X166280000Y-98190000D01*
X166280000Y-98190000D02*
X165740000Y-98190000D01*
X165740000Y-98190000D02*
X164070000Y-98190000D01*
X173360000Y-83040000D02*
X173360000Y-87570000D01*
X173330000Y-83010000D02*
X173360000Y-83040000D01*
X163340000Y-98920000D02*
X163060000Y-99200000D01*
X126210000Y-84230000D02*
X126210000Y-83400000D01*
X126210000Y-83400000D02*
X126890000Y-82720000D01*
X164070000Y-98190000D02*
X163340000Y-98920000D01*
D16*
X153404320Y-91222332D02*
X153404320Y-91572464D01*
X154543326Y-90083326D02*
X153404320Y-91222332D01*
X153404320Y-91572464D02*
X152216784Y-92760000D01*
X152216784Y-92760000D02*
X149570000Y-92760000D01*
X149570000Y-92760000D02*
X149520000Y-92810000D01*
X155450000Y-90240000D02*
X155450000Y-85470000D01*
X148253769Y-97436231D02*
X155450000Y-90240000D01*
X155450000Y-85470000D02*
X156690000Y-84230000D01*
X144177740Y-96384320D02*
X145229651Y-97436231D01*
X136381340Y-96929460D02*
X136926480Y-96384320D01*
X136926480Y-96384320D02*
X144177740Y-96384320D01*
X145229651Y-97436231D02*
X148253769Y-97436231D01*
X156000000Y-110384500D02*
X161495000Y-110384500D01*
X161495000Y-110384500D02*
X161500000Y-110379500D01*
D19*
X168420000Y-101840000D02*
X168420000Y-106110000D01*
X168420000Y-106110000D02*
X168640000Y-106330000D01*
D20*
X164150000Y-105590000D02*
X164150000Y-109770000D01*
X172790000Y-109770000D02*
X172790000Y-105590000D01*
X164150000Y-109770000D02*
X172790000Y-109770000D01*
D16*
X142740000Y-85520000D02*
X143990000Y-86770000D01*
D20*
X131860000Y-107010000D02*
X131860000Y-97630000D01*
D16*
X123670000Y-86770000D02*
X124920000Y-85520000D01*
D20*
X141650000Y-95120000D02*
X143990000Y-92780000D01*
X157769428Y-96200572D02*
X158900572Y-96200572D01*
X131860000Y-97630000D02*
X134370000Y-95120000D01*
X134370000Y-95120000D02*
X141650000Y-95120000D01*
D16*
X124920000Y-85520000D02*
X142740000Y-85520000D01*
D20*
X155360000Y-108490000D02*
X157480000Y-108490000D01*
X158900572Y-96200572D02*
X160325000Y-97625000D01*
X143990000Y-92780000D02*
X143990000Y-86770000D01*
X153405440Y-110444560D02*
X155360000Y-108490000D01*
X135294560Y-110444560D02*
X153405440Y-110444560D01*
X132890000Y-108040000D02*
X131860000Y-107010000D01*
X132890000Y-108040000D02*
X135294560Y-110444560D01*
D16*
X148462665Y-97940551D02*
X156690000Y-89713216D01*
X137829475Y-96888640D02*
X143968844Y-96888640D01*
X156690000Y-89713216D02*
X156690000Y-86770000D01*
X143968844Y-96888640D02*
X145020755Y-97940551D01*
X137305601Y-97412514D02*
X137829475Y-96888640D01*
X145020755Y-97940551D02*
X148462665Y-97940551D01*
X138155756Y-97938100D02*
X138700896Y-97392960D01*
X148671561Y-98444871D02*
X159230000Y-87886432D01*
X143759948Y-97392960D02*
X144811859Y-98444871D01*
X144811859Y-98444871D02*
X148671561Y-98444871D01*
X159230000Y-87886432D02*
X159230000Y-86770000D01*
X138700896Y-97392960D02*
X143759948Y-97392960D01*
X148880457Y-98949191D02*
X160490000Y-87339648D01*
X139954331Y-98949191D02*
X148880457Y-98949191D01*
X160490000Y-87339648D02*
X160490000Y-85510000D01*
X139150000Y-98144860D02*
X139954331Y-98949191D01*
X160490000Y-85510000D02*
X161770000Y-84230000D01*
X140312720Y-106627280D02*
X141915584Y-106627280D01*
X139530000Y-107410000D02*
X140312720Y-106627280D01*
X141915584Y-106627280D02*
X161770000Y-86772864D01*
X161770000Y-86772864D02*
X161770000Y-86770000D01*
X141846080Y-107410000D02*
X160956080Y-88300000D01*
X160956080Y-88300000D02*
X162780000Y-88300000D01*
X140820000Y-107410000D02*
X141846080Y-107410000D01*
X162780000Y-88300000D02*
X164310000Y-86770000D01*
X142889714Y-107429714D02*
X142889714Y-107079582D01*
X165600000Y-85480000D02*
X166850000Y-84230000D01*
X164315680Y-88804320D02*
X165600000Y-87520000D01*
X161164976Y-88804320D02*
X164315680Y-88804320D01*
X142889714Y-107079582D02*
X161164976Y-88804320D01*
X165600000Y-87520000D02*
X165600000Y-85480000D01*
X144030000Y-106652512D02*
X161373872Y-89308640D01*
X164524576Y-89308640D02*
X166850000Y-86983216D01*
X166850000Y-86983216D02*
X166850000Y-86770000D01*
X144030000Y-107420000D02*
X144030000Y-106652512D01*
X161373872Y-89308640D02*
X164524576Y-89308640D01*
X168110000Y-87670000D02*
X168110000Y-85510000D01*
X168110000Y-85510000D02*
X169390000Y-84230000D01*
X161582768Y-89812960D02*
X165967040Y-89812960D01*
X145029438Y-107431357D02*
X145029438Y-106366290D01*
X165967040Y-89812960D02*
X168110000Y-87670000D01*
X145029438Y-106366290D02*
X161582768Y-89812960D01*
X146080000Y-107460000D02*
X146080000Y-106028944D01*
X146080000Y-106028944D02*
X161791664Y-90317280D01*
X161791664Y-90317280D02*
X167062720Y-90317280D01*
X169390000Y-87990000D02*
X169390000Y-86770000D01*
X167062720Y-90317280D02*
X169390000Y-87990000D01*
X136118640Y-109838640D02*
X132520000Y-106240000D01*
X132520000Y-106240000D02*
X132520000Y-97980000D01*
X145438547Y-96931911D02*
X146538421Y-96931911D01*
X132520000Y-97980000D02*
X134620000Y-95880000D01*
X152900000Y-90430000D02*
X152900000Y-85480000D01*
X151630000Y-91700000D02*
X152900000Y-90430000D01*
X151131360Y-109838640D02*
X136118640Y-109838640D01*
X151690000Y-109280000D02*
X151131360Y-109838640D01*
X152900000Y-85480000D02*
X154150000Y-84230000D01*
X144386636Y-95880000D02*
X145438547Y-96931911D01*
X147385166Y-96085166D02*
X147710000Y-96410000D01*
X146538421Y-96931911D02*
X147385166Y-96085166D01*
X134620000Y-95880000D02*
X144386636Y-95880000D01*
X157153326Y-98716674D02*
X154800000Y-101070000D01*
X157153326Y-98143326D02*
X157153326Y-98716674D01*
G04 #@! TA.AperFunction,Conductor*
G36*
X176771643Y-82154001D02*
G01*
X176783977Y-82154001D01*
X176800000Y-82158294D01*
X176816024Y-82154000D01*
X176817705Y-82154000D01*
X176824294Y-82154173D01*
X177143271Y-82170890D01*
X177156381Y-82172268D01*
X177465121Y-82221167D01*
X177489379Y-82225009D01*
X177502279Y-82227751D01*
X177793125Y-82305683D01*
X177827937Y-82315011D01*
X177840480Y-82319087D01*
X178155219Y-82439904D01*
X178167268Y-82445268D01*
X178467670Y-82598330D01*
X178479092Y-82604925D01*
X178742326Y-82775871D01*
X178761842Y-82788545D01*
X178772508Y-82796295D01*
X178900308Y-82899785D01*
X179034516Y-83008465D01*
X179044317Y-83017290D01*
X179282710Y-83255683D01*
X179291535Y-83265484D01*
X179483611Y-83502677D01*
X179503703Y-83527489D01*
X179511453Y-83538156D01*
X179562116Y-83616169D01*
X179695075Y-83820908D01*
X179701670Y-83832330D01*
X179854732Y-84132732D01*
X179860096Y-84144781D01*
X179977537Y-84450724D01*
X179980913Y-84459520D01*
X179984989Y-84472061D01*
X180023089Y-84614255D01*
X180072249Y-84797721D01*
X180074991Y-84810621D01*
X180122234Y-85108900D01*
X180127732Y-85143616D01*
X180129110Y-85156729D01*
X180145548Y-85470368D01*
X180145827Y-85475697D01*
X180146000Y-85482295D01*
X180146000Y-85483976D01*
X180141706Y-85500000D01*
X180145999Y-85516023D01*
X180145999Y-85528357D01*
X180147100Y-85536720D01*
X180147100Y-108463280D01*
X180145999Y-108471643D01*
X180145999Y-108483977D01*
X180141706Y-108500000D01*
X180146000Y-108516024D01*
X180146000Y-108517705D01*
X180145827Y-108524294D01*
X180129110Y-108843268D01*
X180127732Y-108856381D01*
X180086675Y-109115609D01*
X180074991Y-109189379D01*
X180072249Y-109202279D01*
X180061648Y-109241842D01*
X180010789Y-109431652D01*
X179984989Y-109527937D01*
X179980913Y-109540479D01*
X179922011Y-109693925D01*
X179860096Y-109855219D01*
X179854732Y-109867268D01*
X179701670Y-110167670D01*
X179695075Y-110179092D01*
X179558227Y-110389820D01*
X179511455Y-110461842D01*
X179503705Y-110472508D01*
X179364519Y-110644388D01*
X179291535Y-110734516D01*
X179282710Y-110744317D01*
X179044317Y-110982710D01*
X179034516Y-110991535D01*
X178868564Y-111125921D01*
X178772511Y-111203703D01*
X178761844Y-111211453D01*
X178648103Y-111285318D01*
X178479092Y-111395075D01*
X178467670Y-111401670D01*
X178167268Y-111554732D01*
X178155219Y-111560096D01*
X177840480Y-111680913D01*
X177827937Y-111684989D01*
X177502279Y-111772249D01*
X177489379Y-111774991D01*
X177156381Y-111827732D01*
X177143271Y-111829110D01*
X176824294Y-111845827D01*
X176817705Y-111846000D01*
X176816024Y-111846000D01*
X176800000Y-111841706D01*
X176783977Y-111845999D01*
X176771643Y-111845999D01*
X176763280Y-111847100D01*
X130626000Y-111847100D01*
X130557879Y-111827098D01*
X130511386Y-111773442D01*
X130500000Y-111721100D01*
X130500000Y-91863266D01*
X130520002Y-91795145D01*
X130573658Y-91748652D01*
X130643932Y-91738548D01*
X130708512Y-91768042D01*
X130715095Y-91774171D01*
X131024339Y-92083415D01*
X131036672Y-92098684D01*
X131039724Y-92102038D01*
X131045375Y-92110790D01*
X131069499Y-92129808D01*
X131073466Y-92133334D01*
X131073552Y-92133233D01*
X131077515Y-92136591D01*
X131081193Y-92140269D01*
X131095627Y-92150584D01*
X131100357Y-92154135D01*
X131137638Y-92183525D01*
X131145673Y-92186347D01*
X131152599Y-92191296D01*
X131162570Y-92194278D01*
X131162574Y-92194280D01*
X131198076Y-92204897D01*
X131203692Y-92206721D01*
X131248487Y-92222452D01*
X131253659Y-92222900D01*
X131256363Y-92222900D01*
X131258595Y-92222996D01*
X131259095Y-92223146D01*
X131259093Y-92223184D01*
X131259257Y-92223194D01*
X131265158Y-92224959D01*
X131315089Y-92222997D01*
X131320035Y-92222900D01*
X135358917Y-92222900D01*
X135378430Y-92224977D01*
X135382968Y-92225191D01*
X135393146Y-92227382D01*
X135413645Y-92224956D01*
X135423642Y-92223773D01*
X135428950Y-92223460D01*
X135428939Y-92223328D01*
X135434117Y-92222900D01*
X135439318Y-92222900D01*
X135444447Y-92222046D01*
X135444450Y-92222046D01*
X135456814Y-92219988D01*
X135462693Y-92219151D01*
X135465759Y-92218788D01*
X135509817Y-92213574D01*
X135517493Y-92209888D01*
X135525891Y-92208490D01*
X135557758Y-92191296D01*
X135567660Y-92185953D01*
X135572933Y-92183265D01*
X135615725Y-92162717D01*
X135619699Y-92159377D01*
X135621637Y-92157439D01*
X135623253Y-92155957D01*
X135623715Y-92155708D01*
X135623741Y-92155737D01*
X135623868Y-92155625D01*
X135629286Y-92152702D01*
X135637988Y-92143289D01*
X135663207Y-92116006D01*
X135666637Y-92112439D01*
X136389271Y-91389805D01*
X136451583Y-91355779D01*
X136478366Y-91352900D01*
X137681739Y-91352900D01*
X137749860Y-91372902D01*
X137781701Y-91402195D01*
X137801718Y-91428282D01*
X137808268Y-91433308D01*
X137808269Y-91433309D01*
X137837540Y-91455769D01*
X137927159Y-91524536D01*
X138073238Y-91585044D01*
X138230000Y-91605682D01*
X138238188Y-91604604D01*
X138294033Y-91597252D01*
X138386762Y-91585044D01*
X138532841Y-91524536D01*
X138658282Y-91428282D01*
X138754536Y-91302841D01*
X138815044Y-91156762D01*
X138835682Y-91000000D01*
X138815044Y-90843238D01*
X138754536Y-90697159D01*
X138658282Y-90571718D01*
X138532841Y-90475464D01*
X138386762Y-90414956D01*
X138230000Y-90394318D01*
X138073238Y-90414956D01*
X137927159Y-90475464D01*
X137801718Y-90571718D01*
X137785900Y-90592333D01*
X137781701Y-90597805D01*
X137724363Y-90639672D01*
X137681739Y-90647100D01*
X136331088Y-90647100D01*
X136311556Y-90645022D01*
X136307034Y-90644809D01*
X136296854Y-90642617D01*
X136266354Y-90646227D01*
X136261051Y-90646540D01*
X136261062Y-90646672D01*
X136255884Y-90647100D01*
X136250682Y-90647100D01*
X136233187Y-90650012D01*
X136227343Y-90650844D01*
X136203948Y-90653613D01*
X136190523Y-90655202D01*
X136190522Y-90655202D01*
X136180183Y-90656426D01*
X136172506Y-90660112D01*
X136164109Y-90661510D01*
X136154950Y-90666452D01*
X136154947Y-90666453D01*
X136122352Y-90684041D01*
X136117060Y-90686737D01*
X136074275Y-90707282D01*
X136070301Y-90710623D01*
X136068368Y-90712556D01*
X136066747Y-90714043D01*
X136066298Y-90714285D01*
X136066270Y-90714254D01*
X136066134Y-90714373D01*
X136060714Y-90717298D01*
X136053644Y-90724946D01*
X136053643Y-90724947D01*
X136026793Y-90753994D01*
X136023363Y-90757561D01*
X135300729Y-91480195D01*
X135238417Y-91514221D01*
X135211634Y-91517100D01*
X135025633Y-91517100D01*
X134957512Y-91497098D01*
X134911019Y-91443442D01*
X134900915Y-91373168D01*
X134925669Y-91314399D01*
X134929505Y-91309400D01*
X134929511Y-91309390D01*
X134934536Y-91302841D01*
X134995044Y-91156762D01*
X135015682Y-91000000D01*
X134995044Y-90843238D01*
X134934536Y-90697159D01*
X134838282Y-90571718D01*
X134712841Y-90475464D01*
X134566762Y-90414956D01*
X134410000Y-90394318D01*
X134253238Y-90414956D01*
X134107159Y-90475464D01*
X133981718Y-90571718D01*
X133976695Y-90578264D01*
X133946355Y-90617804D01*
X133889017Y-90659671D01*
X133846392Y-90667100D01*
X132851889Y-90667100D01*
X132783768Y-90647098D01*
X132737275Y-90593442D01*
X132727171Y-90523168D01*
X132738370Y-90486426D01*
X132799827Y-90358832D01*
X132832576Y-90215382D01*
X132832578Y-90068242D01*
X132799836Y-89924792D01*
X132735990Y-89792225D01*
X132647777Y-89681623D01*
X132644425Y-89677010D01*
X132642210Y-89675401D01*
X132639624Y-89673522D01*
X132624660Y-89661590D01*
X132560519Y-89610448D01*
X132529202Y-89585477D01*
X132484502Y-89563955D01*
X132403017Y-89524722D01*
X132403014Y-89524721D01*
X132396642Y-89521653D01*
X132253204Y-89488927D01*
X132110018Y-89488940D01*
X132041897Y-89468944D01*
X131995399Y-89415293D01*
X131984008Y-89362948D01*
X131984005Y-89314772D01*
X131983999Y-89219705D01*
X131951258Y-89076279D01*
X131887424Y-88943733D01*
X131799852Y-88833920D01*
X131798303Y-88831787D01*
X131795913Y-88828498D01*
X131791099Y-88825000D01*
X131784545Y-88819773D01*
X131686230Y-88741366D01*
X131686227Y-88741364D01*
X131680697Y-88736954D01*
X131569978Y-88683629D01*
X131554516Y-88676182D01*
X131554513Y-88676181D01*
X131548143Y-88673113D01*
X131541247Y-88671539D01*
X131541245Y-88671538D01*
X131411612Y-88641943D01*
X131411611Y-88641943D01*
X131404708Y-88640367D01*
X131310086Y-88640361D01*
X131261510Y-88640357D01*
X131193391Y-88620350D01*
X131146902Y-88566691D01*
X131135519Y-88514344D01*
X131135526Y-88451420D01*
X131135534Y-88371198D01*
X131102807Y-88227748D01*
X131065031Y-88149285D01*
X131042051Y-88101555D01*
X131042050Y-88101553D01*
X131038980Y-88095177D01*
X131021670Y-88073466D01*
X130954776Y-87989568D01*
X130950107Y-87983712D01*
X130947400Y-87979986D01*
X130947335Y-87979939D01*
X130942584Y-87976486D01*
X130854773Y-87906448D01*
X130837710Y-87892838D01*
X130837707Y-87892836D01*
X130832179Y-87888427D01*
X130825810Y-87885360D01*
X130820633Y-87882106D01*
X130790763Y-87848330D01*
X130760155Y-87850217D01*
X130733474Y-87840886D01*
X130705996Y-87827652D01*
X130705986Y-87827649D01*
X130699613Y-87824579D01*
X130692712Y-87823004D01*
X130692710Y-87823003D01*
X130628070Y-87808248D01*
X130597959Y-87801375D01*
X130535999Y-87766715D01*
X130502612Y-87704059D01*
X130500000Y-87678535D01*
X130500000Y-87623784D01*
X130520002Y-87555663D01*
X130573658Y-87509170D01*
X130643932Y-87499066D01*
X130707663Y-87527830D01*
X130742618Y-87557579D01*
X130747996Y-87560585D01*
X130747998Y-87560586D01*
X130775530Y-87575973D01*
X130849618Y-87617379D01*
X130886726Y-87655224D01*
X130926614Y-87655592D01*
X131084043Y-87706744D01*
X131269914Y-87728908D01*
X131276049Y-87728436D01*
X131276051Y-87728436D01*
X131450408Y-87715020D01*
X131450413Y-87715019D01*
X131456549Y-87714547D01*
X131462479Y-87712891D01*
X131462481Y-87712891D01*
X131614155Y-87670543D01*
X131636841Y-87664209D01*
X131654629Y-87655224D01*
X131793886Y-87584879D01*
X131803921Y-87579810D01*
X131832376Y-87557579D01*
X131843554Y-87548846D01*
X133272811Y-87548846D01*
X133278946Y-87557598D01*
X133286450Y-87562814D01*
X133439552Y-87648379D01*
X133450793Y-87653290D01*
X133617602Y-87707490D01*
X133629576Y-87710123D01*
X133803745Y-87730891D01*
X133815994Y-87731148D01*
X133990878Y-87717692D01*
X134002956Y-87715562D01*
X134171886Y-87668395D01*
X134183319Y-87663961D01*
X134339875Y-87584879D01*
X134350234Y-87578305D01*
X134376683Y-87557641D01*
X134385154Y-87545825D01*
X134378618Y-87534144D01*
X133842812Y-86998338D01*
X133828868Y-86990724D01*
X133827035Y-86990855D01*
X133820420Y-86995106D01*
X133280187Y-87535339D01*
X133272811Y-87548846D01*
X131843554Y-87548846D01*
X131946571Y-87468360D01*
X131946572Y-87468360D01*
X131951427Y-87464566D01*
X132054098Y-87345620D01*
X132069709Y-87327535D01*
X132069710Y-87327533D01*
X132073738Y-87322867D01*
X132166198Y-87160108D01*
X132225283Y-86982491D01*
X132248744Y-86796780D01*
X132249118Y-86770000D01*
X132248404Y-86762715D01*
X132868779Y-86762715D01*
X132883454Y-86937488D01*
X132885669Y-86949552D01*
X132934013Y-87118148D01*
X132938531Y-87129560D01*
X133018696Y-87285543D01*
X133025350Y-87295867D01*
X133042065Y-87316957D01*
X133054057Y-87325427D01*
X133065504Y-87318970D01*
X133601662Y-86782812D01*
X133608040Y-86771132D01*
X134050724Y-86771132D01*
X134050855Y-86772965D01*
X134055106Y-86779580D01*
X134595731Y-87320205D01*
X134609357Y-87327646D01*
X134616415Y-87322736D01*
X134618997Y-87319075D01*
X134705629Y-87166575D01*
X134710623Y-87155359D01*
X134765982Y-86988944D01*
X134768702Y-86976972D01*
X134791013Y-86800360D01*
X134791505Y-86793331D01*
X134791782Y-86773505D01*
X134791489Y-86766512D01*
X134774114Y-86589312D01*
X134771731Y-86577277D01*
X134721038Y-86409375D01*
X134716364Y-86398034D01*
X134634019Y-86243166D01*
X134627239Y-86232962D01*
X134618620Y-86222394D01*
X134606277Y-86213931D01*
X134595304Y-86220222D01*
X134058338Y-86757188D01*
X134050724Y-86771132D01*
X133608040Y-86771132D01*
X133609276Y-86768868D01*
X133609145Y-86767035D01*
X133604894Y-86760420D01*
X133065020Y-86220546D01*
X133051635Y-86213237D01*
X133041708Y-86220247D01*
X133040347Y-86221870D01*
X133033409Y-86232001D01*
X132948913Y-86385699D01*
X132944085Y-86396963D01*
X132891049Y-86564154D01*
X132888501Y-86576142D01*
X132868950Y-86750446D01*
X132868779Y-86762715D01*
X132248404Y-86762715D01*
X132230852Y-86583706D01*
X132176749Y-86404509D01*
X132170185Y-86392163D01*
X132091764Y-86244674D01*
X132091762Y-86244671D01*
X132088870Y-86239232D01*
X132084980Y-86234462D01*
X132084977Y-86234458D01*
X131995444Y-86124681D01*
X131970562Y-86094173D01*
X131965810Y-86090242D01*
X131963272Y-86087686D01*
X131929463Y-86025256D01*
X131934774Y-85954459D01*
X131977517Y-85897771D01*
X132044123Y-85873191D01*
X132052676Y-85872900D01*
X133147424Y-85872900D01*
X133215545Y-85892902D01*
X133262038Y-85946558D01*
X133269909Y-85986243D01*
X133280642Y-86005116D01*
X133817188Y-86541662D01*
X133831132Y-86549276D01*
X133832965Y-86549145D01*
X133839580Y-86544894D01*
X134379127Y-86005347D01*
X134394663Y-85976896D01*
X134403013Y-85938513D01*
X134453216Y-85888311D01*
X134513600Y-85872900D01*
X135607365Y-85872900D01*
X135675486Y-85892902D01*
X135721979Y-85946558D01*
X135732083Y-86016832D01*
X135702589Y-86081412D01*
X135701084Y-86083013D01*
X135698940Y-86084736D01*
X135694982Y-86089454D01*
X135694978Y-86089457D01*
X135627828Y-86169484D01*
X135578619Y-86228130D01*
X135575655Y-86233522D01*
X135575652Y-86233526D01*
X135560872Y-86260411D01*
X135488441Y-86392163D01*
X135486580Y-86398030D01*
X135486579Y-86398032D01*
X135438074Y-86550938D01*
X135431841Y-86570588D01*
X135410975Y-86756609D01*
X135413435Y-86785898D01*
X135425241Y-86926487D01*
X135426639Y-86943139D01*
X135428338Y-86949064D01*
X135471360Y-87099098D01*
X135478235Y-87123075D01*
X135481050Y-87128552D01*
X135481051Y-87128555D01*
X135558423Y-87279105D01*
X135563797Y-87289562D01*
X135567620Y-87294386D01*
X135567623Y-87294390D01*
X135644031Y-87390792D01*
X135680068Y-87436259D01*
X135684762Y-87440254D01*
X135724476Y-87474053D01*
X135822618Y-87557579D01*
X135827996Y-87560585D01*
X135827998Y-87560586D01*
X135855605Y-87576015D01*
X135986018Y-87648900D01*
X136164043Y-87706744D01*
X136349914Y-87728908D01*
X136356049Y-87728436D01*
X136356051Y-87728436D01*
X136530408Y-87715020D01*
X136530413Y-87715019D01*
X136536549Y-87714547D01*
X136542479Y-87712891D01*
X136542481Y-87712891D01*
X136694155Y-87670543D01*
X136716841Y-87664209D01*
X136734629Y-87655224D01*
X136873886Y-87584879D01*
X136883921Y-87579810D01*
X136912376Y-87557579D01*
X137026571Y-87468360D01*
X137026572Y-87468360D01*
X137031427Y-87464566D01*
X137134098Y-87345620D01*
X137149709Y-87327535D01*
X137149710Y-87327533D01*
X137153738Y-87322867D01*
X137246198Y-87160108D01*
X137305283Y-86982491D01*
X137328744Y-86796780D01*
X137329118Y-86770000D01*
X137310852Y-86583706D01*
X137256749Y-86404509D01*
X137250185Y-86392163D01*
X137171764Y-86244674D01*
X137171762Y-86244671D01*
X137168870Y-86239232D01*
X137164980Y-86234462D01*
X137164977Y-86234458D01*
X137075444Y-86124681D01*
X137050562Y-86094173D01*
X137045810Y-86090242D01*
X137043272Y-86087686D01*
X137009463Y-86025256D01*
X137014774Y-85954459D01*
X137057517Y-85897771D01*
X137124123Y-85873191D01*
X137132676Y-85872900D01*
X138147365Y-85872900D01*
X138215486Y-85892902D01*
X138261979Y-85946558D01*
X138272083Y-86016832D01*
X138242589Y-86081412D01*
X138241084Y-86083013D01*
X138238940Y-86084736D01*
X138234982Y-86089454D01*
X138234978Y-86089457D01*
X138167828Y-86169484D01*
X138118619Y-86228130D01*
X138115655Y-86233522D01*
X138115652Y-86233526D01*
X138100872Y-86260411D01*
X138028441Y-86392163D01*
X138026580Y-86398030D01*
X138026579Y-86398032D01*
X137978074Y-86550938D01*
X137971841Y-86570588D01*
X137950975Y-86756609D01*
X137953435Y-86785898D01*
X137965241Y-86926487D01*
X137966639Y-86943139D01*
X137968338Y-86949064D01*
X138011360Y-87099098D01*
X138018235Y-87123075D01*
X138021050Y-87128552D01*
X138021051Y-87128555D01*
X138098423Y-87279105D01*
X138103797Y-87289562D01*
X138107620Y-87294386D01*
X138107623Y-87294390D01*
X138184031Y-87390792D01*
X138220068Y-87436259D01*
X138224762Y-87440254D01*
X138264476Y-87474053D01*
X138362618Y-87557579D01*
X138367996Y-87560585D01*
X138367998Y-87560586D01*
X138395605Y-87576015D01*
X138526018Y-87648900D01*
X138704043Y-87706744D01*
X138889914Y-87728908D01*
X138896049Y-87728436D01*
X138896051Y-87728436D01*
X139070408Y-87715020D01*
X139070413Y-87715019D01*
X139076549Y-87714547D01*
X139082479Y-87712891D01*
X139082481Y-87712891D01*
X139234155Y-87670543D01*
X139256841Y-87664209D01*
X139274629Y-87655224D01*
X139413886Y-87584879D01*
X139423921Y-87579810D01*
X139452376Y-87557579D01*
X139566571Y-87468360D01*
X139566572Y-87468360D01*
X139571427Y-87464566D01*
X139674098Y-87345620D01*
X139689709Y-87327535D01*
X139689710Y-87327533D01*
X139693738Y-87322867D01*
X139786198Y-87160108D01*
X139845283Y-86982491D01*
X139868744Y-86796780D01*
X139869118Y-86770000D01*
X139850852Y-86583706D01*
X139796749Y-86404509D01*
X139790185Y-86392163D01*
X139711764Y-86244674D01*
X139711762Y-86244671D01*
X139708870Y-86239232D01*
X139704980Y-86234462D01*
X139704977Y-86234458D01*
X139615444Y-86124681D01*
X139590562Y-86094173D01*
X139585810Y-86090242D01*
X139583272Y-86087686D01*
X139549463Y-86025256D01*
X139554774Y-85954459D01*
X139597517Y-85897771D01*
X139664123Y-85873191D01*
X139672676Y-85872900D01*
X140687365Y-85872900D01*
X140755486Y-85892902D01*
X140801979Y-85946558D01*
X140812083Y-86016832D01*
X140782589Y-86081412D01*
X140781084Y-86083013D01*
X140778940Y-86084736D01*
X140774982Y-86089454D01*
X140774978Y-86089457D01*
X140707828Y-86169484D01*
X140658619Y-86228130D01*
X140655655Y-86233522D01*
X140655652Y-86233526D01*
X140640872Y-86260411D01*
X140568441Y-86392163D01*
X140566580Y-86398030D01*
X140566579Y-86398032D01*
X140518074Y-86550938D01*
X140511841Y-86570588D01*
X140490975Y-86756609D01*
X140493435Y-86785898D01*
X140505241Y-86926487D01*
X140506639Y-86943139D01*
X140508338Y-86949064D01*
X140551360Y-87099098D01*
X140558235Y-87123075D01*
X140561050Y-87128552D01*
X140561051Y-87128555D01*
X140638423Y-87279105D01*
X140643797Y-87289562D01*
X140647620Y-87294386D01*
X140647623Y-87294390D01*
X140724031Y-87390792D01*
X140760068Y-87436259D01*
X140764762Y-87440254D01*
X140804476Y-87474053D01*
X140902618Y-87557579D01*
X140907996Y-87560585D01*
X140907998Y-87560586D01*
X140935605Y-87576015D01*
X141066018Y-87648900D01*
X141244043Y-87706744D01*
X141429914Y-87728908D01*
X141436049Y-87728436D01*
X141436051Y-87728436D01*
X141610408Y-87715020D01*
X141610413Y-87715019D01*
X141616549Y-87714547D01*
X141622479Y-87712891D01*
X141622481Y-87712891D01*
X141774155Y-87670543D01*
X141796841Y-87664209D01*
X141814629Y-87655224D01*
X141953886Y-87584879D01*
X141963921Y-87579810D01*
X141992376Y-87557579D01*
X142106571Y-87468360D01*
X142106572Y-87468360D01*
X142111427Y-87464566D01*
X142214098Y-87345620D01*
X142229709Y-87327535D01*
X142229710Y-87327533D01*
X142233738Y-87322867D01*
X142326198Y-87160108D01*
X142385283Y-86982491D01*
X142408744Y-86796780D01*
X142409118Y-86770000D01*
X142390852Y-86583706D01*
X142336749Y-86404509D01*
X142330185Y-86392163D01*
X142251764Y-86244674D01*
X142251762Y-86244671D01*
X142248870Y-86239232D01*
X142244980Y-86234462D01*
X142244977Y-86234458D01*
X142155444Y-86124681D01*
X142130562Y-86094173D01*
X142125810Y-86090242D01*
X142123272Y-86087686D01*
X142089463Y-86025256D01*
X142094774Y-85954459D01*
X142137517Y-85897771D01*
X142204123Y-85873191D01*
X142212676Y-85872900D01*
X142541634Y-85872900D01*
X142609755Y-85892902D01*
X142630729Y-85909805D01*
X143055389Y-86334465D01*
X143089415Y-86396777D01*
X143086396Y-86461657D01*
X143051841Y-86570588D01*
X143030975Y-86756609D01*
X143033435Y-86785898D01*
X143045241Y-86926487D01*
X143046639Y-86943139D01*
X143048338Y-86949064D01*
X143091360Y-87099098D01*
X143098235Y-87123075D01*
X143101050Y-87128552D01*
X143101051Y-87128555D01*
X143178423Y-87279105D01*
X143183797Y-87289562D01*
X143187620Y-87294386D01*
X143187623Y-87294390D01*
X143264031Y-87390792D01*
X143300068Y-87436259D01*
X143304762Y-87440254D01*
X143344476Y-87474053D01*
X143442618Y-87557579D01*
X143470971Y-87573425D01*
X143520676Y-87624116D01*
X143535500Y-87683412D01*
X143535500Y-92539550D01*
X143515498Y-92607671D01*
X143498595Y-92628645D01*
X141498645Y-94628595D01*
X141436333Y-94662621D01*
X141409550Y-94665500D01*
X134404456Y-94665500D01*
X134389647Y-94664627D01*
X134364915Y-94661700D01*
X134355562Y-94660593D01*
X134346298Y-94662285D01*
X134346295Y-94662285D01*
X134297320Y-94671229D01*
X134293418Y-94671878D01*
X134244164Y-94679284D01*
X134244161Y-94679285D01*
X134234849Y-94680685D01*
X134228282Y-94683838D01*
X134221117Y-94685147D01*
X134168533Y-94712462D01*
X134165043Y-94714205D01*
X134111647Y-94739846D01*
X134106352Y-94744741D01*
X134106213Y-94744834D01*
X134099834Y-94748148D01*
X134094746Y-94752494D01*
X134057164Y-94790076D01*
X134053599Y-94793506D01*
X134011288Y-94832617D01*
X134007570Y-94839017D01*
X134001963Y-94845277D01*
X131562989Y-97284251D01*
X131551900Y-97294106D01*
X131524941Y-97315359D01*
X131519587Y-97323106D01*
X131491258Y-97364094D01*
X131488976Y-97367287D01*
X131453791Y-97414924D01*
X131451377Y-97421797D01*
X131447236Y-97427789D01*
X131440538Y-97448969D01*
X131429374Y-97484270D01*
X131428129Y-97487999D01*
X131408507Y-97543874D01*
X131408224Y-97551078D01*
X131408191Y-97551249D01*
X131406025Y-97558097D01*
X131405500Y-97564768D01*
X131405500Y-97617938D01*
X131405403Y-97622884D01*
X131403142Y-97680437D01*
X131405039Y-97687592D01*
X131405500Y-97695967D01*
X131405500Y-106975544D01*
X131404627Y-106990353D01*
X131400593Y-107024438D01*
X131402285Y-107033702D01*
X131402285Y-107033705D01*
X131411229Y-107082680D01*
X131411878Y-107086582D01*
X131419284Y-107135836D01*
X131420685Y-107145151D01*
X131423838Y-107151718D01*
X131425147Y-107158883D01*
X131452462Y-107211467D01*
X131454205Y-107214957D01*
X131479846Y-107268353D01*
X131484741Y-107273648D01*
X131484834Y-107273787D01*
X131488148Y-107280166D01*
X131492494Y-107285254D01*
X131530076Y-107322836D01*
X131533506Y-107326401D01*
X131572617Y-107368712D01*
X131579017Y-107372430D01*
X131585277Y-107378037D01*
X132259695Y-108052455D01*
X132293721Y-108114767D01*
X132295521Y-108125100D01*
X132304956Y-108196762D01*
X132365464Y-108342841D01*
X132409093Y-108399699D01*
X132453304Y-108457316D01*
X132461718Y-108468282D01*
X132468264Y-108473305D01*
X132492743Y-108492088D01*
X132587159Y-108564536D01*
X132733238Y-108625044D01*
X132804897Y-108634478D01*
X132869823Y-108663200D01*
X132877545Y-108670305D01*
X134948811Y-110741571D01*
X134958666Y-110752660D01*
X134979919Y-110779619D01*
X134987666Y-110784973D01*
X134987670Y-110784977D01*
X135028632Y-110813288D01*
X135031852Y-110815589D01*
X135071902Y-110845170D01*
X135071904Y-110845171D01*
X135079483Y-110850769D01*
X135086358Y-110853183D01*
X135092349Y-110857324D01*
X135148861Y-110875196D01*
X135152545Y-110876426D01*
X135199544Y-110892931D01*
X135199548Y-110892932D01*
X135208433Y-110896052D01*
X135215633Y-110896335D01*
X135215809Y-110896369D01*
X135222657Y-110898535D01*
X135229328Y-110899060D01*
X135282508Y-110899060D01*
X135287454Y-110899157D01*
X135344997Y-110901418D01*
X135352152Y-110899521D01*
X135360527Y-110899060D01*
X153370984Y-110899060D01*
X153385794Y-110899933D01*
X153419878Y-110903967D01*
X153429142Y-110902275D01*
X153429145Y-110902275D01*
X153478120Y-110893331D01*
X153482022Y-110892682D01*
X153531276Y-110885276D01*
X153531279Y-110885275D01*
X153540591Y-110883875D01*
X153547158Y-110880722D01*
X153554323Y-110879413D01*
X153606907Y-110852098D01*
X153610397Y-110850355D01*
X153663793Y-110824714D01*
X153669088Y-110819819D01*
X153669227Y-110819726D01*
X153675606Y-110816412D01*
X153680694Y-110812066D01*
X153718276Y-110774484D01*
X153721842Y-110771054D01*
X153736611Y-110757402D01*
X153764152Y-110731943D01*
X153767870Y-110725543D01*
X153773477Y-110719283D01*
X155511355Y-108981405D01*
X155573667Y-108947379D01*
X155600450Y-108944500D01*
X157043114Y-108944500D01*
X157111235Y-108964502D01*
X157119818Y-108970537D01*
X157177159Y-109014536D01*
X157323238Y-109075044D01*
X157480000Y-109095682D01*
X157488188Y-109094604D01*
X157498800Y-109093207D01*
X157636762Y-109075044D01*
X157782841Y-109014536D01*
X157908282Y-108918282D01*
X158004536Y-108792841D01*
X158044691Y-108695898D01*
X158089239Y-108640617D01*
X158156603Y-108618196D01*
X158225394Y-108635754D01*
X158273772Y-108687716D01*
X158287100Y-108744116D01*
X158287100Y-108788917D01*
X158285023Y-108808430D01*
X158284809Y-108812968D01*
X158282618Y-108823146D01*
X158283842Y-108833487D01*
X158286227Y-108853642D01*
X158286540Y-108858950D01*
X158286672Y-108858939D01*
X158287100Y-108864117D01*
X158287100Y-108869318D01*
X158287954Y-108874447D01*
X158287954Y-108874450D01*
X158290012Y-108886814D01*
X158290849Y-108892693D01*
X158296426Y-108939817D01*
X158300112Y-108947493D01*
X158301510Y-108955891D01*
X158306455Y-108965055D01*
X158306455Y-108965056D01*
X158324047Y-108997660D01*
X158326735Y-109002933D01*
X158347283Y-109045725D01*
X158350623Y-109049699D01*
X158352561Y-109051637D01*
X158354043Y-109053253D01*
X158354292Y-109053715D01*
X158354263Y-109053741D01*
X158354375Y-109053868D01*
X158357298Y-109059286D01*
X158364946Y-109066356D01*
X158364947Y-109066357D01*
X158393994Y-109093207D01*
X158397561Y-109096637D01*
X159056250Y-109755326D01*
X159068583Y-109770595D01*
X159071635Y-109773949D01*
X159077286Y-109782701D01*
X159101410Y-109801719D01*
X159105380Y-109805247D01*
X159105466Y-109805146D01*
X159109423Y-109808499D01*
X159110907Y-109809983D01*
X159111187Y-109810408D01*
X159112490Y-109811566D01*
X159113104Y-109812180D01*
X159112651Y-109812633D01*
X159149610Y-109868770D01*
X159150393Y-109939763D01*
X159112671Y-109999909D01*
X159048419Y-110030112D01*
X159029113Y-110031600D01*
X156548261Y-110031600D01*
X156480140Y-110011598D01*
X156448299Y-109982305D01*
X156428282Y-109956218D01*
X156412348Y-109943991D01*
X156354096Y-109899293D01*
X156302841Y-109859964D01*
X156156762Y-109799456D01*
X156000000Y-109778818D01*
X155843238Y-109799456D01*
X155697159Y-109859964D01*
X155645904Y-109899293D01*
X155587653Y-109943991D01*
X155571718Y-109956218D01*
X155475464Y-110081659D01*
X155414956Y-110227738D01*
X155413878Y-110235926D01*
X155412749Y-110244502D01*
X155394318Y-110384500D01*
X155414956Y-110541262D01*
X155475464Y-110687341D01*
X155571718Y-110812782D01*
X155697159Y-110909036D01*
X155843238Y-110969544D01*
X156000000Y-110990182D01*
X156008188Y-110989104D01*
X156148574Y-110970622D01*
X156156762Y-110969544D01*
X156302841Y-110909036D01*
X156375680Y-110853145D01*
X156421731Y-110817809D01*
X156421732Y-110817808D01*
X156428282Y-110812782D01*
X156448299Y-110786695D01*
X156505637Y-110744828D01*
X156548261Y-110737400D01*
X160955575Y-110737400D01*
X161023696Y-110757402D01*
X161055537Y-110786696D01*
X161066691Y-110801232D01*
X161066695Y-110801236D01*
X161071718Y-110807782D01*
X161078264Y-110812805D01*
X161099099Y-110828792D01*
X161197159Y-110904036D01*
X161343238Y-110964544D01*
X161500000Y-110985182D01*
X161508188Y-110984104D01*
X161648574Y-110965622D01*
X161656762Y-110964544D01*
X161802841Y-110904036D01*
X161900901Y-110828792D01*
X161921736Y-110812805D01*
X161928282Y-110807782D01*
X162024536Y-110682341D01*
X162085044Y-110536262D01*
X162105682Y-110379500D01*
X162085044Y-110222738D01*
X162072217Y-110191770D01*
X162039389Y-110112516D01*
X163449500Y-110112516D01*
X163464724Y-110238320D01*
X163524655Y-110396923D01*
X163528956Y-110403181D01*
X163576606Y-110472511D01*
X163620688Y-110536651D01*
X163626358Y-110541703D01*
X163626359Y-110541704D01*
X163741608Y-110644388D01*
X163741612Y-110644390D01*
X163747279Y-110649440D01*
X163753988Y-110652992D01*
X163753989Y-110652993D01*
X163761761Y-110657108D01*
X163897119Y-110728776D01*
X164061559Y-110770081D01*
X164069157Y-110770121D01*
X164069159Y-110770121D01*
X164146332Y-110770525D01*
X164231105Y-110770969D01*
X164238492Y-110769195D01*
X164238496Y-110769195D01*
X164388583Y-110733161D01*
X164395968Y-110731388D01*
X164402712Y-110727907D01*
X164402715Y-110727906D01*
X164539883Y-110657108D01*
X164539884Y-110657108D01*
X164546631Y-110653625D01*
X164578276Y-110626020D01*
X164668671Y-110547163D01*
X164674396Y-110542169D01*
X164771887Y-110403453D01*
X164774646Y-110396377D01*
X164774648Y-110396373D01*
X164810378Y-110304730D01*
X164853759Y-110248528D01*
X164927771Y-110224500D01*
X172012418Y-110224500D01*
X172080539Y-110244502D01*
X172127032Y-110298158D01*
X172130284Y-110305963D01*
X172164655Y-110396923D01*
X172168956Y-110403181D01*
X172216606Y-110472511D01*
X172260688Y-110536651D01*
X172266358Y-110541703D01*
X172266359Y-110541704D01*
X172381608Y-110644388D01*
X172381612Y-110644390D01*
X172387279Y-110649440D01*
X172393988Y-110652992D01*
X172393989Y-110652993D01*
X172401761Y-110657108D01*
X172537119Y-110728776D01*
X172701559Y-110770081D01*
X172709157Y-110770121D01*
X172709159Y-110770121D01*
X172786332Y-110770525D01*
X172871105Y-110770969D01*
X172878492Y-110769195D01*
X172878496Y-110769195D01*
X173028583Y-110733161D01*
X173035968Y-110731388D01*
X173042712Y-110727907D01*
X173042715Y-110727906D01*
X173179883Y-110657108D01*
X173179884Y-110657108D01*
X173186631Y-110653625D01*
X173218276Y-110626020D01*
X173308671Y-110547163D01*
X173314396Y-110542169D01*
X173411887Y-110403453D01*
X173473476Y-110245487D01*
X173477269Y-110216680D01*
X173489962Y-110120261D01*
X173489962Y-110120260D01*
X173490500Y-110116174D01*
X173490500Y-109427484D01*
X173475276Y-109301680D01*
X173437716Y-109202279D01*
X173418029Y-109150180D01*
X173415345Y-109143077D01*
X173390579Y-109107043D01*
X173323614Y-109009608D01*
X173323613Y-109009607D01*
X173319312Y-109003349D01*
X173286679Y-108974274D01*
X173249125Y-108914026D01*
X173244500Y-108880200D01*
X173244500Y-108457316D01*
X173744989Y-108457316D01*
X173746778Y-108500000D01*
X173759281Y-108798320D01*
X173779585Y-108929474D01*
X173808361Y-109115353D01*
X173811496Y-109135606D01*
X173812418Y-109138998D01*
X173812418Y-109139000D01*
X173818511Y-109161426D01*
X173900982Y-109464969D01*
X174026624Y-109782304D01*
X174028279Y-109785416D01*
X174028281Y-109785421D01*
X174087540Y-109896870D01*
X174186856Y-110083657D01*
X174206616Y-110112516D01*
X174377690Y-110362364D01*
X174377695Y-110362370D01*
X174379681Y-110365271D01*
X174602696Y-110623636D01*
X174605266Y-110626016D01*
X174605270Y-110626020D01*
X174697367Y-110711302D01*
X174853120Y-110855531D01*
X174855942Y-110857612D01*
X174855945Y-110857614D01*
X174947970Y-110925461D01*
X175127833Y-111058067D01*
X175423410Y-111228719D01*
X175503221Y-111263588D01*
X175732945Y-111363952D01*
X175732955Y-111363956D01*
X175736167Y-111365359D01*
X175739524Y-111366398D01*
X175739529Y-111366400D01*
X175875097Y-111408365D01*
X176062207Y-111466285D01*
X176065663Y-111466944D01*
X176065662Y-111466944D01*
X176394014Y-111529581D01*
X176394019Y-111529582D01*
X176397465Y-111530239D01*
X176582955Y-111544512D01*
X176734265Y-111556155D01*
X176734267Y-111556155D01*
X176737762Y-111556424D01*
X176963664Y-111548535D01*
X177075341Y-111544635D01*
X177075345Y-111544635D01*
X177078857Y-111544512D01*
X177082336Y-111543998D01*
X177082339Y-111543998D01*
X177413007Y-111495170D01*
X177413013Y-111495169D01*
X177416499Y-111494654D01*
X177419903Y-111493755D01*
X177419906Y-111493754D01*
X177743088Y-111408365D01*
X177743089Y-111408365D01*
X177746479Y-111407469D01*
X178064684Y-111284046D01*
X178067795Y-111282420D01*
X178067803Y-111282416D01*
X178218365Y-111203703D01*
X178367148Y-111125921D01*
X178579467Y-110982710D01*
X178647185Y-110937034D01*
X178647187Y-110937033D01*
X178650101Y-110935067D01*
X178663694Y-110923499D01*
X178907344Y-110716136D01*
X178907345Y-110716135D01*
X178910017Y-110713861D01*
X178997242Y-110620976D01*
X179141244Y-110467630D01*
X179141248Y-110467625D01*
X179143655Y-110465062D01*
X179145760Y-110462248D01*
X179145766Y-110462241D01*
X179315071Y-110235926D01*
X179348104Y-110191770D01*
X179362244Y-110167670D01*
X179429769Y-110052574D01*
X179520814Y-109897391D01*
X179522246Y-109894175D01*
X179658203Y-109588812D01*
X179658205Y-109588807D01*
X179659635Y-109585595D01*
X179762835Y-109260268D01*
X179829128Y-108925465D01*
X179842981Y-108760491D01*
X179857504Y-108587543D01*
X179857505Y-108587532D01*
X179857687Y-108585359D01*
X179858292Y-108542095D01*
X179858849Y-108502178D01*
X179858849Y-108502166D01*
X179858879Y-108500000D01*
X179856481Y-108457098D01*
X179846962Y-108286854D01*
X179839827Y-108159229D01*
X179831849Y-108112060D01*
X179783497Y-107826186D01*
X179783496Y-107826182D01*
X179782908Y-107822705D01*
X179688832Y-107494624D01*
X179674561Y-107460000D01*
X179560110Y-107182318D01*
X179560106Y-107182310D01*
X179558772Y-107179073D01*
X179394348Y-106879987D01*
X179219522Y-106632155D01*
X179199646Y-106603979D01*
X179199645Y-106603977D01*
X179197610Y-106601093D01*
X179084044Y-106473181D01*
X178973340Y-106348492D01*
X178973336Y-106348488D01*
X178971009Y-106345867D01*
X178968408Y-106343525D01*
X178968403Y-106343520D01*
X178719982Y-106119841D01*
X178719981Y-106119841D01*
X178717372Y-106117491D01*
X178531580Y-105984476D01*
X178442712Y-105920853D01*
X178442709Y-105920851D01*
X178439858Y-105918810D01*
X178141927Y-105752302D01*
X177827292Y-105620042D01*
X177823923Y-105619051D01*
X177823919Y-105619049D01*
X177620952Y-105559313D01*
X177499875Y-105523678D01*
X177231629Y-105476379D01*
X177167217Y-105465021D01*
X177167215Y-105465021D01*
X177163757Y-105464411D01*
X177160248Y-105464190D01*
X177160246Y-105464190D01*
X176826645Y-105443201D01*
X176826639Y-105443201D01*
X176823127Y-105442980D01*
X176727424Y-105447661D01*
X176485739Y-105459481D01*
X176485731Y-105459482D01*
X176482232Y-105459653D01*
X176478764Y-105460215D01*
X176478761Y-105460215D01*
X176148794Y-105513658D01*
X176148791Y-105513659D01*
X176145319Y-105514221D01*
X175816588Y-105606004D01*
X175500138Y-105733859D01*
X175497053Y-105735527D01*
X175497051Y-105735528D01*
X175468549Y-105750939D01*
X175199911Y-105896191D01*
X174919650Y-106090977D01*
X174917008Y-106093290D01*
X174917004Y-106093293D01*
X174691226Y-106290947D01*
X174662848Y-106315790D01*
X174432707Y-106567827D01*
X174232094Y-106843947D01*
X174230352Y-106847013D01*
X174230351Y-106847015D01*
X174197105Y-106905539D01*
X174063510Y-107140708D01*
X174012441Y-107259860D01*
X173944582Y-107418188D01*
X173929056Y-107454412D01*
X173928039Y-107457781D01*
X173833676Y-107770328D01*
X173830409Y-107781148D01*
X173813105Y-107875431D01*
X173770082Y-108109846D01*
X173768797Y-108116845D01*
X173744989Y-108457316D01*
X173244500Y-108457316D01*
X173244500Y-106730432D01*
X173264502Y-106662311D01*
X173287670Y-106635484D01*
X173308670Y-106617164D01*
X173314396Y-106612169D01*
X173376432Y-106523901D01*
X173407518Y-106479670D01*
X173407519Y-106479668D01*
X173411887Y-106473453D01*
X173473476Y-106315487D01*
X173476841Y-106289931D01*
X173489962Y-106190261D01*
X173489962Y-106190260D01*
X173490500Y-106186174D01*
X173490500Y-104997484D01*
X173475276Y-104871680D01*
X173415345Y-104713077D01*
X173319312Y-104573349D01*
X173307514Y-104562837D01*
X173198392Y-104465612D01*
X173198388Y-104465610D01*
X173192721Y-104460560D01*
X173042881Y-104381224D01*
X172878441Y-104339919D01*
X172870843Y-104339879D01*
X172870841Y-104339879D01*
X172793668Y-104339475D01*
X172708895Y-104339031D01*
X172701508Y-104340805D01*
X172701504Y-104340805D01*
X172558162Y-104375220D01*
X172544032Y-104378612D01*
X172537288Y-104382093D01*
X172537285Y-104382094D01*
X172532089Y-104384776D01*
X172393369Y-104456375D01*
X172265604Y-104567831D01*
X172168113Y-104706547D01*
X172106524Y-104864513D01*
X172089500Y-104993826D01*
X172089500Y-105754518D01*
X172069498Y-105822639D01*
X172015842Y-105869132D01*
X171945568Y-105879236D01*
X171880988Y-105849742D01*
X171863798Y-105828923D01*
X171862698Y-105829767D01*
X171775477Y-105716099D01*
X171770451Y-105709549D01*
X171650233Y-105617302D01*
X171510236Y-105559313D01*
X171397720Y-105544500D01*
X171322280Y-105544500D01*
X171209764Y-105559313D01*
X171069767Y-105617302D01*
X170949549Y-105709549D01*
X170857302Y-105829767D01*
X170799313Y-105969764D01*
X170779534Y-106120000D01*
X170799313Y-106270236D01*
X170857302Y-106410233D01*
X170949549Y-106530451D01*
X171069767Y-106622698D01*
X171209764Y-106680687D01*
X171217952Y-106681765D01*
X171289497Y-106691184D01*
X171322280Y-106695500D01*
X171397720Y-106695500D01*
X171430504Y-106691184D01*
X171502048Y-106681765D01*
X171510236Y-106680687D01*
X171650233Y-106622698D01*
X171770451Y-106530451D01*
X171862698Y-106410233D01*
X171887617Y-106350072D01*
X171932166Y-106294793D01*
X171999529Y-106272372D01*
X172068321Y-106289931D01*
X172116699Y-106341893D01*
X172121892Y-106353754D01*
X172161971Y-106459820D01*
X172164655Y-106466923D01*
X172168956Y-106473181D01*
X172255054Y-106598453D01*
X172260688Y-106606651D01*
X172293321Y-106635726D01*
X172330875Y-106695974D01*
X172335500Y-106729800D01*
X172335500Y-108879568D01*
X172315498Y-108947689D01*
X172292330Y-108974516D01*
X172282949Y-108982700D01*
X172265604Y-108997831D01*
X172232398Y-109045079D01*
X172177467Y-109123238D01*
X172168113Y-109136547D01*
X172165354Y-109143623D01*
X172165352Y-109143627D01*
X172129622Y-109235270D01*
X172086241Y-109291472D01*
X172012229Y-109315500D01*
X164927582Y-109315500D01*
X164859461Y-109295498D01*
X164812968Y-109241842D01*
X164809716Y-109234037D01*
X164778030Y-109150182D01*
X164778029Y-109150180D01*
X164775345Y-109143077D01*
X164750579Y-109107043D01*
X164683614Y-109009608D01*
X164683613Y-109009607D01*
X164679312Y-109003349D01*
X164646679Y-108974274D01*
X164609125Y-108914026D01*
X164604500Y-108880200D01*
X164604500Y-106730432D01*
X164624502Y-106662311D01*
X164647670Y-106635484D01*
X164668670Y-106617164D01*
X164674396Y-106612169D01*
X164736432Y-106523901D01*
X164767518Y-106479670D01*
X164767519Y-106479668D01*
X164771887Y-106473453D01*
X164774646Y-106466377D01*
X164774648Y-106466373D01*
X164818816Y-106353088D01*
X164862197Y-106296886D01*
X164929076Y-106273060D01*
X164998220Y-106289174D01*
X165047676Y-106340111D01*
X165052615Y-106350633D01*
X165077302Y-106410233D01*
X165169549Y-106530451D01*
X165289767Y-106622698D01*
X165429764Y-106680687D01*
X165437952Y-106681765D01*
X165509497Y-106691184D01*
X165542280Y-106695500D01*
X165617720Y-106695500D01*
X165650504Y-106691184D01*
X165722048Y-106681765D01*
X165730236Y-106680687D01*
X165870233Y-106622698D01*
X165990451Y-106530451D01*
X166082698Y-106410233D01*
X166140687Y-106270236D01*
X166160466Y-106120000D01*
X166140687Y-105969764D01*
X166082698Y-105829767D01*
X165990451Y-105709549D01*
X165870233Y-105617302D01*
X165730236Y-105559313D01*
X165617720Y-105544500D01*
X165542280Y-105544500D01*
X165429764Y-105559313D01*
X165289767Y-105617302D01*
X165169549Y-105709549D01*
X165077302Y-105829767D01*
X165074792Y-105827841D01*
X165034239Y-105866510D01*
X164964526Y-105879948D01*
X164898614Y-105853562D01*
X164857431Y-105795731D01*
X164850500Y-105754518D01*
X164850500Y-104997484D01*
X164835276Y-104871680D01*
X164775345Y-104713077D01*
X164679312Y-104573349D01*
X164667514Y-104562837D01*
X164558392Y-104465612D01*
X164558388Y-104465610D01*
X164552721Y-104460560D01*
X164402881Y-104381224D01*
X164238441Y-104339919D01*
X164230843Y-104339879D01*
X164230841Y-104339879D01*
X164153668Y-104339475D01*
X164068895Y-104339031D01*
X164061508Y-104340805D01*
X164061504Y-104340805D01*
X163918162Y-104375220D01*
X163904032Y-104378612D01*
X163897288Y-104382093D01*
X163897285Y-104382094D01*
X163892089Y-104384776D01*
X163753369Y-104456375D01*
X163625604Y-104567831D01*
X163528113Y-104706547D01*
X163466524Y-104864513D01*
X163449500Y-104993826D01*
X163449500Y-106182516D01*
X163464724Y-106308320D01*
X163524655Y-106466923D01*
X163528956Y-106473181D01*
X163615054Y-106598453D01*
X163620688Y-106606651D01*
X163653321Y-106635726D01*
X163690875Y-106695974D01*
X163695500Y-106729800D01*
X163695500Y-108879568D01*
X163675498Y-108947689D01*
X163652330Y-108974516D01*
X163642949Y-108982700D01*
X163625604Y-108997831D01*
X163592398Y-109045079D01*
X163537467Y-109123238D01*
X163528113Y-109136547D01*
X163466524Y-109294513D01*
X163449500Y-109423826D01*
X163449500Y-110112516D01*
X162039389Y-110112516D01*
X162027695Y-110084285D01*
X162027694Y-110084284D01*
X162024536Y-110076659D01*
X162025581Y-110076226D01*
X162010683Y-110014813D01*
X162033905Y-109947722D01*
X162089713Y-109903836D01*
X162136540Y-109894811D01*
X162287006Y-109894811D01*
X162306519Y-109896888D01*
X162311057Y-109897102D01*
X162321235Y-109899293D01*
X162341708Y-109896870D01*
X162351731Y-109895684D01*
X162357039Y-109895371D01*
X162357028Y-109895239D01*
X162362206Y-109894811D01*
X162367407Y-109894811D01*
X162372536Y-109893957D01*
X162377717Y-109893529D01*
X162377804Y-109894587D01*
X162413073Y-109896298D01*
X162413238Y-109895044D01*
X162570000Y-109915682D01*
X162578188Y-109914604D01*
X162718574Y-109896122D01*
X162726762Y-109895044D01*
X162872841Y-109834536D01*
X162998282Y-109738282D01*
X163005335Y-109729091D01*
X163089509Y-109619392D01*
X163094536Y-109612841D01*
X163155044Y-109466762D01*
X163175682Y-109310000D01*
X163155044Y-109153238D01*
X163094536Y-109007159D01*
X162998282Y-108881718D01*
X162872841Y-108785464D01*
X162726762Y-108724956D01*
X162570000Y-108704318D01*
X162537400Y-108708610D01*
X162467252Y-108697671D01*
X162431859Y-108672783D01*
X161839805Y-108080729D01*
X161805779Y-108018417D01*
X161802900Y-107991634D01*
X161802900Y-106900921D01*
X161822902Y-106832800D01*
X161876558Y-106786307D01*
X161946832Y-106776203D01*
X161976339Y-106786515D01*
X161977159Y-106784536D01*
X162123238Y-106845044D01*
X162280000Y-106865682D01*
X162288188Y-106864604D01*
X162428574Y-106846122D01*
X162436762Y-106845044D01*
X162582841Y-106784536D01*
X162698875Y-106695500D01*
X162701736Y-106693305D01*
X162708282Y-106688282D01*
X162719774Y-106673306D01*
X162738040Y-106649500D01*
X162804536Y-106562841D01*
X162865044Y-106416762D01*
X162885682Y-106260000D01*
X162865044Y-106103238D01*
X162804536Y-105957159D01*
X162708282Y-105831718D01*
X162582841Y-105735464D01*
X162486601Y-105695600D01*
X162431321Y-105651051D01*
X162408820Y-105579191D01*
X162408820Y-104247022D01*
X162428822Y-104178901D01*
X162486602Y-104130613D01*
X162504741Y-104123100D01*
X162630182Y-104026846D01*
X162726436Y-103901405D01*
X162786944Y-103755326D01*
X162807582Y-103598564D01*
X162786944Y-103441802D01*
X162726436Y-103295723D01*
X162630182Y-103170282D01*
X162504741Y-103074028D01*
X162497111Y-103070868D01*
X162492179Y-103068020D01*
X162443185Y-103016637D01*
X162429748Y-102946924D01*
X162456135Y-102881013D01*
X162513967Y-102839830D01*
X162555178Y-102832900D01*
X163758917Y-102832900D01*
X163778430Y-102834977D01*
X163782968Y-102835191D01*
X163793146Y-102837382D01*
X163813467Y-102834977D01*
X163823642Y-102833773D01*
X163828950Y-102833460D01*
X163828939Y-102833328D01*
X163834117Y-102832900D01*
X163839318Y-102832900D01*
X163844447Y-102832046D01*
X163844450Y-102832046D01*
X163856814Y-102829988D01*
X163862693Y-102829151D01*
X163866833Y-102828661D01*
X163909817Y-102823574D01*
X163917493Y-102819888D01*
X163925891Y-102818490D01*
X163967660Y-102795953D01*
X163972933Y-102793265D01*
X164015725Y-102772717D01*
X164019699Y-102769377D01*
X164021637Y-102767439D01*
X164023253Y-102765957D01*
X164023715Y-102765708D01*
X164023741Y-102765737D01*
X164023868Y-102765625D01*
X164029286Y-102762702D01*
X164039075Y-102752113D01*
X164063207Y-102726006D01*
X164066637Y-102722439D01*
X164949076Y-101840000D01*
X167814318Y-101840000D01*
X167834956Y-101996762D01*
X167895464Y-102142841D01*
X167991718Y-102268282D01*
X167998268Y-102273308D01*
X167998271Y-102273311D01*
X168043204Y-102307789D01*
X168085071Y-102365127D01*
X168092500Y-102407751D01*
X168092500Y-106057536D01*
X168082909Y-106105753D01*
X168054956Y-106173238D01*
X168053878Y-106181426D01*
X168052715Y-106190261D01*
X168034318Y-106330000D01*
X168054956Y-106486762D01*
X168115464Y-106632841D01*
X168153528Y-106682447D01*
X168191755Y-106732265D01*
X168211718Y-106758282D01*
X168337159Y-106854536D01*
X168483238Y-106915044D01*
X168640000Y-106935682D01*
X168648188Y-106934604D01*
X168788574Y-106916122D01*
X168796762Y-106915044D01*
X168942841Y-106854536D01*
X169068282Y-106758282D01*
X169088246Y-106732265D01*
X169126472Y-106682447D01*
X169164536Y-106632841D01*
X169225044Y-106486762D01*
X169245682Y-106330000D01*
X169227285Y-106190261D01*
X169226122Y-106181426D01*
X169225044Y-106173238D01*
X169164536Y-106027159D01*
X169068282Y-105901718D01*
X169058898Y-105894517D01*
X168949392Y-105810491D01*
X168942841Y-105805464D01*
X168825281Y-105756769D01*
X168770001Y-105712220D01*
X168747500Y-105640360D01*
X168747500Y-102407751D01*
X168767502Y-102339630D01*
X168796796Y-102307789D01*
X168841729Y-102273311D01*
X168841732Y-102273308D01*
X168848282Y-102268282D01*
X168944536Y-102142841D01*
X169005044Y-101996762D01*
X169025682Y-101840000D01*
X169005044Y-101683238D01*
X168944536Y-101537159D01*
X168848282Y-101411718D01*
X168722841Y-101315464D01*
X168576762Y-101254956D01*
X168420000Y-101234318D01*
X168263238Y-101254956D01*
X168117159Y-101315464D01*
X167991718Y-101411718D01*
X167895464Y-101537159D01*
X167834956Y-101683238D01*
X167814318Y-101840000D01*
X164949076Y-101840000D01*
X165903415Y-100885661D01*
X165918684Y-100873328D01*
X165922038Y-100870276D01*
X165930790Y-100864625D01*
X165949808Y-100840501D01*
X165953338Y-100836529D01*
X165953237Y-100836443D01*
X165956592Y-100832484D01*
X165960269Y-100828807D01*
X165963287Y-100824584D01*
X165963292Y-100824578D01*
X165970594Y-100814360D01*
X165974138Y-100809639D01*
X166003525Y-100772362D01*
X166006346Y-100764329D01*
X166011296Y-100757402D01*
X166014421Y-100746955D01*
X166018371Y-100733747D01*
X166024897Y-100711925D01*
X166026729Y-100706287D01*
X166039824Y-100668997D01*
X166039824Y-100668996D01*
X166042452Y-100661513D01*
X166042900Y-100656341D01*
X166042900Y-100653637D01*
X166042996Y-100651405D01*
X166043146Y-100650905D01*
X166043184Y-100650907D01*
X166043194Y-100650743D01*
X166044959Y-100644842D01*
X166044076Y-100622380D01*
X166061387Y-100553527D01*
X166093275Y-100517470D01*
X166118282Y-100498282D01*
X166128508Y-100484956D01*
X166169358Y-100431718D01*
X166214536Y-100372841D01*
X166275044Y-100226762D01*
X166295682Y-100070000D01*
X166275044Y-99913238D01*
X166214536Y-99767159D01*
X166118282Y-99641718D01*
X165992841Y-99545464D01*
X165846762Y-99484956D01*
X165690000Y-99464318D01*
X165533238Y-99484956D01*
X165387159Y-99545464D01*
X165261718Y-99641718D01*
X165256695Y-99648264D01*
X165199963Y-99722199D01*
X165142625Y-99764066D01*
X165071754Y-99768288D01*
X165009851Y-99733524D01*
X165000037Y-99722199D01*
X164943305Y-99648264D01*
X164938282Y-99641718D01*
X164812841Y-99545464D01*
X164666762Y-99484956D01*
X164510000Y-99464318D01*
X164353238Y-99484956D01*
X164207159Y-99545464D01*
X164081718Y-99641718D01*
X163985464Y-99767159D01*
X163924956Y-99913238D01*
X163904318Y-100070000D01*
X163924956Y-100226762D01*
X163985464Y-100372841D01*
X164030642Y-100431718D01*
X164071493Y-100484956D01*
X164081718Y-100498282D01*
X164106722Y-100517468D01*
X164107805Y-100518299D01*
X164149672Y-100575637D01*
X164157100Y-100618261D01*
X164157100Y-100868418D01*
X164137098Y-100936539D01*
X164120195Y-100957513D01*
X163869097Y-101208611D01*
X163806785Y-101242637D01*
X163735970Y-101237572D01*
X163679134Y-101195025D01*
X163655080Y-101135962D01*
X163646122Y-101067918D01*
X163645044Y-101059730D01*
X163584536Y-100913651D01*
X163581708Y-100909966D01*
X163565300Y-100848727D01*
X163565300Y-99461492D01*
X163585302Y-99393371D01*
X163602205Y-99372397D01*
X164242397Y-98732205D01*
X164304709Y-98698179D01*
X164331492Y-98695300D01*
X166209283Y-98695300D01*
X166221314Y-98696644D01*
X166221354Y-98696151D01*
X166230305Y-98696871D01*
X166239059Y-98698852D01*
X166292408Y-98695542D01*
X166300211Y-98695300D01*
X166316282Y-98695300D01*
X166320724Y-98694664D01*
X166326551Y-98693830D01*
X166336599Y-98692801D01*
X166370505Y-98690697D01*
X166383522Y-98689889D01*
X166391966Y-98686841D01*
X166395176Y-98686176D01*
X166411264Y-98682165D01*
X166414395Y-98681249D01*
X166423279Y-98679977D01*
X166431448Y-98676263D01*
X166431454Y-98676261D01*
X166466083Y-98660516D01*
X166475452Y-98656702D01*
X166511218Y-98643791D01*
X166511220Y-98643790D01*
X166519663Y-98640742D01*
X166526915Y-98635444D01*
X166529809Y-98633905D01*
X166544119Y-98625543D01*
X166546870Y-98623783D01*
X166555040Y-98620069D01*
X166587396Y-98592190D01*
X166590662Y-98589376D01*
X166598574Y-98583094D01*
X166605534Y-98578009D01*
X166605536Y-98578007D01*
X166609466Y-98575136D01*
X166620349Y-98564253D01*
X166627196Y-98557895D01*
X166657889Y-98531448D01*
X166664691Y-98525587D01*
X166669574Y-98518054D01*
X166675253Y-98511544D01*
X166684554Y-98500048D01*
X173667297Y-91517305D01*
X173676757Y-91509746D01*
X173676436Y-91509369D01*
X173683269Y-91503553D01*
X173690863Y-91498762D01*
X173696807Y-91492032D01*
X173696809Y-91492030D01*
X173726255Y-91458689D01*
X173731601Y-91453001D01*
X173742956Y-91441646D01*
X173749174Y-91433350D01*
X173755552Y-91425516D01*
X173780734Y-91397002D01*
X173786676Y-91390274D01*
X173790491Y-91382148D01*
X173792297Y-91379399D01*
X173800827Y-91365203D01*
X173802397Y-91362335D01*
X173807780Y-91355153D01*
X173824287Y-91311118D01*
X173828206Y-91301818D01*
X173848190Y-91259255D01*
X173849571Y-91250390D01*
X173850529Y-91247255D01*
X173854732Y-91231231D01*
X173855437Y-91228026D01*
X173858587Y-91219622D01*
X173862070Y-91172747D01*
X173863224Y-91162696D01*
X173864551Y-91154176D01*
X173864551Y-91154174D01*
X173865300Y-91149365D01*
X173865300Y-91133964D01*
X173865646Y-91124627D01*
X173868648Y-91084226D01*
X173869313Y-91075278D01*
X173867439Y-91066501D01*
X173866852Y-91057888D01*
X173865300Y-91043179D01*
X173865300Y-86994608D01*
X173885302Y-86926487D01*
X173938958Y-86879994D01*
X174009232Y-86869890D01*
X174073812Y-86899384D01*
X174102548Y-86935450D01*
X174183262Y-87087251D01*
X174185254Y-87090160D01*
X174374096Y-87365958D01*
X174374101Y-87365964D01*
X174376087Y-87368865D01*
X174599102Y-87627230D01*
X174601672Y-87629610D01*
X174601676Y-87629614D01*
X174692817Y-87714011D01*
X174849526Y-87859125D01*
X174852348Y-87861206D01*
X174852351Y-87861208D01*
X174941722Y-87927098D01*
X175124239Y-88061661D01*
X175127276Y-88063415D01*
X175127280Y-88063417D01*
X175172703Y-88089642D01*
X175419816Y-88232313D01*
X175456837Y-88248487D01*
X175729351Y-88367546D01*
X175729361Y-88367550D01*
X175732573Y-88368953D01*
X175735930Y-88369992D01*
X175735935Y-88369994D01*
X176055253Y-88468839D01*
X176058613Y-88469879D01*
X176062069Y-88470538D01*
X176062068Y-88470538D01*
X176390420Y-88533175D01*
X176390425Y-88533176D01*
X176393871Y-88533833D01*
X176579361Y-88548106D01*
X176730671Y-88559749D01*
X176730673Y-88559749D01*
X176734168Y-88560018D01*
X176960070Y-88552129D01*
X177071747Y-88548229D01*
X177071751Y-88548229D01*
X177075263Y-88548106D01*
X177078742Y-88547592D01*
X177078745Y-88547592D01*
X177409413Y-88498764D01*
X177409419Y-88498763D01*
X177412905Y-88498248D01*
X177416309Y-88497349D01*
X177416312Y-88497348D01*
X177739494Y-88411959D01*
X177739495Y-88411959D01*
X177742885Y-88411063D01*
X178061090Y-88287640D01*
X178064201Y-88286014D01*
X178064209Y-88286010D01*
X178220332Y-88204390D01*
X178363554Y-88129515D01*
X178579716Y-87983712D01*
X178643591Y-87940628D01*
X178643593Y-87940627D01*
X178646507Y-87938661D01*
X178660094Y-87927098D01*
X178903750Y-87719730D01*
X178903751Y-87719729D01*
X178906423Y-87717455D01*
X178943328Y-87678155D01*
X179137650Y-87471224D01*
X179137654Y-87471219D01*
X179140061Y-87468656D01*
X179142166Y-87465842D01*
X179142172Y-87465835D01*
X179327500Y-87218102D01*
X179344510Y-87195364D01*
X179350830Y-87184593D01*
X179419695Y-87067213D01*
X179517220Y-86900985D01*
X179526566Y-86879994D01*
X179654609Y-86592406D01*
X179654611Y-86592401D01*
X179656041Y-86589189D01*
X179759241Y-86263862D01*
X179825534Y-85929059D01*
X179849786Y-85640245D01*
X179853910Y-85591137D01*
X179853911Y-85591126D01*
X179854093Y-85588953D01*
X179854229Y-85579271D01*
X179855255Y-85505772D01*
X179855255Y-85505760D01*
X179855285Y-85503594D01*
X179854832Y-85495480D01*
X179845164Y-85322574D01*
X179836233Y-85162823D01*
X179827113Y-85108900D01*
X179779903Y-84829780D01*
X179779902Y-84829776D01*
X179779314Y-84826299D01*
X179766823Y-84782736D01*
X179737595Y-84680808D01*
X179685238Y-84498218D01*
X179666604Y-84453008D01*
X179556516Y-84185912D01*
X179556512Y-84185904D01*
X179555178Y-84182667D01*
X179390754Y-83883581D01*
X179228473Y-83653533D01*
X179196052Y-83607573D01*
X179196051Y-83607571D01*
X179194016Y-83604687D01*
X179103447Y-83502677D01*
X178969746Y-83352086D01*
X178969742Y-83352082D01*
X178967415Y-83349461D01*
X178964814Y-83347119D01*
X178964809Y-83347114D01*
X178716388Y-83123435D01*
X178716387Y-83123435D01*
X178713778Y-83121085D01*
X178485066Y-82957343D01*
X178439118Y-82924447D01*
X178439115Y-82924445D01*
X178436264Y-82922404D01*
X178138333Y-82755896D01*
X177823698Y-82623636D01*
X177820329Y-82622645D01*
X177820325Y-82622643D01*
X177675924Y-82580144D01*
X177496281Y-82527272D01*
X177228035Y-82479973D01*
X177163623Y-82468615D01*
X177163621Y-82468615D01*
X177160163Y-82468005D01*
X177156654Y-82467784D01*
X177156652Y-82467784D01*
X176823051Y-82446795D01*
X176823045Y-82446795D01*
X176819533Y-82446574D01*
X176723830Y-82451255D01*
X176482145Y-82463075D01*
X176482137Y-82463076D01*
X176478638Y-82463247D01*
X176475170Y-82463809D01*
X176475167Y-82463809D01*
X176145200Y-82517252D01*
X176145197Y-82517253D01*
X176141725Y-82517815D01*
X175812994Y-82609598D01*
X175496544Y-82737453D01*
X175196317Y-82899785D01*
X174916056Y-83094571D01*
X174913414Y-83096884D01*
X174913410Y-83096887D01*
X174714631Y-83270905D01*
X174659254Y-83319384D01*
X174429113Y-83571421D01*
X174228500Y-83847541D01*
X174226758Y-83850607D01*
X174226757Y-83850609D01*
X174215509Y-83870409D01*
X174110074Y-84056009D01*
X174100856Y-84072235D01*
X174049817Y-84121585D01*
X173980199Y-84135508D01*
X173914105Y-84109582D01*
X173872520Y-84052039D01*
X173865300Y-84009998D01*
X173865300Y-83110710D01*
X173866644Y-83098683D01*
X173866150Y-83098643D01*
X173866870Y-83089695D01*
X173868851Y-83080940D01*
X173865542Y-83027601D01*
X173865300Y-83019799D01*
X173865300Y-83003718D01*
X173864664Y-82999276D01*
X173863830Y-82993452D01*
X173862799Y-82983388D01*
X173860445Y-82945438D01*
X173860445Y-82945437D01*
X173859889Y-82936478D01*
X173856841Y-82928035D01*
X173856177Y-82924828D01*
X173852167Y-82908744D01*
X173851250Y-82905606D01*
X173849977Y-82896721D01*
X173846263Y-82888552D01*
X173846262Y-82888549D01*
X173830516Y-82853919D01*
X173826703Y-82844552D01*
X173813789Y-82808780D01*
X173810741Y-82800336D01*
X173805445Y-82793086D01*
X173803907Y-82790194D01*
X173795537Y-82775871D01*
X173793783Y-82773128D01*
X173790069Y-82764960D01*
X173784214Y-82758165D01*
X173784212Y-82758162D01*
X173759379Y-82729343D01*
X173753089Y-82721421D01*
X173748008Y-82714465D01*
X173748006Y-82714463D01*
X173745136Y-82710534D01*
X173734253Y-82699651D01*
X173727895Y-82692804D01*
X173701448Y-82662111D01*
X173695587Y-82655309D01*
X173688053Y-82650426D01*
X173681539Y-82644743D01*
X173670054Y-82635451D01*
X173402598Y-82367995D01*
X173368573Y-82305683D01*
X173373637Y-82234868D01*
X173416184Y-82178032D01*
X173482704Y-82153221D01*
X173491693Y-82152900D01*
X176763280Y-82152900D01*
X176771643Y-82154001D01*
G37*
G04 #@! TD.AperFunction*
G04 #@! TA.AperFunction,Conductor*
G36*
X171592417Y-83115302D02*
G01*
X171638910Y-83168958D01*
X171649014Y-83239232D01*
X171619520Y-83303812D01*
X171571498Y-83338125D01*
X171564229Y-83341062D01*
X171408798Y-83422319D01*
X171398533Y-83429037D01*
X171382735Y-83441738D01*
X171374267Y-83453906D01*
X171380642Y-83465116D01*
X171917188Y-84001662D01*
X171931132Y-84009276D01*
X171932965Y-84009145D01*
X171939580Y-84004894D01*
X172479127Y-83465347D01*
X172486369Y-83452085D01*
X172479180Y-83441980D01*
X172472596Y-83436533D01*
X172462428Y-83429675D01*
X172308150Y-83346256D01*
X172291155Y-83339112D01*
X172291671Y-83337885D01*
X172238209Y-83302413D01*
X172209662Y-83237408D01*
X172220791Y-83167289D01*
X172268062Y-83114319D01*
X172334628Y-83095300D01*
X172648507Y-83095300D01*
X172716628Y-83115302D01*
X172737603Y-83132205D01*
X172817796Y-83212399D01*
X172851821Y-83274712D01*
X172854700Y-83301494D01*
X172854700Y-83548048D01*
X172834698Y-83616169D01*
X172781042Y-83662662D01*
X172724941Y-83673992D01*
X172707099Y-83673459D01*
X172695304Y-83680222D01*
X172158338Y-84217188D01*
X172150724Y-84231132D01*
X172150855Y-84232965D01*
X172155106Y-84239580D01*
X172695731Y-84780205D01*
X172709676Y-84787820D01*
X172719712Y-84787102D01*
X172789086Y-84802194D01*
X172839288Y-84852396D01*
X172854700Y-84912781D01*
X172854700Y-86088048D01*
X172834698Y-86156169D01*
X172781042Y-86202662D01*
X172724941Y-86213992D01*
X172707099Y-86213459D01*
X172695304Y-86220222D01*
X172158338Y-86757188D01*
X172150724Y-86771132D01*
X172150855Y-86772965D01*
X172155106Y-86779580D01*
X172695731Y-87320205D01*
X172709676Y-87327820D01*
X172719712Y-87327102D01*
X172789086Y-87342194D01*
X172839288Y-87392396D01*
X172854700Y-87452781D01*
X172854700Y-90848508D01*
X172834698Y-90916629D01*
X172817795Y-90937603D01*
X166107603Y-97647795D01*
X166045291Y-97681821D01*
X166018508Y-97684700D01*
X164140715Y-97684700D01*
X164128683Y-97683356D01*
X164128643Y-97683849D01*
X164119697Y-97683129D01*
X164110941Y-97681148D01*
X164075353Y-97683356D01*
X164057591Y-97684458D01*
X164049789Y-97684700D01*
X164033718Y-97684700D01*
X164029276Y-97685336D01*
X164023449Y-97686170D01*
X164013401Y-97687199D01*
X163979495Y-97689303D01*
X163966478Y-97690111D01*
X163958034Y-97693159D01*
X163954824Y-97693824D01*
X163938736Y-97697835D01*
X163935605Y-97698751D01*
X163926721Y-97700023D01*
X163918552Y-97703737D01*
X163918546Y-97703739D01*
X163883917Y-97719484D01*
X163874548Y-97723298D01*
X163838782Y-97736209D01*
X163838780Y-97736210D01*
X163830337Y-97739258D01*
X163823085Y-97744556D01*
X163820191Y-97746095D01*
X163805881Y-97754457D01*
X163803130Y-97756217D01*
X163794960Y-97759931D01*
X163770588Y-97780931D01*
X163759338Y-97790624D01*
X163751426Y-97796906D01*
X163740534Y-97804864D01*
X163729651Y-97815747D01*
X163722804Y-97822105D01*
X163685309Y-97854413D01*
X163680426Y-97861946D01*
X163674747Y-97868456D01*
X163665446Y-97879952D01*
X162752703Y-98792695D01*
X162743243Y-98800254D01*
X162743564Y-98800631D01*
X162736731Y-98806447D01*
X162729137Y-98811238D01*
X162723193Y-98817968D01*
X162723191Y-98817970D01*
X162693745Y-98851311D01*
X162688399Y-98856999D01*
X162677044Y-98868354D01*
X162671344Y-98875959D01*
X162670828Y-98876648D01*
X162664448Y-98884484D01*
X162663220Y-98885875D01*
X162633324Y-98919726D01*
X162629509Y-98927852D01*
X162627703Y-98930601D01*
X162619173Y-98944797D01*
X162617603Y-98947665D01*
X162612220Y-98954847D01*
X162609069Y-98963253D01*
X162595714Y-98998879D01*
X162591794Y-99008182D01*
X162571810Y-99050745D01*
X162570429Y-99059610D01*
X162569471Y-99062745D01*
X162565268Y-99078769D01*
X162564563Y-99081974D01*
X162561413Y-99090378D01*
X162560748Y-99099328D01*
X162557930Y-99137253D01*
X162556777Y-99147299D01*
X162554700Y-99160635D01*
X162554700Y-99176036D01*
X162554354Y-99185373D01*
X162550687Y-99234722D01*
X162552561Y-99243499D01*
X162553148Y-99252112D01*
X162554700Y-99266821D01*
X162554700Y-100848727D01*
X162538292Y-100909966D01*
X162535464Y-100913651D01*
X162474956Y-101059730D01*
X162454318Y-101216492D01*
X162474956Y-101373254D01*
X162478116Y-101380883D01*
X162503131Y-101441274D01*
X162510720Y-101511863D01*
X162478941Y-101575350D01*
X162417883Y-101611578D01*
X162386722Y-101615492D01*
X161849475Y-101615492D01*
X161829962Y-101613415D01*
X161825424Y-101613201D01*
X161815246Y-101611010D01*
X161795553Y-101613341D01*
X161784750Y-101614619D01*
X161779442Y-101614932D01*
X161779453Y-101615064D01*
X161774275Y-101615492D01*
X161769074Y-101615492D01*
X161763945Y-101616346D01*
X161763942Y-101616346D01*
X161751578Y-101618404D01*
X161745699Y-101619241D01*
X161708915Y-101623594D01*
X161708913Y-101623594D01*
X161698575Y-101624818D01*
X161690898Y-101628504D01*
X161682501Y-101629902D01*
X161673342Y-101634844D01*
X161673339Y-101634845D01*
X161640744Y-101652433D01*
X161635452Y-101655129D01*
X161592667Y-101675674D01*
X161588693Y-101679015D01*
X161586760Y-101680948D01*
X161585139Y-101682435D01*
X161584690Y-101682677D01*
X161584662Y-101682646D01*
X161584526Y-101682765D01*
X161579106Y-101685690D01*
X161572036Y-101693338D01*
X161572035Y-101693339D01*
X161545185Y-101722386D01*
X161541755Y-101725953D01*
X160732265Y-102535443D01*
X160716996Y-102547776D01*
X160713642Y-102550828D01*
X160704890Y-102556479D01*
X160685872Y-102580603D01*
X160682346Y-102584570D01*
X160682447Y-102584656D01*
X160679089Y-102588619D01*
X160675411Y-102592297D01*
X160665096Y-102606731D01*
X160661545Y-102611461D01*
X160632155Y-102648742D01*
X160629333Y-102656777D01*
X160624384Y-102663703D01*
X160621402Y-102673674D01*
X160621400Y-102673678D01*
X160610783Y-102709180D01*
X160608959Y-102714796D01*
X160593228Y-102759591D01*
X160592780Y-102764763D01*
X160592780Y-102767467D01*
X160592684Y-102769699D01*
X160592534Y-102770199D01*
X160592496Y-102770197D01*
X160592486Y-102770361D01*
X160590721Y-102776262D01*
X160591130Y-102786666D01*
X160592683Y-102826192D01*
X160592780Y-102831139D01*
X160592780Y-107735954D01*
X160572778Y-107804075D01*
X160555875Y-107825049D01*
X160228141Y-108152783D01*
X160165829Y-108186809D01*
X160122601Y-108188610D01*
X160090000Y-108184318D01*
X160057400Y-108188610D01*
X159987252Y-108177671D01*
X159951859Y-108152783D01*
X158531341Y-106732265D01*
X158519008Y-106716996D01*
X158515956Y-106713642D01*
X158510305Y-106704890D01*
X158486181Y-106685872D01*
X158482214Y-106682346D01*
X158482128Y-106682447D01*
X158478165Y-106679089D01*
X158474487Y-106675411D01*
X158460053Y-106665096D01*
X158455323Y-106661545D01*
X158426221Y-106638603D01*
X158426222Y-106638603D01*
X158418042Y-106632155D01*
X158410007Y-106629333D01*
X158403081Y-106624384D01*
X158393110Y-106621402D01*
X158393106Y-106621400D01*
X158357604Y-106610783D01*
X158351988Y-106608959D01*
X158307193Y-106593228D01*
X158302021Y-106592780D01*
X158299317Y-106592780D01*
X158297085Y-106592684D01*
X158296585Y-106592534D01*
X158296587Y-106592496D01*
X158296423Y-106592486D01*
X158290522Y-106590721D01*
X158241126Y-106592662D01*
X158240592Y-106592683D01*
X158235645Y-106592780D01*
X151472187Y-106592780D01*
X151452674Y-106590703D01*
X151448136Y-106590489D01*
X151437958Y-106588298D01*
X151418265Y-106590629D01*
X151407462Y-106591907D01*
X151402154Y-106592220D01*
X151402165Y-106592352D01*
X151396987Y-106592780D01*
X151391786Y-106592780D01*
X151386657Y-106593634D01*
X151386654Y-106593634D01*
X151374290Y-106595692D01*
X151368411Y-106596529D01*
X151331627Y-106600882D01*
X151331625Y-106600882D01*
X151321287Y-106602106D01*
X151313610Y-106605792D01*
X151305213Y-106607190D01*
X151296054Y-106612132D01*
X151296051Y-106612133D01*
X151263456Y-106629721D01*
X151258164Y-106632417D01*
X151215379Y-106652962D01*
X151211405Y-106656303D01*
X151209472Y-106658236D01*
X151207851Y-106659723D01*
X151207402Y-106659965D01*
X151207374Y-106659934D01*
X151207238Y-106660053D01*
X151201818Y-106662978D01*
X151194748Y-106670626D01*
X151194747Y-106670627D01*
X151167897Y-106699674D01*
X151164467Y-106703241D01*
X149427513Y-108440195D01*
X149365201Y-108474221D01*
X149338418Y-108477100D01*
X136734798Y-108477100D01*
X136666677Y-108457098D01*
X136645703Y-108440195D01*
X134809805Y-106604297D01*
X134775779Y-106541985D01*
X134772900Y-106515202D01*
X134772900Y-101841088D01*
X134774978Y-101821556D01*
X134775191Y-101817034D01*
X134777383Y-101806854D01*
X134773773Y-101776354D01*
X134773460Y-101771051D01*
X134773328Y-101771062D01*
X134772900Y-101765884D01*
X134772900Y-101760682D01*
X134769988Y-101743187D01*
X134769155Y-101737335D01*
X134764798Y-101700523D01*
X134764798Y-101700522D01*
X134763574Y-101690183D01*
X134759888Y-101682506D01*
X134758490Y-101674109D01*
X134753548Y-101664950D01*
X134753547Y-101664947D01*
X134735959Y-101632352D01*
X134733262Y-101627059D01*
X134727439Y-101614932D01*
X134712718Y-101584275D01*
X134709377Y-101580301D01*
X134707444Y-101578368D01*
X134705957Y-101576747D01*
X134705715Y-101576298D01*
X134705746Y-101576270D01*
X134705627Y-101576134D01*
X134702702Y-101570714D01*
X134666005Y-101536792D01*
X134662439Y-101533363D01*
X134127217Y-100998141D01*
X134093191Y-100935829D01*
X134091390Y-100892599D01*
X134092304Y-100885661D01*
X134095682Y-100860000D01*
X134075044Y-100703238D01*
X134014536Y-100557159D01*
X133918282Y-100431718D01*
X133792841Y-100335464D01*
X133646762Y-100274956D01*
X133490000Y-100254318D01*
X133333238Y-100274956D01*
X133187159Y-100335464D01*
X133129911Y-100379392D01*
X133075604Y-100421063D01*
X133009384Y-100446663D01*
X132939835Y-100432398D01*
X132889039Y-100382797D01*
X132872900Y-100321100D01*
X132872900Y-98178366D01*
X132892902Y-98110245D01*
X132909805Y-98089271D01*
X134729271Y-96269805D01*
X134791583Y-96235779D01*
X134818366Y-96232900D01*
X135931500Y-96232900D01*
X135999621Y-96252902D01*
X136046114Y-96306558D01*
X136056218Y-96376832D01*
X136026724Y-96441412D01*
X136008204Y-96458863D01*
X135953058Y-96501178D01*
X135856804Y-96626619D01*
X135796296Y-96772698D01*
X135795218Y-96780886D01*
X135790169Y-96819234D01*
X135775658Y-96929460D01*
X135796296Y-97086222D01*
X135856804Y-97232301D01*
X135953058Y-97357742D01*
X135959604Y-97362765D01*
X135989258Y-97385519D01*
X136078499Y-97453996D01*
X136224578Y-97514504D01*
X136381340Y-97535142D01*
X136389528Y-97534064D01*
X136529914Y-97515582D01*
X136538102Y-97514504D01*
X136545729Y-97511345D01*
X136545732Y-97511344D01*
X136558063Y-97506236D01*
X136628653Y-97498647D01*
X136692140Y-97530427D01*
X136722690Y-97574426D01*
X136781065Y-97715355D01*
X136877319Y-97840796D01*
X137002760Y-97937050D01*
X137148839Y-97997558D01*
X137305601Y-98018196D01*
X137433360Y-98001376D01*
X137503508Y-98012315D01*
X137556607Y-98059443D01*
X137570143Y-98090540D01*
X137570712Y-98094862D01*
X137631220Y-98240941D01*
X137727474Y-98366382D01*
X137852915Y-98462636D01*
X137998994Y-98523144D01*
X138007182Y-98524222D01*
X138020452Y-98525969D01*
X138155756Y-98543782D01*
X138163944Y-98542704D01*
X138304330Y-98524222D01*
X138312518Y-98523144D01*
X138458597Y-98462636D01*
X138465145Y-98457612D01*
X138465153Y-98457607D01*
X138470876Y-98453215D01*
X138537097Y-98427615D01*
X138606646Y-98441880D01*
X138647542Y-98476474D01*
X138711163Y-98559386D01*
X138721718Y-98573142D01*
X138847159Y-98669396D01*
X138993238Y-98729904D01*
X139150000Y-98750542D01*
X139182600Y-98746250D01*
X139252748Y-98757189D01*
X139288141Y-98782077D01*
X139668670Y-99162606D01*
X139681003Y-99177875D01*
X139684055Y-99181229D01*
X139689706Y-99189981D01*
X139713830Y-99208999D01*
X139717797Y-99212525D01*
X139717883Y-99212424D01*
X139721846Y-99215782D01*
X139725524Y-99219460D01*
X139739958Y-99229775D01*
X139744688Y-99233326D01*
X139781969Y-99262716D01*
X139790004Y-99265538D01*
X139796930Y-99270487D01*
X139806901Y-99273469D01*
X139806905Y-99273471D01*
X139842407Y-99284088D01*
X139848023Y-99285912D01*
X139892818Y-99301643D01*
X139897990Y-99302091D01*
X139900694Y-99302091D01*
X139902926Y-99302187D01*
X139903426Y-99302337D01*
X139903424Y-99302375D01*
X139903588Y-99302385D01*
X139909489Y-99304150D01*
X139959420Y-99302188D01*
X139964366Y-99302091D01*
X148437507Y-99302091D01*
X148505628Y-99322093D01*
X148552121Y-99375749D01*
X148562225Y-99446023D01*
X148532731Y-99510603D01*
X148526602Y-99517186D01*
X141806313Y-106237475D01*
X141744001Y-106271501D01*
X141717218Y-106274380D01*
X140363803Y-106274380D01*
X140344295Y-106272304D01*
X140339755Y-106272090D01*
X140329574Y-106269898D01*
X140308670Y-106272372D01*
X140299078Y-106273507D01*
X140293770Y-106273820D01*
X140293781Y-106273952D01*
X140288603Y-106274380D01*
X140283402Y-106274380D01*
X140278273Y-106275234D01*
X140278270Y-106275234D01*
X140265906Y-106277292D01*
X140260027Y-106278129D01*
X140212903Y-106283706D01*
X140205227Y-106287392D01*
X140196829Y-106288790D01*
X140187665Y-106293735D01*
X140187664Y-106293735D01*
X140155060Y-106311327D01*
X140149787Y-106314015D01*
X140106995Y-106334563D01*
X140103021Y-106337903D01*
X140101083Y-106339841D01*
X140099467Y-106341323D01*
X140099005Y-106341572D01*
X140098979Y-106341543D01*
X140098852Y-106341655D01*
X140093434Y-106344578D01*
X140086364Y-106352226D01*
X140086363Y-106352227D01*
X140059513Y-106381274D01*
X140056083Y-106384841D01*
X139668141Y-106772783D01*
X139605829Y-106806809D01*
X139562601Y-106808610D01*
X139530000Y-106804318D01*
X139373238Y-106824956D01*
X139227159Y-106885464D01*
X139101718Y-106981718D01*
X139096695Y-106988264D01*
X139094045Y-106991718D01*
X139005464Y-107107159D01*
X138944956Y-107253238D01*
X138924318Y-107410000D01*
X138944956Y-107566762D01*
X139005464Y-107712841D01*
X139047315Y-107767382D01*
X139089917Y-107822902D01*
X139101718Y-107838282D01*
X139227159Y-107934536D01*
X139354947Y-107987468D01*
X139365006Y-107991634D01*
X139373238Y-107995044D01*
X139381426Y-107996122D01*
X139425193Y-108001884D01*
X139530000Y-108015682D01*
X139538188Y-108014604D01*
X139678574Y-107996122D01*
X139686762Y-107995044D01*
X139694995Y-107991634D01*
X139705053Y-107987468D01*
X139832841Y-107934536D01*
X139958282Y-107838282D01*
X139970084Y-107822902D01*
X140012685Y-107767382D01*
X140054536Y-107712841D01*
X140058591Y-107703052D01*
X140059832Y-107701512D01*
X140061825Y-107698060D01*
X140062363Y-107698371D01*
X140103138Y-107647771D01*
X140170501Y-107625349D01*
X140239293Y-107642906D01*
X140287672Y-107694868D01*
X140291409Y-107703052D01*
X140295464Y-107712841D01*
X140337315Y-107767382D01*
X140379917Y-107822902D01*
X140391718Y-107838282D01*
X140517159Y-107934536D01*
X140644947Y-107987468D01*
X140655006Y-107991634D01*
X140663238Y-107995044D01*
X140671426Y-107996122D01*
X140715193Y-108001884D01*
X140820000Y-108015682D01*
X140828188Y-108014604D01*
X140968574Y-107996122D01*
X140976762Y-107995044D01*
X140984995Y-107991634D01*
X140995053Y-107987468D01*
X141122841Y-107934536D01*
X141189694Y-107883238D01*
X141241731Y-107843309D01*
X141241732Y-107843308D01*
X141248282Y-107838282D01*
X141268299Y-107812195D01*
X141325637Y-107770328D01*
X141368261Y-107762900D01*
X141794997Y-107762900D01*
X141814510Y-107764977D01*
X141819048Y-107765191D01*
X141829226Y-107767382D01*
X141849547Y-107764977D01*
X141859722Y-107763773D01*
X141865030Y-107763460D01*
X141865019Y-107763328D01*
X141870197Y-107762900D01*
X141875398Y-107762900D01*
X141880527Y-107762046D01*
X141880530Y-107762046D01*
X141892894Y-107759988D01*
X141898773Y-107759151D01*
X141919745Y-107756669D01*
X141945897Y-107753574D01*
X141953573Y-107749888D01*
X141961971Y-107748490D01*
X142003740Y-107725953D01*
X142009013Y-107723265D01*
X142051805Y-107702717D01*
X142055779Y-107699377D01*
X142057717Y-107697439D01*
X142059333Y-107695957D01*
X142059795Y-107695708D01*
X142059821Y-107695737D01*
X142059948Y-107695625D01*
X142065366Y-107692702D01*
X142072452Y-107685037D01*
X142099287Y-107656006D01*
X142102717Y-107652439D01*
X142131499Y-107623657D01*
X142193811Y-107589631D01*
X142264626Y-107594696D01*
X142321462Y-107637243D01*
X142337002Y-107664532D01*
X142365178Y-107732555D01*
X142420057Y-107804075D01*
X142434504Y-107822902D01*
X142461432Y-107857996D01*
X142467978Y-107863019D01*
X142492369Y-107881735D01*
X142586873Y-107954250D01*
X142732952Y-108014758D01*
X142889714Y-108035396D01*
X142897902Y-108034318D01*
X142926197Y-108030593D01*
X143046476Y-108014758D01*
X143192555Y-107954250D01*
X143287059Y-107881735D01*
X143311450Y-107863019D01*
X143317996Y-107857996D01*
X143363621Y-107798536D01*
X143420959Y-107756669D01*
X143491830Y-107752447D01*
X143553733Y-107787211D01*
X143563547Y-107798537D01*
X143596692Y-107841733D01*
X143596695Y-107841736D01*
X143601718Y-107848282D01*
X143608264Y-107853305D01*
X143616519Y-107859639D01*
X143727159Y-107944536D01*
X143873238Y-108005044D01*
X144030000Y-108025682D01*
X144038188Y-108024604D01*
X144178574Y-108006122D01*
X144186762Y-108005044D01*
X144332841Y-107944536D01*
X144339394Y-107939508D01*
X144339397Y-107939506D01*
X144445895Y-107857787D01*
X144512115Y-107832186D01*
X144581664Y-107846451D01*
X144600557Y-107860420D01*
X144601156Y-107859639D01*
X144726597Y-107955893D01*
X144826565Y-107997301D01*
X144861081Y-108011598D01*
X144872676Y-108016401D01*
X145029438Y-108037039D01*
X145037626Y-108035961D01*
X145178012Y-108017479D01*
X145186200Y-108016401D01*
X145197796Y-108011598D01*
X145232311Y-107997301D01*
X145332279Y-107955893D01*
X145439906Y-107873308D01*
X145451174Y-107864662D01*
X145457720Y-107859639D01*
X145458105Y-107860140D01*
X145515110Y-107829012D01*
X145585925Y-107834077D01*
X145641857Y-107875431D01*
X145651718Y-107888282D01*
X145777159Y-107984536D01*
X145923238Y-108045044D01*
X146080000Y-108065682D01*
X146088188Y-108064604D01*
X146228574Y-108046122D01*
X146236762Y-108045044D01*
X146382841Y-107984536D01*
X146508282Y-107888282D01*
X146528368Y-107862106D01*
X146566665Y-107812195D01*
X146604536Y-107762841D01*
X146665044Y-107616762D01*
X146685682Y-107460000D01*
X146665044Y-107303238D01*
X146604536Y-107157159D01*
X146529308Y-107059120D01*
X146513309Y-107038269D01*
X146513308Y-107038268D01*
X146508282Y-107031718D01*
X146482195Y-107011701D01*
X146440328Y-106954363D01*
X146432900Y-106911739D01*
X146432900Y-106227310D01*
X146452902Y-106159189D01*
X146469805Y-106138215D01*
X151538020Y-101070000D01*
X154194318Y-101070000D01*
X154214956Y-101226762D01*
X154275464Y-101372841D01*
X154371718Y-101498282D01*
X154497159Y-101594536D01*
X154643238Y-101655044D01*
X154800000Y-101675682D01*
X154808188Y-101674604D01*
X154948574Y-101656122D01*
X154956762Y-101655044D01*
X155102841Y-101594536D01*
X155228282Y-101498282D01*
X155324536Y-101372841D01*
X155385044Y-101226762D01*
X155405682Y-101070000D01*
X155401390Y-101037400D01*
X155412329Y-100967252D01*
X155437217Y-100931859D01*
X157366741Y-99002335D01*
X157382010Y-98990002D01*
X157385364Y-98986950D01*
X157394116Y-98981299D01*
X157413134Y-98957175D01*
X157416660Y-98953208D01*
X157416559Y-98953122D01*
X157419917Y-98949159D01*
X157423595Y-98945481D01*
X157433910Y-98931047D01*
X157437461Y-98926317D01*
X157460403Y-98897215D01*
X157466851Y-98889036D01*
X157469673Y-98881001D01*
X157474622Y-98874075D01*
X157477604Y-98864104D01*
X157477606Y-98864100D01*
X157488223Y-98828598D01*
X157490047Y-98822982D01*
X157505778Y-98778187D01*
X157506226Y-98773015D01*
X157506226Y-98770311D01*
X157506322Y-98768079D01*
X157506472Y-98767579D01*
X157506510Y-98767581D01*
X157506520Y-98767417D01*
X157508285Y-98761516D01*
X157506323Y-98711585D01*
X157506226Y-98706639D01*
X157506226Y-98691587D01*
X157526228Y-98623466D01*
X157555521Y-98591625D01*
X157558452Y-98589376D01*
X157581608Y-98571608D01*
X157592131Y-98557895D01*
X157672835Y-98452718D01*
X157677862Y-98446167D01*
X157738370Y-98300088D01*
X157759008Y-98143326D01*
X157742534Y-98018196D01*
X157739448Y-97994752D01*
X157738370Y-97986564D01*
X157677862Y-97840485D01*
X157597848Y-97736209D01*
X157586631Y-97721590D01*
X157581608Y-97715044D01*
X157553954Y-97693824D01*
X157462718Y-97623817D01*
X157456167Y-97618790D01*
X157310088Y-97558282D01*
X157153326Y-97537644D01*
X156996564Y-97558282D01*
X156850485Y-97618790D01*
X156843934Y-97623817D01*
X156752699Y-97693824D01*
X156725044Y-97715044D01*
X156720021Y-97721590D01*
X156708804Y-97736209D01*
X156628790Y-97840485D01*
X156568282Y-97986564D01*
X156567204Y-97994752D01*
X156564118Y-98018196D01*
X156547644Y-98143326D01*
X156568282Y-98300088D01*
X156628790Y-98446167D01*
X156633817Y-98452718D01*
X156690024Y-98525969D01*
X156715624Y-98592190D01*
X156701359Y-98661738D01*
X156679156Y-98691768D01*
X154938141Y-100432783D01*
X154875829Y-100466809D01*
X154832601Y-100468610D01*
X154800000Y-100464318D01*
X154643238Y-100484956D01*
X154497159Y-100545464D01*
X154486651Y-100553527D01*
X154396919Y-100622381D01*
X154371718Y-100641718D01*
X154275464Y-100767159D01*
X154214956Y-100913238D01*
X154213878Y-100921426D01*
X154211982Y-100935829D01*
X154194318Y-101070000D01*
X151538020Y-101070000D01*
X156407448Y-96200572D01*
X157163746Y-96200572D01*
X157184384Y-96357334D01*
X157244892Y-96503413D01*
X157341146Y-96628854D01*
X157466587Y-96725108D01*
X157612666Y-96785616D01*
X157769428Y-96806254D01*
X157777616Y-96805176D01*
X157918002Y-96786694D01*
X157926190Y-96785616D01*
X158072269Y-96725108D01*
X158129610Y-96681109D01*
X158195831Y-96655509D01*
X158206314Y-96655072D01*
X158660122Y-96655072D01*
X158728243Y-96675074D01*
X158749217Y-96691977D01*
X159694695Y-97637455D01*
X159728721Y-97699767D01*
X159730521Y-97710100D01*
X159739956Y-97781762D01*
X159800464Y-97927841D01*
X159896718Y-98053282D01*
X160022159Y-98149536D01*
X160168238Y-98210044D01*
X160325000Y-98230682D01*
X160333188Y-98229604D01*
X160473574Y-98211122D01*
X160481762Y-98210044D01*
X160627841Y-98149536D01*
X160753282Y-98053282D01*
X160849536Y-97927841D01*
X160910044Y-97781762D01*
X160930682Y-97625000D01*
X160910044Y-97468238D01*
X160849536Y-97322159D01*
X160753282Y-97196718D01*
X160627841Y-97100464D01*
X160481762Y-97039956D01*
X160410103Y-97030522D01*
X160345177Y-97001800D01*
X160337455Y-96994695D01*
X159246321Y-95903561D01*
X159236466Y-95892472D01*
X159224394Y-95877159D01*
X159215213Y-95865513D01*
X159190334Y-95848318D01*
X159166478Y-95831830D01*
X159163285Y-95829548D01*
X159115648Y-95794363D01*
X159108775Y-95791949D01*
X159102783Y-95787808D01*
X159046294Y-95769943D01*
X159042573Y-95768701D01*
X158986698Y-95749079D01*
X158979494Y-95748796D01*
X158979323Y-95748763D01*
X158972475Y-95746597D01*
X158965804Y-95746072D01*
X158912634Y-95746072D01*
X158907688Y-95745975D01*
X158906796Y-95745940D01*
X158850135Y-95743714D01*
X158842980Y-95745611D01*
X158834605Y-95746072D01*
X158206314Y-95746072D01*
X158138193Y-95726070D01*
X158129610Y-95720035D01*
X158078820Y-95681063D01*
X158072269Y-95676036D01*
X157926190Y-95615528D01*
X157769428Y-95594890D01*
X157612666Y-95615528D01*
X157466587Y-95676036D01*
X157341146Y-95772290D01*
X157244892Y-95897731D01*
X157184384Y-96043810D01*
X157163746Y-96200572D01*
X156407448Y-96200572D01*
X161900935Y-90707085D01*
X161963247Y-90673059D01*
X161990030Y-90670180D01*
X167011637Y-90670180D01*
X167031150Y-90672257D01*
X167035688Y-90672471D01*
X167045866Y-90674662D01*
X167066187Y-90672257D01*
X167076362Y-90671053D01*
X167081670Y-90670740D01*
X167081659Y-90670608D01*
X167086837Y-90670180D01*
X167092038Y-90670180D01*
X167097167Y-90669326D01*
X167097170Y-90669326D01*
X167109534Y-90667268D01*
X167115413Y-90666431D01*
X167118479Y-90666068D01*
X167162537Y-90660854D01*
X167170213Y-90657168D01*
X167178611Y-90655770D01*
X167195718Y-90646540D01*
X167220380Y-90633233D01*
X167225653Y-90630545D01*
X167268445Y-90609997D01*
X167272419Y-90606657D01*
X167274357Y-90604719D01*
X167275973Y-90603237D01*
X167276435Y-90602988D01*
X167276461Y-90603017D01*
X167276588Y-90602905D01*
X167282006Y-90599982D01*
X167315928Y-90563285D01*
X167319357Y-90559719D01*
X169603415Y-88275661D01*
X169618684Y-88263328D01*
X169622038Y-88260276D01*
X169630790Y-88254625D01*
X169649808Y-88230501D01*
X169653334Y-88226534D01*
X169653233Y-88226448D01*
X169656591Y-88222485D01*
X169660269Y-88218807D01*
X169670584Y-88204373D01*
X169674135Y-88199643D01*
X169697077Y-88170541D01*
X169703525Y-88162362D01*
X169706347Y-88154327D01*
X169711296Y-88147401D01*
X169714278Y-88137430D01*
X169714280Y-88137426D01*
X169724897Y-88101924D01*
X169726721Y-88096308D01*
X169742452Y-88051513D01*
X169742900Y-88046341D01*
X169742900Y-88043637D01*
X169742996Y-88041405D01*
X169743146Y-88040905D01*
X169743184Y-88040907D01*
X169743194Y-88040743D01*
X169744959Y-88034842D01*
X169742997Y-87984911D01*
X169742900Y-87979965D01*
X169742900Y-87738664D01*
X169762902Y-87670543D01*
X169812089Y-87626198D01*
X169845167Y-87609489D01*
X169903921Y-87579810D01*
X169932376Y-87557579D01*
X169943554Y-87548846D01*
X171372811Y-87548846D01*
X171378946Y-87557598D01*
X171386450Y-87562814D01*
X171539552Y-87648379D01*
X171550793Y-87653290D01*
X171717602Y-87707490D01*
X171729576Y-87710123D01*
X171903745Y-87730891D01*
X171915994Y-87731148D01*
X172090878Y-87717692D01*
X172102956Y-87715562D01*
X172271886Y-87668395D01*
X172283319Y-87663961D01*
X172439875Y-87584879D01*
X172450234Y-87578305D01*
X172476683Y-87557641D01*
X172485154Y-87545825D01*
X172478618Y-87534144D01*
X171942812Y-86998338D01*
X171928868Y-86990724D01*
X171927035Y-86990855D01*
X171920420Y-86995106D01*
X171380187Y-87535339D01*
X171372811Y-87548846D01*
X169943554Y-87548846D01*
X170046571Y-87468360D01*
X170046572Y-87468360D01*
X170051427Y-87464566D01*
X170154098Y-87345620D01*
X170169709Y-87327535D01*
X170169710Y-87327533D01*
X170173738Y-87322867D01*
X170266198Y-87160108D01*
X170325283Y-86982491D01*
X170348744Y-86796780D01*
X170349118Y-86770000D01*
X170348404Y-86762715D01*
X170968779Y-86762715D01*
X170983454Y-86937488D01*
X170985669Y-86949552D01*
X171034013Y-87118148D01*
X171038531Y-87129560D01*
X171118696Y-87285543D01*
X171125350Y-87295867D01*
X171142065Y-87316957D01*
X171154057Y-87325427D01*
X171165504Y-87318970D01*
X171701662Y-86782812D01*
X171709276Y-86768868D01*
X171709145Y-86767035D01*
X171704894Y-86760420D01*
X171165020Y-86220546D01*
X171151635Y-86213237D01*
X171141708Y-86220247D01*
X171140347Y-86221870D01*
X171133409Y-86232001D01*
X171048913Y-86385699D01*
X171044085Y-86396963D01*
X170991049Y-86564154D01*
X170988501Y-86576142D01*
X170968950Y-86750446D01*
X170968779Y-86762715D01*
X170348404Y-86762715D01*
X170330852Y-86583706D01*
X170276749Y-86404509D01*
X170270185Y-86392163D01*
X170191764Y-86244674D01*
X170191762Y-86244671D01*
X170188870Y-86239232D01*
X170184980Y-86234462D01*
X170184977Y-86234458D01*
X170074457Y-86098948D01*
X170074454Y-86098945D01*
X170070562Y-86094173D01*
X170064862Y-86089457D01*
X169953580Y-85997397D01*
X169949360Y-85993906D01*
X171374267Y-85993906D01*
X171380642Y-86005116D01*
X171917188Y-86541662D01*
X171931132Y-86549276D01*
X171932965Y-86549145D01*
X171939580Y-86544894D01*
X172479127Y-86005347D01*
X172486369Y-85992085D01*
X172479180Y-85981980D01*
X172472596Y-85976533D01*
X172462428Y-85969675D01*
X172308150Y-85886256D01*
X172296835Y-85881500D01*
X172129290Y-85829636D01*
X172117277Y-85827170D01*
X171942843Y-85808836D01*
X171930575Y-85808751D01*
X171755910Y-85824647D01*
X171743861Y-85826945D01*
X171575601Y-85876467D01*
X171564233Y-85881060D01*
X171408798Y-85962319D01*
X171398533Y-85969037D01*
X171382735Y-85981738D01*
X171374267Y-85993906D01*
X169949360Y-85993906D01*
X169926332Y-85974855D01*
X169761673Y-85885824D01*
X169672265Y-85858148D01*
X169588744Y-85832294D01*
X169588741Y-85832293D01*
X169582857Y-85830472D01*
X169576732Y-85829828D01*
X169576731Y-85829828D01*
X169402824Y-85811549D01*
X169402823Y-85811549D01*
X169396696Y-85810905D01*
X169320143Y-85817872D01*
X169216418Y-85827312D01*
X169216415Y-85827313D01*
X169210279Y-85827871D01*
X169204373Y-85829609D01*
X169204369Y-85829610D01*
X169078596Y-85866627D01*
X169030708Y-85880721D01*
X168864822Y-85967444D01*
X168860022Y-85971304D01*
X168860021Y-85971304D01*
X168853066Y-85976896D01*
X168718940Y-86084736D01*
X168714981Y-86089454D01*
X168714975Y-86089460D01*
X168685421Y-86124681D01*
X168626312Y-86164008D01*
X168555324Y-86165134D01*
X168494996Y-86127703D01*
X168464483Y-86063598D01*
X168462900Y-86043690D01*
X168462900Y-85708366D01*
X168482902Y-85640245D01*
X168499805Y-85619271D01*
X168954558Y-85164518D01*
X169016870Y-85130492D01*
X169082589Y-85133780D01*
X169088154Y-85135588D01*
X169184043Y-85166744D01*
X169369914Y-85188908D01*
X169376049Y-85188436D01*
X169376051Y-85188436D01*
X169550408Y-85175020D01*
X169550413Y-85175019D01*
X169556549Y-85174547D01*
X169562479Y-85172891D01*
X169562481Y-85172891D01*
X169702561Y-85133780D01*
X169736841Y-85124209D01*
X169767148Y-85108900D01*
X169893886Y-85044879D01*
X169903921Y-85039810D01*
X169932376Y-85017579D01*
X169943554Y-85008846D01*
X171372811Y-85008846D01*
X171378946Y-85017598D01*
X171386450Y-85022814D01*
X171539552Y-85108379D01*
X171550793Y-85113290D01*
X171717602Y-85167490D01*
X171729576Y-85170123D01*
X171903745Y-85190891D01*
X171915994Y-85191148D01*
X172090878Y-85177692D01*
X172102956Y-85175562D01*
X172271886Y-85128395D01*
X172283319Y-85123961D01*
X172439875Y-85044879D01*
X172450234Y-85038305D01*
X172476683Y-85017641D01*
X172485154Y-85005825D01*
X172478618Y-84994144D01*
X171942812Y-84458338D01*
X171928868Y-84450724D01*
X171927035Y-84450855D01*
X171920420Y-84455106D01*
X171380187Y-84995339D01*
X171372811Y-85008846D01*
X169943554Y-85008846D01*
X170046571Y-84928360D01*
X170046573Y-84928358D01*
X170051427Y-84924566D01*
X170139844Y-84822134D01*
X170169709Y-84787535D01*
X170169710Y-84787533D01*
X170173738Y-84782867D01*
X170266198Y-84620108D01*
X170325283Y-84442491D01*
X170348744Y-84256780D01*
X170349118Y-84230000D01*
X170348404Y-84222715D01*
X170968779Y-84222715D01*
X170983454Y-84397488D01*
X170985669Y-84409552D01*
X171034013Y-84578148D01*
X171038531Y-84589560D01*
X171118696Y-84745543D01*
X171125350Y-84755867D01*
X171142065Y-84776957D01*
X171154057Y-84785427D01*
X171165504Y-84778970D01*
X171701662Y-84242812D01*
X171709276Y-84228868D01*
X171709145Y-84227035D01*
X171704894Y-84220420D01*
X171165020Y-83680546D01*
X171151635Y-83673237D01*
X171141708Y-83680247D01*
X171140347Y-83681870D01*
X171133409Y-83692001D01*
X171048913Y-83845699D01*
X171044085Y-83856963D01*
X170991049Y-84024154D01*
X170988501Y-84036142D01*
X170968950Y-84210446D01*
X170968779Y-84222715D01*
X170348404Y-84222715D01*
X170330852Y-84043706D01*
X170276749Y-83864509D01*
X170266748Y-83845699D01*
X170191764Y-83704674D01*
X170191762Y-83704671D01*
X170188870Y-83699232D01*
X170184980Y-83694462D01*
X170184977Y-83694458D01*
X170074457Y-83558948D01*
X170074454Y-83558945D01*
X170070562Y-83554173D01*
X170057324Y-83543221D01*
X169962911Y-83465116D01*
X169926332Y-83434855D01*
X169761673Y-83345824D01*
X169754408Y-83343575D01*
X169748238Y-83341665D01*
X169689078Y-83302415D01*
X169660530Y-83237410D01*
X169671658Y-83167291D01*
X169718929Y-83114320D01*
X169785496Y-83095300D01*
X171524296Y-83095300D01*
X171592417Y-83115302D01*
G37*
G04 #@! TD.AperFunction*
G04 #@! TA.AperFunction,Conductor*
G36*
X143659658Y-83115302D02*
G01*
X143706151Y-83168958D01*
X143716255Y-83239232D01*
X143686761Y-83303812D01*
X143638738Y-83338125D01*
X143636617Y-83338982D01*
X143630708Y-83340721D01*
X143625251Y-83343574D01*
X143625248Y-83343575D01*
X143605049Y-83354135D01*
X143464822Y-83427444D01*
X143460022Y-83431304D01*
X143460021Y-83431304D01*
X143450718Y-83438784D01*
X143318940Y-83544736D01*
X143198619Y-83688130D01*
X143195655Y-83693522D01*
X143195652Y-83693526D01*
X143128648Y-83815407D01*
X143108441Y-83852163D01*
X143106580Y-83858030D01*
X143106579Y-83858032D01*
X143058156Y-84010681D01*
X143051841Y-84030588D01*
X143030975Y-84216609D01*
X143033183Y-84242897D01*
X143037905Y-84299127D01*
X143046639Y-84403139D01*
X143048338Y-84409064D01*
X143095043Y-84571942D01*
X143098235Y-84583075D01*
X143101050Y-84588552D01*
X143101051Y-84588555D01*
X143150636Y-84685037D01*
X143183797Y-84749562D01*
X143187620Y-84754386D01*
X143187623Y-84754390D01*
X143278554Y-84869115D01*
X143300068Y-84896259D01*
X143304762Y-84900254D01*
X143339379Y-84929715D01*
X143442618Y-85017579D01*
X143447996Y-85020585D01*
X143447998Y-85020586D01*
X143479703Y-85038305D01*
X143606018Y-85108900D01*
X143784043Y-85166744D01*
X143969914Y-85188908D01*
X143976049Y-85188436D01*
X143976051Y-85188436D01*
X144150408Y-85175020D01*
X144150413Y-85175019D01*
X144156549Y-85174547D01*
X144162479Y-85172891D01*
X144162481Y-85172891D01*
X144302561Y-85133780D01*
X144336841Y-85124209D01*
X144367148Y-85108900D01*
X144493886Y-85044879D01*
X144503921Y-85039810D01*
X144532376Y-85017579D01*
X144543554Y-85008846D01*
X145972811Y-85008846D01*
X145978946Y-85017598D01*
X145986450Y-85022814D01*
X146139552Y-85108379D01*
X146150793Y-85113290D01*
X146317602Y-85167490D01*
X146329576Y-85170123D01*
X146503745Y-85190891D01*
X146515994Y-85191148D01*
X146690878Y-85177692D01*
X146702956Y-85175562D01*
X146871886Y-85128395D01*
X146883319Y-85123961D01*
X147039875Y-85044879D01*
X147050234Y-85038305D01*
X147076683Y-85017641D01*
X147085154Y-85005825D01*
X147078618Y-84994144D01*
X146542812Y-84458338D01*
X146528868Y-84450724D01*
X146527035Y-84450855D01*
X146520420Y-84455106D01*
X145980187Y-84995339D01*
X145972811Y-85008846D01*
X144543554Y-85008846D01*
X144646571Y-84928360D01*
X144646573Y-84928358D01*
X144651427Y-84924566D01*
X144739844Y-84822134D01*
X144769709Y-84787535D01*
X144769710Y-84787533D01*
X144773738Y-84782867D01*
X144866198Y-84620108D01*
X144925283Y-84442491D01*
X144948744Y-84256780D01*
X144949118Y-84230000D01*
X144948404Y-84222715D01*
X145568779Y-84222715D01*
X145583454Y-84397488D01*
X145585669Y-84409552D01*
X145634013Y-84578148D01*
X145638531Y-84589560D01*
X145718696Y-84745543D01*
X145725350Y-84755867D01*
X145742065Y-84776957D01*
X145754057Y-84785427D01*
X145765504Y-84778970D01*
X146301662Y-84242812D01*
X146308040Y-84231132D01*
X146750724Y-84231132D01*
X146750855Y-84232965D01*
X146755106Y-84239580D01*
X147295731Y-84780205D01*
X147309357Y-84787646D01*
X147316415Y-84782736D01*
X147318997Y-84779075D01*
X147405629Y-84626575D01*
X147410623Y-84615359D01*
X147465982Y-84448944D01*
X147468702Y-84436972D01*
X147491013Y-84260360D01*
X147491505Y-84253331D01*
X147491782Y-84233505D01*
X147491489Y-84226512D01*
X147474114Y-84049312D01*
X147471731Y-84037277D01*
X147421038Y-83869375D01*
X147416364Y-83858034D01*
X147334019Y-83703166D01*
X147327239Y-83692962D01*
X147318620Y-83682394D01*
X147306277Y-83673931D01*
X147295304Y-83680222D01*
X146758338Y-84217188D01*
X146750724Y-84231132D01*
X146308040Y-84231132D01*
X146309276Y-84228868D01*
X146309145Y-84227035D01*
X146304894Y-84220420D01*
X145765020Y-83680546D01*
X145751635Y-83673237D01*
X145741708Y-83680247D01*
X145740347Y-83681870D01*
X145733409Y-83692001D01*
X145648913Y-83845699D01*
X145644085Y-83856963D01*
X145591049Y-84024154D01*
X145588501Y-84036142D01*
X145568950Y-84210446D01*
X145568779Y-84222715D01*
X144948404Y-84222715D01*
X144930852Y-84043706D01*
X144876749Y-83864509D01*
X144866748Y-83845699D01*
X144791764Y-83704674D01*
X144791762Y-83704671D01*
X144788870Y-83699232D01*
X144784980Y-83694462D01*
X144784977Y-83694458D01*
X144674457Y-83558948D01*
X144674454Y-83558945D01*
X144670562Y-83554173D01*
X144657324Y-83543221D01*
X144562911Y-83465116D01*
X144526332Y-83434855D01*
X144361673Y-83345824D01*
X144354408Y-83343575D01*
X144348238Y-83341665D01*
X144289078Y-83302415D01*
X144260530Y-83237410D01*
X144271658Y-83167291D01*
X144318929Y-83114320D01*
X144385496Y-83095300D01*
X146124296Y-83095300D01*
X146192417Y-83115302D01*
X146238910Y-83168958D01*
X146249014Y-83239232D01*
X146219520Y-83303812D01*
X146171498Y-83338125D01*
X146164229Y-83341062D01*
X146008798Y-83422319D01*
X145998533Y-83429037D01*
X145982735Y-83441738D01*
X145974267Y-83453906D01*
X145980642Y-83465116D01*
X146517188Y-84001662D01*
X146531132Y-84009276D01*
X146532965Y-84009145D01*
X146539580Y-84004894D01*
X147079127Y-83465347D01*
X147086369Y-83452085D01*
X147079180Y-83441980D01*
X147072596Y-83436533D01*
X147062428Y-83429675D01*
X146908150Y-83346256D01*
X146891155Y-83339112D01*
X146891671Y-83337885D01*
X146838209Y-83302413D01*
X146809662Y-83237408D01*
X146820791Y-83167289D01*
X146868062Y-83114319D01*
X146934628Y-83095300D01*
X148671537Y-83095300D01*
X148739658Y-83115302D01*
X148786151Y-83168958D01*
X148796255Y-83239232D01*
X148766761Y-83303812D01*
X148718738Y-83338125D01*
X148716617Y-83338982D01*
X148710708Y-83340721D01*
X148705251Y-83343574D01*
X148705248Y-83343575D01*
X148685049Y-83354135D01*
X148544822Y-83427444D01*
X148540022Y-83431304D01*
X148540021Y-83431304D01*
X148530718Y-83438784D01*
X148398940Y-83544736D01*
X148278619Y-83688130D01*
X148275655Y-83693522D01*
X148275652Y-83693526D01*
X148208648Y-83815407D01*
X148188441Y-83852163D01*
X148186580Y-83858030D01*
X148186579Y-83858032D01*
X148138156Y-84010681D01*
X148131841Y-84030588D01*
X148110975Y-84216609D01*
X148113183Y-84242897D01*
X148117905Y-84299127D01*
X148126639Y-84403139D01*
X148128338Y-84409064D01*
X148175043Y-84571942D01*
X148178235Y-84583075D01*
X148181050Y-84588552D01*
X148181051Y-84588555D01*
X148230636Y-84685037D01*
X148263797Y-84749562D01*
X148267620Y-84754386D01*
X148267623Y-84754390D01*
X148358554Y-84869115D01*
X148380068Y-84896259D01*
X148384762Y-84900254D01*
X148419379Y-84929715D01*
X148522618Y-85017579D01*
X148527996Y-85020585D01*
X148527998Y-85020586D01*
X148559703Y-85038305D01*
X148686018Y-85108900D01*
X148864043Y-85166744D01*
X149049914Y-85188908D01*
X149056049Y-85188436D01*
X149056051Y-85188436D01*
X149230408Y-85175020D01*
X149230413Y-85175019D01*
X149236549Y-85174547D01*
X149242479Y-85172891D01*
X149242481Y-85172891D01*
X149382561Y-85133780D01*
X149416841Y-85124209D01*
X149447148Y-85108900D01*
X149573886Y-85044879D01*
X149583921Y-85039810D01*
X149612376Y-85017579D01*
X149726571Y-84928360D01*
X149726573Y-84928358D01*
X149731427Y-84924566D01*
X149819844Y-84822134D01*
X149849709Y-84787535D01*
X149849710Y-84787533D01*
X149853738Y-84782867D01*
X149946198Y-84620108D01*
X150005283Y-84442491D01*
X150028744Y-84256780D01*
X150029118Y-84230000D01*
X150010852Y-84043706D01*
X149956749Y-83864509D01*
X149946748Y-83845699D01*
X149871764Y-83704674D01*
X149871762Y-83704671D01*
X149868870Y-83699232D01*
X149864980Y-83694462D01*
X149864977Y-83694458D01*
X149754457Y-83558948D01*
X149754454Y-83558945D01*
X149750562Y-83554173D01*
X149737324Y-83543221D01*
X149642911Y-83465116D01*
X149606332Y-83434855D01*
X149441673Y-83345824D01*
X149434408Y-83343575D01*
X149428238Y-83341665D01*
X149369078Y-83302415D01*
X149340530Y-83237410D01*
X149351658Y-83167291D01*
X149398929Y-83114320D01*
X149465496Y-83095300D01*
X151211537Y-83095300D01*
X151279658Y-83115302D01*
X151326151Y-83168958D01*
X151336255Y-83239232D01*
X151306761Y-83303812D01*
X151258738Y-83338125D01*
X151256617Y-83338982D01*
X151250708Y-83340721D01*
X151245251Y-83343574D01*
X151245248Y-83343575D01*
X151225049Y-83354135D01*
X151084822Y-83427444D01*
X151080022Y-83431304D01*
X151080021Y-83431304D01*
X151070718Y-83438784D01*
X150938940Y-83544736D01*
X150818619Y-83688130D01*
X150815655Y-83693522D01*
X150815652Y-83693526D01*
X150748648Y-83815407D01*
X150728441Y-83852163D01*
X150726580Y-83858030D01*
X150726579Y-83858032D01*
X150678156Y-84010681D01*
X150671841Y-84030588D01*
X150650975Y-84216609D01*
X150653183Y-84242897D01*
X150657905Y-84299127D01*
X150666639Y-84403139D01*
X150668338Y-84409064D01*
X150715043Y-84571942D01*
X150718235Y-84583075D01*
X150721050Y-84588552D01*
X150721051Y-84588555D01*
X150770636Y-84685037D01*
X150803797Y-84749562D01*
X150807620Y-84754386D01*
X150807623Y-84754390D01*
X150898554Y-84869115D01*
X150920068Y-84896259D01*
X150924762Y-84900254D01*
X150959379Y-84929715D01*
X151062618Y-85017579D01*
X151067996Y-85020585D01*
X151067998Y-85020586D01*
X151099703Y-85038305D01*
X151226018Y-85108900D01*
X151404043Y-85166744D01*
X151589914Y-85188908D01*
X151596049Y-85188436D01*
X151596051Y-85188436D01*
X151770408Y-85175020D01*
X151770413Y-85175019D01*
X151776549Y-85174547D01*
X151782479Y-85172891D01*
X151782481Y-85172891D01*
X151922561Y-85133780D01*
X151956841Y-85124209D01*
X151987148Y-85108900D01*
X152113886Y-85044879D01*
X152123921Y-85039810D01*
X152152376Y-85017579D01*
X152266571Y-84928360D01*
X152266573Y-84928358D01*
X152271427Y-84924566D01*
X152359844Y-84822134D01*
X152389709Y-84787535D01*
X152389710Y-84787533D01*
X152393738Y-84782867D01*
X152486198Y-84620108D01*
X152545283Y-84442491D01*
X152568744Y-84256780D01*
X152569118Y-84230000D01*
X152550852Y-84043706D01*
X152496749Y-83864509D01*
X152486748Y-83845699D01*
X152411764Y-83704674D01*
X152411762Y-83704671D01*
X152408870Y-83699232D01*
X152404980Y-83694462D01*
X152404977Y-83694458D01*
X152294457Y-83558948D01*
X152294454Y-83558945D01*
X152290562Y-83554173D01*
X152277324Y-83543221D01*
X152182911Y-83465116D01*
X152146332Y-83434855D01*
X151981673Y-83345824D01*
X151974408Y-83343575D01*
X151968238Y-83341665D01*
X151909078Y-83302415D01*
X151880530Y-83237410D01*
X151891658Y-83167291D01*
X151938929Y-83114320D01*
X152005496Y-83095300D01*
X153751537Y-83095300D01*
X153819658Y-83115302D01*
X153866151Y-83168958D01*
X153876255Y-83239232D01*
X153846761Y-83303812D01*
X153798738Y-83338125D01*
X153796617Y-83338982D01*
X153790708Y-83340721D01*
X153785251Y-83343574D01*
X153785248Y-83343575D01*
X153765049Y-83354135D01*
X153624822Y-83427444D01*
X153620022Y-83431304D01*
X153620021Y-83431304D01*
X153610718Y-83438784D01*
X153478940Y-83544736D01*
X153358619Y-83688130D01*
X153355655Y-83693522D01*
X153355652Y-83693526D01*
X153288648Y-83815407D01*
X153268441Y-83852163D01*
X153266580Y-83858030D01*
X153266579Y-83858032D01*
X153218156Y-84010681D01*
X153211841Y-84030588D01*
X153190975Y-84216609D01*
X153193183Y-84242897D01*
X153197905Y-84299127D01*
X153206639Y-84403139D01*
X153208338Y-84409064D01*
X153246605Y-84542518D01*
X153246154Y-84613513D01*
X153214581Y-84666343D01*
X152686585Y-85194339D01*
X152671316Y-85206672D01*
X152667962Y-85209724D01*
X152659210Y-85215375D01*
X152640192Y-85239499D01*
X152636666Y-85243466D01*
X152636767Y-85243552D01*
X152633409Y-85247515D01*
X152629731Y-85251193D01*
X152619416Y-85265627D01*
X152615865Y-85270357D01*
X152613414Y-85273466D01*
X152586475Y-85307638D01*
X152583653Y-85315673D01*
X152578704Y-85322599D01*
X152575722Y-85332570D01*
X152575720Y-85332574D01*
X152565103Y-85368076D01*
X152563279Y-85373692D01*
X152547548Y-85418487D01*
X152547100Y-85423659D01*
X152547100Y-85426363D01*
X152547004Y-85428595D01*
X152546854Y-85429095D01*
X152546816Y-85429093D01*
X152546806Y-85429257D01*
X152545041Y-85435158D01*
X152545935Y-85457905D01*
X152547003Y-85485088D01*
X152547100Y-85490035D01*
X152547100Y-86054870D01*
X152527098Y-86122991D01*
X152473442Y-86169484D01*
X152403168Y-86179588D01*
X152338588Y-86150094D01*
X152323457Y-86134506D01*
X152294457Y-86098948D01*
X152294454Y-86098945D01*
X152290562Y-86094173D01*
X152284862Y-86089457D01*
X152173580Y-85997397D01*
X152146332Y-85974855D01*
X151981673Y-85885824D01*
X151892265Y-85858148D01*
X151808744Y-85832294D01*
X151808741Y-85832293D01*
X151802857Y-85830472D01*
X151796732Y-85829828D01*
X151796731Y-85829828D01*
X151622824Y-85811549D01*
X151622823Y-85811549D01*
X151616696Y-85810905D01*
X151540143Y-85817872D01*
X151436418Y-85827312D01*
X151436415Y-85827313D01*
X151430279Y-85827871D01*
X151424373Y-85829609D01*
X151424369Y-85829610D01*
X151298596Y-85866627D01*
X151250708Y-85880721D01*
X151084822Y-85967444D01*
X151080022Y-85971304D01*
X151080021Y-85971304D01*
X151073066Y-85976896D01*
X150938940Y-86084736D01*
X150818619Y-86228130D01*
X150815655Y-86233522D01*
X150815652Y-86233526D01*
X150800872Y-86260411D01*
X150728441Y-86392163D01*
X150726580Y-86398030D01*
X150726579Y-86398032D01*
X150678074Y-86550938D01*
X150671841Y-86570588D01*
X150650975Y-86756609D01*
X150653435Y-86785898D01*
X150665241Y-86926487D01*
X150666639Y-86943139D01*
X150668338Y-86949064D01*
X150711360Y-87099098D01*
X150718235Y-87123075D01*
X150721050Y-87128552D01*
X150721051Y-87128555D01*
X150798423Y-87279105D01*
X150803797Y-87289562D01*
X150807620Y-87294386D01*
X150807623Y-87294390D01*
X150884031Y-87390792D01*
X150920068Y-87436259D01*
X150924762Y-87440254D01*
X150964476Y-87474053D01*
X151062618Y-87557579D01*
X151067996Y-87560585D01*
X151067998Y-87560586D01*
X151095605Y-87576015D01*
X151226018Y-87648900D01*
X151404043Y-87706744D01*
X151589914Y-87728908D01*
X151596049Y-87728436D01*
X151596051Y-87728436D01*
X151770408Y-87715020D01*
X151770413Y-87715019D01*
X151776549Y-87714547D01*
X151782479Y-87712891D01*
X151782481Y-87712891D01*
X151934155Y-87670543D01*
X151956841Y-87664209D01*
X151974629Y-87655224D01*
X152113886Y-87584879D01*
X152123921Y-87579810D01*
X152152376Y-87557579D01*
X152266571Y-87468360D01*
X152266572Y-87468360D01*
X152271427Y-87464566D01*
X152325719Y-87401668D01*
X152385371Y-87363171D01*
X152456368Y-87363035D01*
X152516167Y-87401305D01*
X152545783Y-87465830D01*
X152547100Y-87483999D01*
X152547100Y-90231634D01*
X152527098Y-90299755D01*
X152510195Y-90320729D01*
X151768141Y-91062783D01*
X151705829Y-91096809D01*
X151662601Y-91098610D01*
X151630000Y-91094318D01*
X151621812Y-91095396D01*
X151486250Y-91113243D01*
X151473238Y-91114956D01*
X151327159Y-91175464D01*
X151201718Y-91271718D01*
X151105464Y-91397159D01*
X151044956Y-91543238D01*
X151043878Y-91551426D01*
X151039868Y-91581884D01*
X151024318Y-91700000D01*
X151044956Y-91856762D01*
X151105464Y-92002841D01*
X151201718Y-92128282D01*
X151208264Y-92133305D01*
X151270600Y-92181137D01*
X151312467Y-92238475D01*
X151316689Y-92309346D01*
X151281925Y-92371249D01*
X151219212Y-92404530D01*
X151193896Y-92407100D01*
X150024132Y-92407100D01*
X149956011Y-92387098D01*
X149947428Y-92381063D01*
X149941736Y-92376695D01*
X149822841Y-92285464D01*
X149676762Y-92224956D01*
X149662042Y-92223018D01*
X149567352Y-92210552D01*
X149520000Y-92204318D01*
X149472648Y-92210552D01*
X149377959Y-92223018D01*
X149363238Y-92224956D01*
X149217159Y-92285464D01*
X149127918Y-92353941D01*
X149105362Y-92371249D01*
X149091718Y-92381718D01*
X148995464Y-92507159D01*
X148934956Y-92653238D01*
X148914318Y-92810000D01*
X148934956Y-92966762D01*
X148995464Y-93112841D01*
X149091718Y-93238282D01*
X149217159Y-93334536D01*
X149363238Y-93395044D01*
X149520000Y-93415682D01*
X149528188Y-93414604D01*
X149668574Y-93396122D01*
X149676762Y-93395044D01*
X149822841Y-93334536D01*
X149948282Y-93238282D01*
X149953305Y-93231736D01*
X149953309Y-93231732D01*
X150006666Y-93162196D01*
X150064004Y-93120329D01*
X150106628Y-93112900D01*
X151773834Y-93112900D01*
X151841955Y-93132902D01*
X151888448Y-93186558D01*
X151898552Y-93256832D01*
X151869058Y-93321412D01*
X151862929Y-93327995D01*
X148505562Y-96685362D01*
X148443250Y-96719388D01*
X148372435Y-96714323D01*
X148315599Y-96671776D01*
X148290788Y-96605256D01*
X148294290Y-96568583D01*
X148295044Y-96566762D01*
X148315682Y-96410000D01*
X148295044Y-96253238D01*
X148234536Y-96107159D01*
X148138282Y-95981718D01*
X148012841Y-95885464D01*
X147866762Y-95824956D01*
X147825010Y-95819459D01*
X147735220Y-95807638D01*
X147670292Y-95778915D01*
X147631201Y-95719650D01*
X147630356Y-95648659D01*
X147662571Y-95593621D01*
X147743415Y-95512777D01*
X147758684Y-95500444D01*
X147762038Y-95497392D01*
X147770790Y-95491741D01*
X147789808Y-95467617D01*
X147793338Y-95463645D01*
X147793237Y-95463559D01*
X147796592Y-95459600D01*
X147800269Y-95455923D01*
X147803287Y-95451700D01*
X147803292Y-95451694D01*
X147810594Y-95441476D01*
X147814138Y-95436755D01*
X147843525Y-95399478D01*
X147846346Y-95391445D01*
X147851296Y-95384518D01*
X147864897Y-95339041D01*
X147866729Y-95333403D01*
X147879824Y-95296113D01*
X147879824Y-95296112D01*
X147882452Y-95288629D01*
X147882900Y-95283457D01*
X147882900Y-95280753D01*
X147882996Y-95278521D01*
X147883146Y-95278021D01*
X147883184Y-95278023D01*
X147883194Y-95277859D01*
X147884959Y-95271958D01*
X147882997Y-95222027D01*
X147882900Y-95217081D01*
X147882900Y-88508366D01*
X147902902Y-88440245D01*
X147919805Y-88419271D01*
X148634558Y-87704518D01*
X148696870Y-87670492D01*
X148762589Y-87673780D01*
X148777224Y-87678535D01*
X148864043Y-87706744D01*
X149049914Y-87728908D01*
X149056049Y-87728436D01*
X149056051Y-87728436D01*
X149230408Y-87715020D01*
X149230413Y-87715019D01*
X149236549Y-87714547D01*
X149242479Y-87712891D01*
X149242481Y-87712891D01*
X149394155Y-87670543D01*
X149416841Y-87664209D01*
X149434629Y-87655224D01*
X149573886Y-87584879D01*
X149583921Y-87579810D01*
X149612376Y-87557579D01*
X149726571Y-87468360D01*
X149726572Y-87468360D01*
X149731427Y-87464566D01*
X149834098Y-87345620D01*
X149849709Y-87327535D01*
X149849710Y-87327533D01*
X149853738Y-87322867D01*
X149946198Y-87160108D01*
X150005283Y-86982491D01*
X150028744Y-86796780D01*
X150029118Y-86770000D01*
X150010852Y-86583706D01*
X149956749Y-86404509D01*
X149950185Y-86392163D01*
X149871764Y-86244674D01*
X149871762Y-86244671D01*
X149868870Y-86239232D01*
X149864980Y-86234462D01*
X149864977Y-86234458D01*
X149754457Y-86098948D01*
X149754454Y-86098945D01*
X149750562Y-86094173D01*
X149744862Y-86089457D01*
X149633580Y-85997397D01*
X149606332Y-85974855D01*
X149441673Y-85885824D01*
X149352265Y-85858148D01*
X149268744Y-85832294D01*
X149268741Y-85832293D01*
X149262857Y-85830472D01*
X149256732Y-85829828D01*
X149256731Y-85829828D01*
X149082824Y-85811549D01*
X149082823Y-85811549D01*
X149076696Y-85810905D01*
X149000143Y-85817872D01*
X148896418Y-85827312D01*
X148896415Y-85827313D01*
X148890279Y-85827871D01*
X148884373Y-85829609D01*
X148884369Y-85829610D01*
X148758596Y-85866627D01*
X148710708Y-85880721D01*
X148544822Y-85967444D01*
X148540022Y-85971304D01*
X148540021Y-85971304D01*
X148533066Y-85976896D01*
X148398940Y-86084736D01*
X148278619Y-86228130D01*
X148275655Y-86233522D01*
X148275652Y-86233526D01*
X148260872Y-86260411D01*
X148188441Y-86392163D01*
X148186580Y-86398030D01*
X148186579Y-86398032D01*
X148138074Y-86550938D01*
X148131841Y-86570588D01*
X148110975Y-86756609D01*
X148113435Y-86785898D01*
X148125241Y-86926487D01*
X148126639Y-86943139D01*
X148128338Y-86949064D01*
X148166605Y-87082518D01*
X148166154Y-87153513D01*
X148134581Y-87206343D01*
X147316585Y-88024339D01*
X147301316Y-88036672D01*
X147297962Y-88039724D01*
X147289210Y-88045375D01*
X147270192Y-88069499D01*
X147266666Y-88073466D01*
X147266767Y-88073552D01*
X147263409Y-88077515D01*
X147259731Y-88081193D01*
X147249416Y-88095627D01*
X147245865Y-88100357D01*
X147216475Y-88137638D01*
X147213653Y-88145673D01*
X147208704Y-88152599D01*
X147205722Y-88162570D01*
X147205720Y-88162574D01*
X147195103Y-88198076D01*
X147193279Y-88203692D01*
X147177548Y-88248487D01*
X147177100Y-88253659D01*
X147177100Y-88256363D01*
X147177004Y-88258595D01*
X147176854Y-88259095D01*
X147176816Y-88259093D01*
X147176806Y-88259257D01*
X147175041Y-88265158D01*
X147176704Y-88307488D01*
X147177003Y-88315088D01*
X147177100Y-88320035D01*
X147177100Y-94875512D01*
X147157098Y-94943633D01*
X147103442Y-94990126D01*
X147033168Y-95000230D01*
X146968588Y-94970736D01*
X146951137Y-94952215D01*
X146908937Y-94897218D01*
X146883337Y-94830998D01*
X146882900Y-94820515D01*
X146882900Y-87738664D01*
X146902902Y-87670543D01*
X146952089Y-87626198D01*
X146985167Y-87609489D01*
X147043921Y-87579810D01*
X147072376Y-87557579D01*
X147186571Y-87468360D01*
X147186572Y-87468360D01*
X147191427Y-87464566D01*
X147294098Y-87345620D01*
X147309709Y-87327535D01*
X147309710Y-87327533D01*
X147313738Y-87322867D01*
X147406198Y-87160108D01*
X147465283Y-86982491D01*
X147488744Y-86796780D01*
X147489118Y-86770000D01*
X147470852Y-86583706D01*
X147416749Y-86404509D01*
X147410185Y-86392163D01*
X147331764Y-86244674D01*
X147331762Y-86244671D01*
X147328870Y-86239232D01*
X147324980Y-86234462D01*
X147324977Y-86234458D01*
X147214457Y-86098948D01*
X147214454Y-86098945D01*
X147210562Y-86094173D01*
X147204862Y-86089457D01*
X147093580Y-85997397D01*
X147066332Y-85974855D01*
X146901673Y-85885824D01*
X146812265Y-85858148D01*
X146728744Y-85832294D01*
X146728741Y-85832293D01*
X146722857Y-85830472D01*
X146716732Y-85829828D01*
X146716731Y-85829828D01*
X146542824Y-85811549D01*
X146542823Y-85811549D01*
X146536696Y-85810905D01*
X146460143Y-85817872D01*
X146356418Y-85827312D01*
X146356415Y-85827313D01*
X146350279Y-85827871D01*
X146344373Y-85829609D01*
X146344369Y-85829610D01*
X146218596Y-85866627D01*
X146170708Y-85880721D01*
X146004822Y-85967444D01*
X146000022Y-85971304D01*
X146000021Y-85971304D01*
X145993066Y-85976896D01*
X145858940Y-86084736D01*
X145738619Y-86228130D01*
X145735655Y-86233522D01*
X145735652Y-86233526D01*
X145720872Y-86260411D01*
X145648441Y-86392163D01*
X145646580Y-86398030D01*
X145646579Y-86398032D01*
X145598074Y-86550938D01*
X145591841Y-86570588D01*
X145570975Y-86756609D01*
X145573435Y-86785898D01*
X145585241Y-86926487D01*
X145586639Y-86943139D01*
X145588338Y-86949064D01*
X145631360Y-87099098D01*
X145638235Y-87123075D01*
X145641050Y-87128552D01*
X145641051Y-87128555D01*
X145718423Y-87279105D01*
X145723797Y-87289562D01*
X145727620Y-87294386D01*
X145727623Y-87294390D01*
X145804031Y-87390792D01*
X145840068Y-87436259D01*
X145844762Y-87440254D01*
X145884476Y-87474053D01*
X145982618Y-87557579D01*
X146031466Y-87584879D01*
X146112570Y-87630207D01*
X146162276Y-87680901D01*
X146177100Y-87740195D01*
X146177100Y-94638327D01*
X146157098Y-94706448D01*
X146127804Y-94738290D01*
X146125776Y-94739846D01*
X146003570Y-94833618D01*
X145907316Y-94959059D01*
X145846808Y-95105138D01*
X145826170Y-95261900D01*
X145835952Y-95336202D01*
X145844367Y-95400117D01*
X145846808Y-95418662D01*
X145847621Y-95420626D01*
X145845997Y-95488763D01*
X145806200Y-95547557D01*
X145742427Y-95575315D01*
X145593238Y-95594956D01*
X145447159Y-95655464D01*
X145440608Y-95660491D01*
X145328937Y-95746179D01*
X145321718Y-95751718D01*
X145316695Y-95758264D01*
X145312393Y-95763870D01*
X145225464Y-95877159D01*
X145204317Y-95928212D01*
X145197284Y-95945191D01*
X145152735Y-96000472D01*
X145085372Y-96022893D01*
X145016581Y-96005335D01*
X144991780Y-95986068D01*
X144672297Y-95666585D01*
X144659964Y-95651316D01*
X144656912Y-95647962D01*
X144651261Y-95639210D01*
X144627137Y-95620192D01*
X144623170Y-95616666D01*
X144623084Y-95616767D01*
X144619121Y-95613409D01*
X144615443Y-95609731D01*
X144601009Y-95599416D01*
X144596279Y-95595865D01*
X144567177Y-95572923D01*
X144567178Y-95572923D01*
X144558998Y-95566475D01*
X144550963Y-95563653D01*
X144544037Y-95558704D01*
X144534066Y-95555722D01*
X144534062Y-95555720D01*
X144498560Y-95545103D01*
X144492944Y-95543279D01*
X144448149Y-95527548D01*
X144442977Y-95527100D01*
X144440273Y-95527100D01*
X144438041Y-95527004D01*
X144437541Y-95526854D01*
X144437543Y-95526816D01*
X144437379Y-95526806D01*
X144431478Y-95525041D01*
X144382082Y-95526982D01*
X144381548Y-95527003D01*
X144376601Y-95527100D01*
X142189850Y-95527100D01*
X142121729Y-95507098D01*
X142075236Y-95453442D01*
X142065132Y-95383168D01*
X142094626Y-95318588D01*
X142100755Y-95312005D01*
X144287011Y-93125749D01*
X144298100Y-93115894D01*
X144311651Y-93105211D01*
X144325059Y-93094641D01*
X144358742Y-93045906D01*
X144361024Y-93042713D01*
X144396209Y-92995076D01*
X144398623Y-92988203D01*
X144402764Y-92982211D01*
X144420629Y-92925722D01*
X144421880Y-92921973D01*
X144441493Y-92866126D01*
X144441776Y-92858922D01*
X144441809Y-92858751D01*
X144443975Y-92851903D01*
X144444500Y-92845232D01*
X144444500Y-92792062D01*
X144444597Y-92787116D01*
X144446488Y-92738973D01*
X144446858Y-92729563D01*
X144444961Y-92722408D01*
X144444500Y-92714030D01*
X144444500Y-87686077D01*
X144464502Y-87617956D01*
X144501773Y-87580895D01*
X144503921Y-87579810D01*
X144651427Y-87464566D01*
X144754098Y-87345620D01*
X144769709Y-87327535D01*
X144769710Y-87327533D01*
X144773738Y-87322867D01*
X144866198Y-87160108D01*
X144925283Y-86982491D01*
X144948744Y-86796780D01*
X144949118Y-86770000D01*
X144930852Y-86583706D01*
X144876749Y-86404509D01*
X144870185Y-86392163D01*
X144791764Y-86244674D01*
X144791762Y-86244671D01*
X144788870Y-86239232D01*
X144784980Y-86234462D01*
X144784977Y-86234458D01*
X144674457Y-86098948D01*
X144674454Y-86098945D01*
X144670562Y-86094173D01*
X144664862Y-86089457D01*
X144553580Y-85997397D01*
X144526332Y-85974855D01*
X144361673Y-85885824D01*
X144272265Y-85858148D01*
X144188744Y-85832294D01*
X144188741Y-85832293D01*
X144182857Y-85830472D01*
X144176732Y-85829828D01*
X144176731Y-85829828D01*
X144002824Y-85811549D01*
X144002823Y-85811549D01*
X143996696Y-85810905D01*
X143920143Y-85817872D01*
X143816418Y-85827312D01*
X143816415Y-85827313D01*
X143810279Y-85827871D01*
X143804369Y-85829611D01*
X143804366Y-85829611D01*
X143678593Y-85866627D01*
X143607597Y-85866671D01*
X143553924Y-85834848D01*
X143025661Y-85306585D01*
X143013328Y-85291316D01*
X143010276Y-85287962D01*
X143004625Y-85279210D01*
X142980501Y-85260192D01*
X142976534Y-85256666D01*
X142976448Y-85256767D01*
X142972485Y-85253409D01*
X142968807Y-85249731D01*
X142954373Y-85239416D01*
X142949643Y-85235865D01*
X142934025Y-85223553D01*
X142912362Y-85206475D01*
X142904327Y-85203653D01*
X142897401Y-85198704D01*
X142887430Y-85195722D01*
X142887426Y-85195720D01*
X142851924Y-85185103D01*
X142846308Y-85183279D01*
X142801513Y-85167548D01*
X142796341Y-85167100D01*
X142793637Y-85167100D01*
X142791405Y-85167004D01*
X142790905Y-85166854D01*
X142790907Y-85166816D01*
X142790743Y-85166806D01*
X142784842Y-85165041D01*
X142735446Y-85166982D01*
X142734912Y-85167003D01*
X142729965Y-85167100D01*
X142166927Y-85167100D01*
X142098806Y-85147098D01*
X142052313Y-85093442D01*
X142042209Y-85023168D01*
X142071703Y-84958588D01*
X142089352Y-84941813D01*
X142111427Y-84924566D01*
X142199844Y-84822134D01*
X142229709Y-84787535D01*
X142229710Y-84787533D01*
X142233738Y-84782867D01*
X142326198Y-84620108D01*
X142385283Y-84442491D01*
X142408744Y-84256780D01*
X142409118Y-84230000D01*
X142390852Y-84043706D01*
X142336749Y-83864509D01*
X142326748Y-83845699D01*
X142251764Y-83704674D01*
X142251762Y-83704671D01*
X142248870Y-83699232D01*
X142244980Y-83694462D01*
X142244977Y-83694458D01*
X142134457Y-83558948D01*
X142134454Y-83558945D01*
X142130562Y-83554173D01*
X142117324Y-83543221D01*
X142022911Y-83465116D01*
X141986332Y-83434855D01*
X141821673Y-83345824D01*
X141814408Y-83343575D01*
X141808238Y-83341665D01*
X141749078Y-83302415D01*
X141720530Y-83237410D01*
X141731658Y-83167291D01*
X141778929Y-83114320D01*
X141845496Y-83095300D01*
X143591537Y-83095300D01*
X143659658Y-83115302D01*
G37*
G04 #@! TD.AperFunction*
G04 #@! TA.AperFunction,Conductor*
G36*
X156359658Y-83115302D02*
G01*
X156406151Y-83168958D01*
X156416255Y-83239232D01*
X156386761Y-83303812D01*
X156338738Y-83338125D01*
X156336617Y-83338982D01*
X156330708Y-83340721D01*
X156325251Y-83343574D01*
X156325248Y-83343575D01*
X156305049Y-83354135D01*
X156164822Y-83427444D01*
X156160022Y-83431304D01*
X156160021Y-83431304D01*
X156150718Y-83438784D01*
X156018940Y-83544736D01*
X155898619Y-83688130D01*
X155895655Y-83693522D01*
X155895652Y-83693526D01*
X155828648Y-83815407D01*
X155808441Y-83852163D01*
X155806580Y-83858030D01*
X155806579Y-83858032D01*
X155758156Y-84010681D01*
X155751841Y-84030588D01*
X155730975Y-84216609D01*
X155733183Y-84242897D01*
X155737905Y-84299127D01*
X155746639Y-84403139D01*
X155748338Y-84409064D01*
X155786605Y-84542518D01*
X155786154Y-84613513D01*
X155754581Y-84666343D01*
X155236585Y-85184339D01*
X155221316Y-85196672D01*
X155217962Y-85199724D01*
X155209210Y-85205375D01*
X155190192Y-85229499D01*
X155186666Y-85233466D01*
X155186767Y-85233552D01*
X155183409Y-85237515D01*
X155179731Y-85241193D01*
X155169416Y-85255627D01*
X155165865Y-85260357D01*
X155136475Y-85297638D01*
X155133653Y-85305673D01*
X155128704Y-85312599D01*
X155125722Y-85322570D01*
X155125720Y-85322574D01*
X155115103Y-85358076D01*
X155113279Y-85363692D01*
X155097548Y-85408487D01*
X155097100Y-85413659D01*
X155097100Y-85416363D01*
X155097004Y-85418595D01*
X155096854Y-85419095D01*
X155096816Y-85419093D01*
X155096806Y-85419257D01*
X155095041Y-85425158D01*
X155096375Y-85459100D01*
X155097003Y-85475088D01*
X155097100Y-85480035D01*
X155097100Y-86091891D01*
X155077098Y-86160012D01*
X155023442Y-86206505D01*
X154953168Y-86216609D01*
X154946585Y-86214041D01*
X154927099Y-86213459D01*
X154915304Y-86220222D01*
X154378338Y-86757188D01*
X154370724Y-86771132D01*
X154370855Y-86772965D01*
X154375106Y-86779580D01*
X154915731Y-87320205D01*
X154929675Y-87327819D01*
X154962110Y-87325499D01*
X155031484Y-87340590D01*
X155081687Y-87390792D01*
X155097100Y-87451178D01*
X155097100Y-89495834D01*
X155077098Y-89563955D01*
X155023442Y-89610448D01*
X154953168Y-89620552D01*
X154894397Y-89595797D01*
X154852722Y-89563819D01*
X154852718Y-89563817D01*
X154846167Y-89558790D01*
X154700088Y-89498282D01*
X154681494Y-89495834D01*
X154551514Y-89478722D01*
X154543326Y-89477644D01*
X154535138Y-89478722D01*
X154405159Y-89495834D01*
X154386564Y-89498282D01*
X154240485Y-89558790D01*
X154115044Y-89655044D01*
X154018790Y-89780485D01*
X153958282Y-89926564D01*
X153937644Y-90083326D01*
X153940003Y-90101240D01*
X153941936Y-90115925D01*
X153930997Y-90186074D01*
X153906109Y-90221467D01*
X153437991Y-90689585D01*
X153375679Y-90723611D01*
X153304864Y-90718546D01*
X153248028Y-90675999D01*
X153223217Y-90609479D01*
X153228179Y-90564387D01*
X153234897Y-90541924D01*
X153236721Y-90536308D01*
X153252452Y-90491513D01*
X153252900Y-90486341D01*
X153252900Y-90483637D01*
X153252996Y-90481405D01*
X153253146Y-90480905D01*
X153253184Y-90480907D01*
X153253194Y-90480743D01*
X153254959Y-90474842D01*
X153252997Y-90424911D01*
X153252900Y-90419965D01*
X153252900Y-87548846D01*
X153592811Y-87548846D01*
X153598946Y-87557598D01*
X153606450Y-87562814D01*
X153759552Y-87648379D01*
X153770793Y-87653290D01*
X153937602Y-87707490D01*
X153949576Y-87710123D01*
X154123745Y-87730891D01*
X154135994Y-87731148D01*
X154310878Y-87717692D01*
X154322956Y-87715562D01*
X154491886Y-87668395D01*
X154503319Y-87663961D01*
X154659875Y-87584879D01*
X154670234Y-87578305D01*
X154696683Y-87557641D01*
X154705154Y-87545825D01*
X154698618Y-87534144D01*
X154162812Y-86998338D01*
X154148868Y-86990724D01*
X154147035Y-86990855D01*
X154140420Y-86995106D01*
X153600187Y-87535339D01*
X153592811Y-87548846D01*
X153252900Y-87548846D01*
X153252900Y-87452412D01*
X153272902Y-87384291D01*
X153326558Y-87337798D01*
X153365605Y-87330195D01*
X153385504Y-87318970D01*
X153921662Y-86782812D01*
X153929276Y-86768868D01*
X153929145Y-86767035D01*
X153924894Y-86760420D01*
X153385020Y-86220546D01*
X153356283Y-86204854D01*
X153318515Y-86196638D01*
X153268313Y-86146436D01*
X153252900Y-86086050D01*
X153252900Y-85993906D01*
X153594267Y-85993906D01*
X153600642Y-86005116D01*
X154137188Y-86541662D01*
X154151132Y-86549276D01*
X154152965Y-86549145D01*
X154159580Y-86544894D01*
X154699127Y-86005347D01*
X154706369Y-85992085D01*
X154699180Y-85981980D01*
X154692596Y-85976533D01*
X154682428Y-85969675D01*
X154528150Y-85886256D01*
X154516835Y-85881500D01*
X154349290Y-85829636D01*
X154337277Y-85827170D01*
X154162843Y-85808836D01*
X154150575Y-85808751D01*
X153975910Y-85824647D01*
X153963861Y-85826945D01*
X153795601Y-85876467D01*
X153784233Y-85881060D01*
X153628798Y-85962319D01*
X153618533Y-85969037D01*
X153602735Y-85981738D01*
X153594267Y-85993906D01*
X153252900Y-85993906D01*
X153252900Y-85678366D01*
X153272902Y-85610245D01*
X153289805Y-85589271D01*
X153714558Y-85164518D01*
X153776870Y-85130492D01*
X153842589Y-85133780D01*
X153848154Y-85135588D01*
X153944043Y-85166744D01*
X154129914Y-85188908D01*
X154136049Y-85188436D01*
X154136051Y-85188436D01*
X154310408Y-85175020D01*
X154310413Y-85175019D01*
X154316549Y-85174547D01*
X154322479Y-85172891D01*
X154322481Y-85172891D01*
X154462561Y-85133780D01*
X154496841Y-85124209D01*
X154527148Y-85108900D01*
X154653886Y-85044879D01*
X154663921Y-85039810D01*
X154692376Y-85017579D01*
X154806571Y-84928360D01*
X154806573Y-84928358D01*
X154811427Y-84924566D01*
X154899844Y-84822134D01*
X154929709Y-84787535D01*
X154929710Y-84787533D01*
X154933738Y-84782867D01*
X155026198Y-84620108D01*
X155085283Y-84442491D01*
X155108744Y-84256780D01*
X155109118Y-84230000D01*
X155090852Y-84043706D01*
X155036749Y-83864509D01*
X155026748Y-83845699D01*
X154951764Y-83704674D01*
X154951762Y-83704671D01*
X154948870Y-83699232D01*
X154944980Y-83694462D01*
X154944977Y-83694458D01*
X154834457Y-83558948D01*
X154834454Y-83558945D01*
X154830562Y-83554173D01*
X154817324Y-83543221D01*
X154722911Y-83465116D01*
X154686332Y-83434855D01*
X154521673Y-83345824D01*
X154514408Y-83343575D01*
X154508238Y-83341665D01*
X154449078Y-83302415D01*
X154420530Y-83237410D01*
X154431658Y-83167291D01*
X154478929Y-83114320D01*
X154545496Y-83095300D01*
X156291537Y-83095300D01*
X156359658Y-83115302D01*
G37*
G04 #@! TD.AperFunction*
G04 #@! TA.AperFunction,Conductor*
G36*
X158892417Y-83115302D02*
G01*
X158938910Y-83168958D01*
X158949014Y-83239232D01*
X158919520Y-83303812D01*
X158871498Y-83338125D01*
X158864229Y-83341062D01*
X158708798Y-83422319D01*
X158698533Y-83429037D01*
X158682735Y-83441738D01*
X158674267Y-83453906D01*
X158680642Y-83465116D01*
X159217188Y-84001662D01*
X159231132Y-84009276D01*
X159232965Y-84009145D01*
X159239580Y-84004894D01*
X159779127Y-83465347D01*
X159786369Y-83452085D01*
X159779180Y-83441980D01*
X159772596Y-83436533D01*
X159762428Y-83429675D01*
X159608150Y-83346256D01*
X159591155Y-83339112D01*
X159591671Y-83337885D01*
X159538209Y-83302413D01*
X159509662Y-83237408D01*
X159520791Y-83167289D01*
X159568062Y-83114319D01*
X159634628Y-83095300D01*
X161371537Y-83095300D01*
X161439658Y-83115302D01*
X161486151Y-83168958D01*
X161496255Y-83239232D01*
X161466761Y-83303812D01*
X161418738Y-83338125D01*
X161416617Y-83338982D01*
X161410708Y-83340721D01*
X161405251Y-83343574D01*
X161405248Y-83343575D01*
X161385049Y-83354135D01*
X161244822Y-83427444D01*
X161240022Y-83431304D01*
X161240021Y-83431304D01*
X161230718Y-83438784D01*
X161098940Y-83544736D01*
X160978619Y-83688130D01*
X160975655Y-83693522D01*
X160975652Y-83693526D01*
X160908648Y-83815407D01*
X160888441Y-83852163D01*
X160886580Y-83858030D01*
X160886579Y-83858032D01*
X160838156Y-84010681D01*
X160831841Y-84030588D01*
X160810975Y-84216609D01*
X160813183Y-84242897D01*
X160817905Y-84299127D01*
X160826639Y-84403139D01*
X160828338Y-84409064D01*
X160866605Y-84542518D01*
X160866154Y-84613513D01*
X160834581Y-84666343D01*
X160276585Y-85224339D01*
X160261316Y-85236672D01*
X160257962Y-85239724D01*
X160249210Y-85245375D01*
X160230192Y-85269499D01*
X160226666Y-85273466D01*
X160226767Y-85273552D01*
X160223409Y-85277515D01*
X160219731Y-85281193D01*
X160209416Y-85295627D01*
X160205865Y-85300357D01*
X160176475Y-85337638D01*
X160173653Y-85345673D01*
X160168704Y-85352599D01*
X160165722Y-85362570D01*
X160165720Y-85362574D01*
X160155103Y-85398076D01*
X160153279Y-85403692D01*
X160137548Y-85448487D01*
X160137100Y-85453659D01*
X160137100Y-85456363D01*
X160137004Y-85458595D01*
X160136854Y-85459095D01*
X160136816Y-85459093D01*
X160136806Y-85459257D01*
X160135041Y-85465158D01*
X160136410Y-85500000D01*
X160137003Y-85515088D01*
X160137100Y-85520035D01*
X160137100Y-86018087D01*
X160117098Y-86086208D01*
X160063442Y-86132701D01*
X159993168Y-86142805D01*
X159928588Y-86113311D01*
X159918847Y-86103275D01*
X159918800Y-86103322D01*
X159914456Y-86098948D01*
X159910562Y-86094173D01*
X159904862Y-86089457D01*
X159793580Y-85997397D01*
X159766332Y-85974855D01*
X159601673Y-85885824D01*
X159512265Y-85858148D01*
X159428744Y-85832294D01*
X159428741Y-85832293D01*
X159422857Y-85830472D01*
X159416732Y-85829828D01*
X159416731Y-85829828D01*
X159242824Y-85811549D01*
X159242823Y-85811549D01*
X159236696Y-85810905D01*
X159160143Y-85817872D01*
X159056418Y-85827312D01*
X159056415Y-85827313D01*
X159050279Y-85827871D01*
X159044373Y-85829609D01*
X159044369Y-85829610D01*
X158918596Y-85866627D01*
X158870708Y-85880721D01*
X158704822Y-85967444D01*
X158700022Y-85971304D01*
X158700021Y-85971304D01*
X158693066Y-85976896D01*
X158558940Y-86084736D01*
X158438619Y-86228130D01*
X158435655Y-86233522D01*
X158435652Y-86233526D01*
X158420872Y-86260411D01*
X158348441Y-86392163D01*
X158346580Y-86398030D01*
X158346579Y-86398032D01*
X158298074Y-86550938D01*
X158291841Y-86570588D01*
X158270975Y-86756609D01*
X158273435Y-86785898D01*
X158285241Y-86926487D01*
X158286639Y-86943139D01*
X158288338Y-86949064D01*
X158331360Y-87099098D01*
X158338235Y-87123075D01*
X158341050Y-87128552D01*
X158341051Y-87128555D01*
X158418423Y-87279105D01*
X158423797Y-87289562D01*
X158427620Y-87294386D01*
X158427623Y-87294390D01*
X158504031Y-87390792D01*
X158540068Y-87436259D01*
X158544762Y-87440254D01*
X158584476Y-87474053D01*
X158682618Y-87557579D01*
X158779131Y-87611518D01*
X158828836Y-87662212D01*
X158843244Y-87731731D01*
X158817780Y-87798004D01*
X158806755Y-87810601D01*
X157257995Y-89359361D01*
X157195683Y-89393387D01*
X157124868Y-89388322D01*
X157068032Y-89345775D01*
X157043221Y-89279255D01*
X157042900Y-89270266D01*
X157042900Y-87738664D01*
X157062902Y-87670543D01*
X157112089Y-87626198D01*
X157145167Y-87609489D01*
X157203921Y-87579810D01*
X157232376Y-87557579D01*
X157346571Y-87468360D01*
X157346572Y-87468360D01*
X157351427Y-87464566D01*
X157454098Y-87345620D01*
X157469709Y-87327535D01*
X157469710Y-87327533D01*
X157473738Y-87322867D01*
X157566198Y-87160108D01*
X157625283Y-86982491D01*
X157648744Y-86796780D01*
X157649118Y-86770000D01*
X157630852Y-86583706D01*
X157576749Y-86404509D01*
X157570185Y-86392163D01*
X157491764Y-86244674D01*
X157491762Y-86244671D01*
X157488870Y-86239232D01*
X157484980Y-86234462D01*
X157484977Y-86234458D01*
X157374457Y-86098948D01*
X157374454Y-86098945D01*
X157370562Y-86094173D01*
X157364862Y-86089457D01*
X157253580Y-85997397D01*
X157226332Y-85974855D01*
X157061673Y-85885824D01*
X156972265Y-85858148D01*
X156888744Y-85832294D01*
X156888741Y-85832293D01*
X156882857Y-85830472D01*
X156876732Y-85829828D01*
X156876731Y-85829828D01*
X156702824Y-85811549D01*
X156702823Y-85811549D01*
X156696696Y-85810905D01*
X156620143Y-85817872D01*
X156516418Y-85827312D01*
X156516415Y-85827313D01*
X156510279Y-85827871D01*
X156504373Y-85829609D01*
X156504369Y-85829610D01*
X156378596Y-85866627D01*
X156330708Y-85880721D01*
X156164822Y-85967444D01*
X156160022Y-85971304D01*
X156160021Y-85971304D01*
X156153066Y-85976896D01*
X156018940Y-86084736D01*
X156016388Y-86087777D01*
X155954391Y-86120791D01*
X155883633Y-86114985D01*
X155827246Y-86071845D01*
X155803134Y-86005068D01*
X155802900Y-85997397D01*
X155802900Y-85668366D01*
X155822902Y-85600245D01*
X155839805Y-85579271D01*
X156254558Y-85164518D01*
X156316870Y-85130492D01*
X156382589Y-85133780D01*
X156388154Y-85135588D01*
X156484043Y-85166744D01*
X156669914Y-85188908D01*
X156676049Y-85188436D01*
X156676051Y-85188436D01*
X156850408Y-85175020D01*
X156850413Y-85175019D01*
X156856549Y-85174547D01*
X156862479Y-85172891D01*
X156862481Y-85172891D01*
X157002561Y-85133780D01*
X157036841Y-85124209D01*
X157067148Y-85108900D01*
X157193886Y-85044879D01*
X157203921Y-85039810D01*
X157232376Y-85017579D01*
X157243554Y-85008846D01*
X158672811Y-85008846D01*
X158678946Y-85017598D01*
X158686450Y-85022814D01*
X158839552Y-85108379D01*
X158850793Y-85113290D01*
X159017602Y-85167490D01*
X159029576Y-85170123D01*
X159203745Y-85190891D01*
X159215994Y-85191148D01*
X159390878Y-85177692D01*
X159402956Y-85175562D01*
X159571886Y-85128395D01*
X159583319Y-85123961D01*
X159739875Y-85044879D01*
X159750234Y-85038305D01*
X159776683Y-85017641D01*
X159785154Y-85005825D01*
X159778618Y-84994144D01*
X159242812Y-84458338D01*
X159228868Y-84450724D01*
X159227035Y-84450855D01*
X159220420Y-84455106D01*
X158680187Y-84995339D01*
X158672811Y-85008846D01*
X157243554Y-85008846D01*
X157346571Y-84928360D01*
X157346573Y-84928358D01*
X157351427Y-84924566D01*
X157439844Y-84822134D01*
X157469709Y-84787535D01*
X157469710Y-84787533D01*
X157473738Y-84782867D01*
X157566198Y-84620108D01*
X157625283Y-84442491D01*
X157648744Y-84256780D01*
X157649118Y-84230000D01*
X157648404Y-84222715D01*
X158268779Y-84222715D01*
X158283454Y-84397488D01*
X158285669Y-84409552D01*
X158334013Y-84578148D01*
X158338531Y-84589560D01*
X158418696Y-84745543D01*
X158425350Y-84755867D01*
X158442065Y-84776957D01*
X158454057Y-84785427D01*
X158465504Y-84778970D01*
X159001662Y-84242812D01*
X159008040Y-84231132D01*
X159450724Y-84231132D01*
X159450855Y-84232965D01*
X159455106Y-84239580D01*
X159995731Y-84780205D01*
X160009357Y-84787646D01*
X160016415Y-84782736D01*
X160018997Y-84779075D01*
X160105629Y-84626575D01*
X160110623Y-84615359D01*
X160165982Y-84448944D01*
X160168702Y-84436972D01*
X160191013Y-84260360D01*
X160191505Y-84253331D01*
X160191782Y-84233505D01*
X160191489Y-84226512D01*
X160174114Y-84049312D01*
X160171731Y-84037277D01*
X160121038Y-83869375D01*
X160116364Y-83858034D01*
X160034019Y-83703166D01*
X160027239Y-83692962D01*
X160018620Y-83682394D01*
X160006277Y-83673931D01*
X159995304Y-83680222D01*
X159458338Y-84217188D01*
X159450724Y-84231132D01*
X159008040Y-84231132D01*
X159009276Y-84228868D01*
X159009145Y-84227035D01*
X159004894Y-84220420D01*
X158465020Y-83680546D01*
X158451635Y-83673237D01*
X158441708Y-83680247D01*
X158440347Y-83681870D01*
X158433409Y-83692001D01*
X158348913Y-83845699D01*
X158344085Y-83856963D01*
X158291049Y-84024154D01*
X158288501Y-84036142D01*
X158268950Y-84210446D01*
X158268779Y-84222715D01*
X157648404Y-84222715D01*
X157630852Y-84043706D01*
X157576749Y-83864509D01*
X157566748Y-83845699D01*
X157491764Y-83704674D01*
X157491762Y-83704671D01*
X157488870Y-83699232D01*
X157484980Y-83694462D01*
X157484977Y-83694458D01*
X157374457Y-83558948D01*
X157374454Y-83558945D01*
X157370562Y-83554173D01*
X157357324Y-83543221D01*
X157262911Y-83465116D01*
X157226332Y-83434855D01*
X157061673Y-83345824D01*
X157054408Y-83343575D01*
X157048238Y-83341665D01*
X156989078Y-83302415D01*
X156960530Y-83237410D01*
X156971658Y-83167291D01*
X157018929Y-83114320D01*
X157085496Y-83095300D01*
X158824296Y-83095300D01*
X158892417Y-83115302D01*
G37*
G04 #@! TD.AperFunction*
G04 #@! TA.AperFunction,Conductor*
G36*
X163972417Y-83115302D02*
G01*
X164018910Y-83168958D01*
X164029014Y-83239232D01*
X163999520Y-83303812D01*
X163951498Y-83338125D01*
X163944229Y-83341062D01*
X163788798Y-83422319D01*
X163778533Y-83429037D01*
X163762735Y-83441738D01*
X163754267Y-83453906D01*
X163760642Y-83465116D01*
X164297188Y-84001662D01*
X164311132Y-84009276D01*
X164312965Y-84009145D01*
X164319580Y-84004894D01*
X164859127Y-83465347D01*
X164866369Y-83452085D01*
X164859180Y-83441980D01*
X164852596Y-83436533D01*
X164842428Y-83429675D01*
X164688150Y-83346256D01*
X164671155Y-83339112D01*
X164671671Y-83337885D01*
X164618209Y-83302413D01*
X164589662Y-83237408D01*
X164600791Y-83167289D01*
X164648062Y-83114319D01*
X164714628Y-83095300D01*
X166451537Y-83095300D01*
X166519658Y-83115302D01*
X166566151Y-83168958D01*
X166576255Y-83239232D01*
X166546761Y-83303812D01*
X166498738Y-83338125D01*
X166496617Y-83338982D01*
X166490708Y-83340721D01*
X166485251Y-83343574D01*
X166485248Y-83343575D01*
X166465049Y-83354135D01*
X166324822Y-83427444D01*
X166320022Y-83431304D01*
X166320021Y-83431304D01*
X166310718Y-83438784D01*
X166178940Y-83544736D01*
X166058619Y-83688130D01*
X166055655Y-83693522D01*
X166055652Y-83693526D01*
X165988648Y-83815407D01*
X165968441Y-83852163D01*
X165966580Y-83858030D01*
X165966579Y-83858032D01*
X165918156Y-84010681D01*
X165911841Y-84030588D01*
X165890975Y-84216609D01*
X165893183Y-84242897D01*
X165897905Y-84299127D01*
X165906639Y-84403139D01*
X165908338Y-84409064D01*
X165946605Y-84542518D01*
X165946154Y-84613513D01*
X165914581Y-84666343D01*
X165386585Y-85194339D01*
X165371316Y-85206672D01*
X165367962Y-85209724D01*
X165359210Y-85215375D01*
X165340192Y-85239499D01*
X165336666Y-85243466D01*
X165336767Y-85243552D01*
X165333409Y-85247515D01*
X165329731Y-85251193D01*
X165319416Y-85265627D01*
X165315865Y-85270357D01*
X165313414Y-85273466D01*
X165286475Y-85307638D01*
X165283653Y-85315673D01*
X165278704Y-85322599D01*
X165275722Y-85332570D01*
X165275720Y-85332574D01*
X165265103Y-85368076D01*
X165263279Y-85373692D01*
X165247548Y-85418487D01*
X165247100Y-85423659D01*
X165247100Y-85426363D01*
X165247004Y-85428595D01*
X165246854Y-85429095D01*
X165246816Y-85429093D01*
X165246806Y-85429257D01*
X165245041Y-85435158D01*
X165245935Y-85457905D01*
X165247003Y-85485088D01*
X165247100Y-85490035D01*
X165247100Y-86054870D01*
X165227098Y-86122991D01*
X165173442Y-86169484D01*
X165103168Y-86179588D01*
X165038588Y-86150094D01*
X165023457Y-86134506D01*
X164994457Y-86098948D01*
X164994454Y-86098945D01*
X164990562Y-86094173D01*
X164984862Y-86089457D01*
X164873580Y-85997397D01*
X164846332Y-85974855D01*
X164681673Y-85885824D01*
X164592265Y-85858148D01*
X164508744Y-85832294D01*
X164508741Y-85832293D01*
X164502857Y-85830472D01*
X164496732Y-85829828D01*
X164496731Y-85829828D01*
X164322824Y-85811549D01*
X164322823Y-85811549D01*
X164316696Y-85810905D01*
X164240143Y-85817872D01*
X164136418Y-85827312D01*
X164136415Y-85827313D01*
X164130279Y-85827871D01*
X164124373Y-85829609D01*
X164124369Y-85829610D01*
X163998596Y-85866627D01*
X163950708Y-85880721D01*
X163784822Y-85967444D01*
X163780022Y-85971304D01*
X163780021Y-85971304D01*
X163773066Y-85976896D01*
X163638940Y-86084736D01*
X163518619Y-86228130D01*
X163515655Y-86233522D01*
X163515652Y-86233526D01*
X163500872Y-86260411D01*
X163428441Y-86392163D01*
X163426580Y-86398030D01*
X163426579Y-86398032D01*
X163378074Y-86550938D01*
X163371841Y-86570588D01*
X163350975Y-86756609D01*
X163353435Y-86785898D01*
X163365241Y-86926487D01*
X163366639Y-86943139D01*
X163368338Y-86949064D01*
X163406605Y-87082518D01*
X163406154Y-87153513D01*
X163374581Y-87206343D01*
X162670729Y-87910195D01*
X162608417Y-87944221D01*
X162581634Y-87947100D01*
X162023463Y-87947100D01*
X161955342Y-87927098D01*
X161908849Y-87873442D01*
X161898745Y-87803168D01*
X161928239Y-87738588D01*
X161989579Y-87699741D01*
X162057056Y-87680901D01*
X162116841Y-87664209D01*
X162134629Y-87655224D01*
X162273886Y-87584879D01*
X162283921Y-87579810D01*
X162312376Y-87557579D01*
X162426571Y-87468360D01*
X162426572Y-87468360D01*
X162431427Y-87464566D01*
X162534098Y-87345620D01*
X162549709Y-87327535D01*
X162549710Y-87327533D01*
X162553738Y-87322867D01*
X162646198Y-87160108D01*
X162705283Y-86982491D01*
X162728744Y-86796780D01*
X162729118Y-86770000D01*
X162710852Y-86583706D01*
X162656749Y-86404509D01*
X162650185Y-86392163D01*
X162571764Y-86244674D01*
X162571762Y-86244671D01*
X162568870Y-86239232D01*
X162564980Y-86234462D01*
X162564977Y-86234458D01*
X162454457Y-86098948D01*
X162454454Y-86098945D01*
X162450562Y-86094173D01*
X162444862Y-86089457D01*
X162333580Y-85997397D01*
X162306332Y-85974855D01*
X162141673Y-85885824D01*
X162052265Y-85858148D01*
X161968744Y-85832294D01*
X161968741Y-85832293D01*
X161962857Y-85830472D01*
X161956732Y-85829828D01*
X161956731Y-85829828D01*
X161782824Y-85811549D01*
X161782823Y-85811549D01*
X161776696Y-85810905D01*
X161700143Y-85817872D01*
X161596418Y-85827312D01*
X161596415Y-85827313D01*
X161590279Y-85827871D01*
X161584373Y-85829609D01*
X161584369Y-85829610D01*
X161458596Y-85866627D01*
X161410708Y-85880721D01*
X161244822Y-85967444D01*
X161240022Y-85971304D01*
X161240021Y-85971304D01*
X161233066Y-85976896D01*
X161098940Y-86084736D01*
X161094981Y-86089454D01*
X161094975Y-86089460D01*
X161065421Y-86124681D01*
X161006312Y-86164008D01*
X160935324Y-86165134D01*
X160874996Y-86127703D01*
X160844483Y-86063598D01*
X160842900Y-86043690D01*
X160842900Y-85708366D01*
X160862902Y-85640245D01*
X160879805Y-85619271D01*
X161334558Y-85164518D01*
X161396870Y-85130492D01*
X161462589Y-85133780D01*
X161468154Y-85135588D01*
X161564043Y-85166744D01*
X161749914Y-85188908D01*
X161756049Y-85188436D01*
X161756051Y-85188436D01*
X161930408Y-85175020D01*
X161930413Y-85175019D01*
X161936549Y-85174547D01*
X161942479Y-85172891D01*
X161942481Y-85172891D01*
X162082561Y-85133780D01*
X162116841Y-85124209D01*
X162147148Y-85108900D01*
X162273886Y-85044879D01*
X162283921Y-85039810D01*
X162312376Y-85017579D01*
X162323554Y-85008846D01*
X163752811Y-85008846D01*
X163758946Y-85017598D01*
X163766450Y-85022814D01*
X163919552Y-85108379D01*
X163930793Y-85113290D01*
X164097602Y-85167490D01*
X164109576Y-85170123D01*
X164283745Y-85190891D01*
X164295994Y-85191148D01*
X164470878Y-85177692D01*
X164482956Y-85175562D01*
X164651886Y-85128395D01*
X164663319Y-85123961D01*
X164819875Y-85044879D01*
X164830234Y-85038305D01*
X164856683Y-85017641D01*
X164865154Y-85005825D01*
X164858618Y-84994144D01*
X164322812Y-84458338D01*
X164308868Y-84450724D01*
X164307035Y-84450855D01*
X164300420Y-84455106D01*
X163760187Y-84995339D01*
X163752811Y-85008846D01*
X162323554Y-85008846D01*
X162426571Y-84928360D01*
X162426573Y-84928358D01*
X162431427Y-84924566D01*
X162519844Y-84822134D01*
X162549709Y-84787535D01*
X162549710Y-84787533D01*
X162553738Y-84782867D01*
X162646198Y-84620108D01*
X162705283Y-84442491D01*
X162728744Y-84256780D01*
X162729118Y-84230000D01*
X162728404Y-84222715D01*
X163348779Y-84222715D01*
X163363454Y-84397488D01*
X163365669Y-84409552D01*
X163414013Y-84578148D01*
X163418531Y-84589560D01*
X163498696Y-84745543D01*
X163505350Y-84755867D01*
X163522065Y-84776957D01*
X163534057Y-84785427D01*
X163545504Y-84778970D01*
X164081662Y-84242812D01*
X164088040Y-84231132D01*
X164530724Y-84231132D01*
X164530855Y-84232965D01*
X164535106Y-84239580D01*
X165075731Y-84780205D01*
X165089357Y-84787646D01*
X165096415Y-84782736D01*
X165098997Y-84779075D01*
X165185629Y-84626575D01*
X165190623Y-84615359D01*
X165245982Y-84448944D01*
X165248702Y-84436972D01*
X165271013Y-84260360D01*
X165271505Y-84253331D01*
X165271782Y-84233505D01*
X165271489Y-84226512D01*
X165254114Y-84049312D01*
X165251731Y-84037277D01*
X165201038Y-83869375D01*
X165196364Y-83858034D01*
X165114019Y-83703166D01*
X165107239Y-83692962D01*
X165098620Y-83682394D01*
X165086277Y-83673931D01*
X165075304Y-83680222D01*
X164538338Y-84217188D01*
X164530724Y-84231132D01*
X164088040Y-84231132D01*
X164089276Y-84228868D01*
X164089145Y-84227035D01*
X164084894Y-84220420D01*
X163545020Y-83680546D01*
X163531635Y-83673237D01*
X163521708Y-83680247D01*
X163520347Y-83681870D01*
X163513409Y-83692001D01*
X163428913Y-83845699D01*
X163424085Y-83856963D01*
X163371049Y-84024154D01*
X163368501Y-84036142D01*
X163348950Y-84210446D01*
X163348779Y-84222715D01*
X162728404Y-84222715D01*
X162710852Y-84043706D01*
X162656749Y-83864509D01*
X162646748Y-83845699D01*
X162571764Y-83704674D01*
X162571762Y-83704671D01*
X162568870Y-83699232D01*
X162564980Y-83694462D01*
X162564977Y-83694458D01*
X162454457Y-83558948D01*
X162454454Y-83558945D01*
X162450562Y-83554173D01*
X162437324Y-83543221D01*
X162342911Y-83465116D01*
X162306332Y-83434855D01*
X162141673Y-83345824D01*
X162134408Y-83343575D01*
X162128238Y-83341665D01*
X162069078Y-83302415D01*
X162040530Y-83237410D01*
X162051658Y-83167291D01*
X162098929Y-83114320D01*
X162165496Y-83095300D01*
X163904296Y-83095300D01*
X163972417Y-83115302D01*
G37*
G04 #@! TD.AperFunction*
G04 #@! TA.AperFunction,Conductor*
G36*
X138572417Y-83115302D02*
G01*
X138618910Y-83168958D01*
X138629014Y-83239232D01*
X138599520Y-83303812D01*
X138551498Y-83338125D01*
X138544229Y-83341062D01*
X138388798Y-83422319D01*
X138378533Y-83429037D01*
X138362735Y-83441738D01*
X138354267Y-83453906D01*
X138360642Y-83465116D01*
X138897188Y-84001662D01*
X138911132Y-84009276D01*
X138912965Y-84009145D01*
X138919580Y-84004894D01*
X139459127Y-83465347D01*
X139466369Y-83452085D01*
X139459180Y-83441980D01*
X139452596Y-83436533D01*
X139442428Y-83429675D01*
X139288150Y-83346256D01*
X139271155Y-83339112D01*
X139271671Y-83337885D01*
X139218209Y-83302413D01*
X139189662Y-83237408D01*
X139200791Y-83167289D01*
X139248062Y-83114319D01*
X139314628Y-83095300D01*
X141051537Y-83095300D01*
X141119658Y-83115302D01*
X141166151Y-83168958D01*
X141176255Y-83239232D01*
X141146761Y-83303812D01*
X141098738Y-83338125D01*
X141096617Y-83338982D01*
X141090708Y-83340721D01*
X141085251Y-83343574D01*
X141085248Y-83343575D01*
X141065049Y-83354135D01*
X140924822Y-83427444D01*
X140920022Y-83431304D01*
X140920021Y-83431304D01*
X140910718Y-83438784D01*
X140778940Y-83544736D01*
X140658619Y-83688130D01*
X140655655Y-83693522D01*
X140655652Y-83693526D01*
X140588648Y-83815407D01*
X140568441Y-83852163D01*
X140566580Y-83858030D01*
X140566579Y-83858032D01*
X140518156Y-84010681D01*
X140511841Y-84030588D01*
X140490975Y-84216609D01*
X140493183Y-84242897D01*
X140497905Y-84299127D01*
X140506639Y-84403139D01*
X140508338Y-84409064D01*
X140555043Y-84571942D01*
X140558235Y-84583075D01*
X140561050Y-84588552D01*
X140561051Y-84588555D01*
X140610636Y-84685037D01*
X140643797Y-84749562D01*
X140647620Y-84754386D01*
X140647623Y-84754390D01*
X140738554Y-84869115D01*
X140760068Y-84896259D01*
X140804589Y-84934149D01*
X140817510Y-84945146D01*
X140856423Y-85004529D01*
X140857054Y-85075523D01*
X140819202Y-85135588D01*
X140754886Y-85165653D01*
X140735847Y-85167100D01*
X139590253Y-85167100D01*
X139522132Y-85147098D01*
X139475639Y-85093442D01*
X139464415Y-85034705D01*
X139465822Y-85007019D01*
X139458618Y-84994144D01*
X138922812Y-84458338D01*
X138908868Y-84450724D01*
X138907035Y-84450855D01*
X138900420Y-84455106D01*
X138360187Y-84995339D01*
X138352572Y-85009284D01*
X138354205Y-85032112D01*
X138339113Y-85101486D01*
X138288911Y-85151688D01*
X138228526Y-85167100D01*
X137086927Y-85167100D01*
X137018806Y-85147098D01*
X136972313Y-85093442D01*
X136962209Y-85023168D01*
X136991703Y-84958588D01*
X137009352Y-84941813D01*
X137031427Y-84924566D01*
X137119844Y-84822134D01*
X137149709Y-84787535D01*
X137149710Y-84787533D01*
X137153738Y-84782867D01*
X137246198Y-84620108D01*
X137305283Y-84442491D01*
X137328744Y-84256780D01*
X137329118Y-84230000D01*
X137328404Y-84222715D01*
X137948779Y-84222715D01*
X137963454Y-84397488D01*
X137965669Y-84409552D01*
X138014013Y-84578148D01*
X138018531Y-84589560D01*
X138098696Y-84745543D01*
X138105350Y-84755867D01*
X138122065Y-84776957D01*
X138134057Y-84785427D01*
X138145504Y-84778970D01*
X138681662Y-84242812D01*
X138688040Y-84231132D01*
X139130724Y-84231132D01*
X139130855Y-84232965D01*
X139135106Y-84239580D01*
X139675731Y-84780205D01*
X139689357Y-84787646D01*
X139696415Y-84782736D01*
X139698997Y-84779075D01*
X139785629Y-84626575D01*
X139790623Y-84615359D01*
X139845982Y-84448944D01*
X139848702Y-84436972D01*
X139871013Y-84260360D01*
X139871505Y-84253331D01*
X139871782Y-84233505D01*
X139871489Y-84226512D01*
X139854114Y-84049312D01*
X139851731Y-84037277D01*
X139801038Y-83869375D01*
X139796364Y-83858034D01*
X139714019Y-83703166D01*
X139707239Y-83692962D01*
X139698620Y-83682394D01*
X139686277Y-83673931D01*
X139675304Y-83680222D01*
X139138338Y-84217188D01*
X139130724Y-84231132D01*
X138688040Y-84231132D01*
X138689276Y-84228868D01*
X138689145Y-84227035D01*
X138684894Y-84220420D01*
X138145020Y-83680546D01*
X138131635Y-83673237D01*
X138121708Y-83680247D01*
X138120347Y-83681870D01*
X138113409Y-83692001D01*
X138028913Y-83845699D01*
X138024085Y-83856963D01*
X137971049Y-84024154D01*
X137968501Y-84036142D01*
X137948950Y-84210446D01*
X137948779Y-84222715D01*
X137328404Y-84222715D01*
X137310852Y-84043706D01*
X137256749Y-83864509D01*
X137246748Y-83845699D01*
X137171764Y-83704674D01*
X137171762Y-83704671D01*
X137168870Y-83699232D01*
X137164980Y-83694462D01*
X137164977Y-83694458D01*
X137054457Y-83558948D01*
X137054454Y-83558945D01*
X137050562Y-83554173D01*
X137037324Y-83543221D01*
X136942911Y-83465116D01*
X136906332Y-83434855D01*
X136741673Y-83345824D01*
X136734408Y-83343575D01*
X136728238Y-83341665D01*
X136669078Y-83302415D01*
X136640530Y-83237410D01*
X136651658Y-83167291D01*
X136698929Y-83114320D01*
X136765496Y-83095300D01*
X138504296Y-83095300D01*
X138572417Y-83115302D01*
G37*
G04 #@! TD.AperFunction*
M02*
