%FSLAX45Y45*%
G04 Gerber Fmt 4.5, Leading zero omitted, Abs format (unit mm)*
G04 Created by KiCad (PCBNEW (6.0.4)) date 2022-08-30 22:22:18*
%MOMM*%
%LPD*%
G01*
G04 APERTURE LIST*
%ADD10C,0.200000*%
%ADD11C,0.065000*%
%ADD12C,0.320000*%
G04 APERTURE END LIST*
D10*
D11*
X16525500Y-10579500D02*
X16590500Y-10644500D01*
X16590500Y-10579500D02*
X16525500Y-10644500D01*
X17103500Y-10579500D02*
X17168500Y-10644500D01*
X17168500Y-10579500D02*
X17103500Y-10644500D01*
D12*
X12040000Y-8550000D02*
G75*
G03*
X12040000Y-8550000I-160000J0D01*
G01*
X12040000Y-10850000D02*
G75*
G03*
X12040000Y-10850000I-160000J0D01*
G01*
X17840000Y-8550000D02*
G75*
G03*
X17840000Y-8550000I-160000J0D01*
G01*
X17840000Y-10850000D02*
G75*
G03*
X17840000Y-10850000I-160000J0D01*
G01*
D10*
X11781480Y-11516476D02*
X11781480Y-11316476D01*
X11829099Y-11316476D01*
X11857671Y-11326000D01*
X11876718Y-11345048D01*
X11886242Y-11364095D01*
X11895766Y-11402190D01*
X11895766Y-11430762D01*
X11886242Y-11468857D01*
X11876718Y-11487905D01*
X11857671Y-11506952D01*
X11829099Y-11516476D01*
X11781480Y-11516476D01*
X11981480Y-11516476D02*
X11981480Y-11383143D01*
X11981480Y-11421238D02*
X11991004Y-11402190D01*
X12000528Y-11392667D01*
X12019575Y-11383143D01*
X12038623Y-11383143D01*
X12105290Y-11516476D02*
X12105290Y-11383143D01*
X12105290Y-11316476D02*
X12095766Y-11326000D01*
X12105290Y-11335524D01*
X12114813Y-11326000D01*
X12105290Y-11316476D01*
X12105290Y-11335524D01*
X12229099Y-11516476D02*
X12210051Y-11506952D01*
X12200528Y-11487905D01*
X12200528Y-11316476D01*
X12333861Y-11516476D02*
X12314813Y-11506952D01*
X12305290Y-11487905D01*
X12305290Y-11316476D01*
X12562432Y-11516476D02*
X12562432Y-11316476D01*
X12629099Y-11459333D01*
X12695766Y-11316476D01*
X12695766Y-11516476D01*
X12876718Y-11516476D02*
X12876718Y-11411714D01*
X12867194Y-11392667D01*
X12848147Y-11383143D01*
X12810051Y-11383143D01*
X12791004Y-11392667D01*
X12876718Y-11506952D02*
X12857671Y-11516476D01*
X12810051Y-11516476D01*
X12791004Y-11506952D01*
X12781480Y-11487905D01*
X12781480Y-11468857D01*
X12791004Y-11449809D01*
X12810051Y-11440286D01*
X12857671Y-11440286D01*
X12876718Y-11430762D01*
X12971956Y-11383143D02*
X12971956Y-11583143D01*
X12971956Y-11392667D02*
X12991004Y-11383143D01*
X13029099Y-11383143D01*
X13048147Y-11392667D01*
X13057671Y-11402190D01*
X13067194Y-11421238D01*
X13067194Y-11478381D01*
X13057671Y-11497428D01*
X13048147Y-11506952D01*
X13029099Y-11516476D01*
X12991004Y-11516476D01*
X12971956Y-11506952D01*
X13152909Y-11497428D02*
X13162432Y-11506952D01*
X13152909Y-11516476D01*
X13143385Y-11506952D01*
X13152909Y-11497428D01*
X13152909Y-11516476D01*
X13152909Y-11392667D02*
X13162432Y-11402190D01*
X13152909Y-11411714D01*
X13143385Y-11402190D01*
X13152909Y-11392667D01*
X13152909Y-11411714D01*
D11*
X11458861Y-11813500D02*
X11523861Y-11878500D01*
X11523861Y-11813500D02*
X11458861Y-11878500D01*
D10*
X11819575Y-11736476D02*
X11838623Y-11736476D01*
X11857671Y-11746000D01*
X11867194Y-11755524D01*
X11876718Y-11774571D01*
X11886242Y-11812667D01*
X11886242Y-11860286D01*
X11876718Y-11898381D01*
X11867194Y-11917428D01*
X11857671Y-11926952D01*
X11838623Y-11936476D01*
X11819575Y-11936476D01*
X11800528Y-11926952D01*
X11791004Y-11917428D01*
X11781480Y-11898381D01*
X11771956Y-11860286D01*
X11771956Y-11812667D01*
X11781480Y-11774571D01*
X11791004Y-11755524D01*
X11800528Y-11746000D01*
X11819575Y-11736476D01*
X11971956Y-11917428D02*
X11981480Y-11926952D01*
X11971956Y-11936476D01*
X11962432Y-11926952D01*
X11971956Y-11917428D01*
X11971956Y-11936476D01*
X12152909Y-11736476D02*
X12114813Y-11736476D01*
X12095766Y-11746000D01*
X12086242Y-11755524D01*
X12067194Y-11784095D01*
X12057671Y-11822190D01*
X12057671Y-11898381D01*
X12067194Y-11917428D01*
X12076718Y-11926952D01*
X12095766Y-11936476D01*
X12133861Y-11936476D01*
X12152909Y-11926952D01*
X12162432Y-11917428D01*
X12171956Y-11898381D01*
X12171956Y-11850762D01*
X12162432Y-11831714D01*
X12152909Y-11822190D01*
X12133861Y-11812667D01*
X12095766Y-11812667D01*
X12076718Y-11822190D01*
X12067194Y-11831714D01*
X12057671Y-11850762D01*
X12352909Y-11736476D02*
X12257671Y-11736476D01*
X12248147Y-11831714D01*
X12257671Y-11822190D01*
X12276718Y-11812667D01*
X12324337Y-11812667D01*
X12343385Y-11822190D01*
X12352909Y-11831714D01*
X12362432Y-11850762D01*
X12362432Y-11898381D01*
X12352909Y-11917428D01*
X12343385Y-11926952D01*
X12324337Y-11936476D01*
X12276718Y-11936476D01*
X12257671Y-11926952D01*
X12248147Y-11917428D01*
X12486242Y-11736476D02*
X12505290Y-11736476D01*
X12524337Y-11746000D01*
X12533861Y-11755524D01*
X12543385Y-11774571D01*
X12552909Y-11812667D01*
X12552909Y-11860286D01*
X12543385Y-11898381D01*
X12533861Y-11917428D01*
X12524337Y-11926952D01*
X12505290Y-11936476D01*
X12486242Y-11936476D01*
X12467194Y-11926952D01*
X12457671Y-11917428D01*
X12448147Y-11898381D01*
X12438623Y-11860286D01*
X12438623Y-11812667D01*
X12448147Y-11774571D01*
X12457671Y-11755524D01*
X12467194Y-11746000D01*
X12486242Y-11736476D01*
X12638623Y-11936476D02*
X12638623Y-11803143D01*
X12638623Y-11822190D02*
X12648147Y-11812667D01*
X12667194Y-11803143D01*
X12695766Y-11803143D01*
X12714813Y-11812667D01*
X12724337Y-11831714D01*
X12724337Y-11936476D01*
X12724337Y-11831714D02*
X12733861Y-11812667D01*
X12752909Y-11803143D01*
X12781480Y-11803143D01*
X12800528Y-11812667D01*
X12810051Y-11831714D01*
X12810051Y-11936476D01*
X12905290Y-11936476D02*
X12905290Y-11803143D01*
X12905290Y-11822190D02*
X12914813Y-11812667D01*
X12933861Y-11803143D01*
X12962432Y-11803143D01*
X12981480Y-11812667D01*
X12991004Y-11831714D01*
X12991004Y-11936476D01*
X12991004Y-11831714D02*
X13000528Y-11812667D01*
X13019575Y-11803143D01*
X13048147Y-11803143D01*
X13067194Y-11812667D01*
X13076718Y-11831714D01*
X13076718Y-11936476D01*
X13467194Y-11726952D02*
X13295766Y-11984095D01*
X13724337Y-11736476D02*
X13743385Y-11736476D01*
X13762432Y-11746000D01*
X13771956Y-11755524D01*
X13781480Y-11774571D01*
X13791004Y-11812667D01*
X13791004Y-11860286D01*
X13781480Y-11898381D01*
X13771956Y-11917428D01*
X13762432Y-11926952D01*
X13743385Y-11936476D01*
X13724337Y-11936476D01*
X13705290Y-11926952D01*
X13695766Y-11917428D01*
X13686242Y-11898381D01*
X13676718Y-11860286D01*
X13676718Y-11812667D01*
X13686242Y-11774571D01*
X13695766Y-11755524D01*
X13705290Y-11746000D01*
X13724337Y-11736476D01*
X13876718Y-11917428D02*
X13886242Y-11926952D01*
X13876718Y-11936476D01*
X13867194Y-11926952D01*
X13876718Y-11917428D01*
X13876718Y-11936476D01*
X14010051Y-11736476D02*
X14029099Y-11736476D01*
X14048147Y-11746000D01*
X14057671Y-11755524D01*
X14067194Y-11774571D01*
X14076718Y-11812667D01*
X14076718Y-11860286D01*
X14067194Y-11898381D01*
X14057671Y-11917428D01*
X14048147Y-11926952D01*
X14029099Y-11936476D01*
X14010051Y-11936476D01*
X13991004Y-11926952D01*
X13981480Y-11917428D01*
X13971956Y-11898381D01*
X13962432Y-11860286D01*
X13962432Y-11812667D01*
X13971956Y-11774571D01*
X13981480Y-11755524D01*
X13991004Y-11746000D01*
X14010051Y-11736476D01*
X14152909Y-11755524D02*
X14162432Y-11746000D01*
X14181480Y-11736476D01*
X14229099Y-11736476D01*
X14248147Y-11746000D01*
X14257671Y-11755524D01*
X14267194Y-11774571D01*
X14267194Y-11793619D01*
X14257671Y-11822190D01*
X14143385Y-11936476D01*
X14267194Y-11936476D01*
X14448147Y-11736476D02*
X14352909Y-11736476D01*
X14343385Y-11831714D01*
X14352909Y-11822190D01*
X14371956Y-11812667D01*
X14419575Y-11812667D01*
X14438623Y-11822190D01*
X14448147Y-11831714D01*
X14457671Y-11850762D01*
X14457671Y-11898381D01*
X14448147Y-11917428D01*
X14438623Y-11926952D01*
X14419575Y-11936476D01*
X14371956Y-11936476D01*
X14352909Y-11926952D01*
X14343385Y-11917428D01*
X14629099Y-11736476D02*
X14591004Y-11736476D01*
X14571956Y-11746000D01*
X14562432Y-11755524D01*
X14543385Y-11784095D01*
X14533861Y-11822190D01*
X14533861Y-11898381D01*
X14543385Y-11917428D01*
X14552909Y-11926952D01*
X14571956Y-11936476D01*
X14610051Y-11936476D01*
X14629099Y-11926952D01*
X14638623Y-11917428D01*
X14648147Y-11898381D01*
X14648147Y-11850762D01*
X14638623Y-11831714D01*
X14629099Y-11822190D01*
X14610051Y-11812667D01*
X14571956Y-11812667D01*
X14552909Y-11822190D01*
X14543385Y-11831714D01*
X14533861Y-11850762D01*
X14724337Y-11736476D02*
X14724337Y-11774571D01*
X14800528Y-11736476D02*
X14800528Y-11774571D01*
X15095766Y-12012667D02*
X15086242Y-12003143D01*
X15067194Y-11974571D01*
X15057671Y-11955524D01*
X15048147Y-11926952D01*
X15038623Y-11879333D01*
X15038623Y-11841238D01*
X15048147Y-11793619D01*
X15057671Y-11765048D01*
X15067194Y-11746000D01*
X15086242Y-11717428D01*
X15095766Y-11707905D01*
X15162432Y-11755524D02*
X15171956Y-11746000D01*
X15191004Y-11736476D01*
X15238623Y-11736476D01*
X15257671Y-11746000D01*
X15267194Y-11755524D01*
X15276718Y-11774571D01*
X15276718Y-11793619D01*
X15267194Y-11822190D01*
X15152909Y-11936476D01*
X15276718Y-11936476D01*
X15514813Y-11936476D02*
X15514813Y-11736476D01*
X15600528Y-11936476D02*
X15600528Y-11831714D01*
X15591004Y-11812667D01*
X15571956Y-11803143D01*
X15543385Y-11803143D01*
X15524337Y-11812667D01*
X15514813Y-11822190D01*
X15724337Y-11936476D02*
X15705290Y-11926952D01*
X15695766Y-11917428D01*
X15686242Y-11898381D01*
X15686242Y-11841238D01*
X15695766Y-11822190D01*
X15705290Y-11812667D01*
X15724337Y-11803143D01*
X15752909Y-11803143D01*
X15771956Y-11812667D01*
X15781480Y-11822190D01*
X15791004Y-11841238D01*
X15791004Y-11898381D01*
X15781480Y-11917428D01*
X15771956Y-11926952D01*
X15752909Y-11936476D01*
X15724337Y-11936476D01*
X15905290Y-11936476D02*
X15886242Y-11926952D01*
X15876718Y-11907905D01*
X15876718Y-11736476D01*
X16057671Y-11926952D02*
X16038623Y-11936476D01*
X16000528Y-11936476D01*
X15981480Y-11926952D01*
X15971956Y-11907905D01*
X15971956Y-11831714D01*
X15981480Y-11812667D01*
X16000528Y-11803143D01*
X16038623Y-11803143D01*
X16057671Y-11812667D01*
X16067194Y-11831714D01*
X16067194Y-11850762D01*
X15971956Y-11869809D01*
X16143385Y-11926952D02*
X16162432Y-11936476D01*
X16200528Y-11936476D01*
X16219575Y-11926952D01*
X16229099Y-11907905D01*
X16229099Y-11898381D01*
X16219575Y-11879333D01*
X16200528Y-11869809D01*
X16171956Y-11869809D01*
X16152909Y-11860286D01*
X16143385Y-11841238D01*
X16143385Y-11831714D01*
X16152909Y-11812667D01*
X16171956Y-11803143D01*
X16200528Y-11803143D01*
X16219575Y-11812667D01*
X16295766Y-12012667D02*
X16305290Y-12003143D01*
X16324337Y-11974571D01*
X16333861Y-11955524D01*
X16343385Y-11926952D01*
X16352909Y-11879333D01*
X16352909Y-11841238D01*
X16343385Y-11793619D01*
X16333861Y-11765048D01*
X16324337Y-11746000D01*
X16305290Y-11717428D01*
X16295766Y-11707905D01*
X16657671Y-12012667D02*
X16648147Y-12003143D01*
X16629099Y-11974571D01*
X16619575Y-11955524D01*
X16610051Y-11926952D01*
X16600528Y-11879333D01*
X16600528Y-11841238D01*
X16610051Y-11793619D01*
X16619575Y-11765048D01*
X16629099Y-11746000D01*
X16648147Y-11717428D01*
X16657671Y-11707905D01*
X16733861Y-11803143D02*
X16733861Y-11936476D01*
X16733861Y-11822190D02*
X16743385Y-11812667D01*
X16762432Y-11803143D01*
X16791004Y-11803143D01*
X16810052Y-11812667D01*
X16819575Y-11831714D01*
X16819575Y-11936476D01*
X16943385Y-11936476D02*
X16924337Y-11926952D01*
X16914813Y-11917428D01*
X16905290Y-11898381D01*
X16905290Y-11841238D01*
X16914813Y-11822190D01*
X16924337Y-11812667D01*
X16943385Y-11803143D01*
X16971956Y-11803143D01*
X16991004Y-11812667D01*
X17000528Y-11822190D01*
X17010052Y-11841238D01*
X17010052Y-11898381D01*
X17000528Y-11917428D01*
X16991004Y-11926952D01*
X16971956Y-11936476D01*
X16943385Y-11936476D01*
X17067194Y-11803143D02*
X17143385Y-11803143D01*
X17095766Y-11736476D02*
X17095766Y-11907905D01*
X17105290Y-11926952D01*
X17124337Y-11936476D01*
X17143385Y-11936476D01*
X17362433Y-11803143D02*
X17362433Y-12003143D01*
X17362433Y-11812667D02*
X17381480Y-11803143D01*
X17419575Y-11803143D01*
X17438623Y-11812667D01*
X17448147Y-11822190D01*
X17457671Y-11841238D01*
X17457671Y-11898381D01*
X17448147Y-11917428D01*
X17438623Y-11926952D01*
X17419575Y-11936476D01*
X17381480Y-11936476D01*
X17362433Y-11926952D01*
X17571956Y-11936476D02*
X17552909Y-11926952D01*
X17543385Y-11907905D01*
X17543385Y-11736476D01*
X17733861Y-11936476D02*
X17733861Y-11831714D01*
X17724337Y-11812667D01*
X17705290Y-11803143D01*
X17667194Y-11803143D01*
X17648147Y-11812667D01*
X17733861Y-11926952D02*
X17714813Y-11936476D01*
X17667194Y-11936476D01*
X17648147Y-11926952D01*
X17638623Y-11907905D01*
X17638623Y-11888857D01*
X17648147Y-11869809D01*
X17667194Y-11860286D01*
X17714813Y-11860286D01*
X17733861Y-11850762D01*
X17800528Y-11803143D02*
X17876718Y-11803143D01*
X17829099Y-11736476D02*
X17829099Y-11907905D01*
X17838623Y-11926952D01*
X17857671Y-11936476D01*
X17876718Y-11936476D01*
X18019575Y-11926952D02*
X18000528Y-11936476D01*
X17962433Y-11936476D01*
X17943385Y-11926952D01*
X17933861Y-11907905D01*
X17933861Y-11831714D01*
X17943385Y-11812667D01*
X17962433Y-11803143D01*
X18000528Y-11803143D01*
X18019575Y-11812667D01*
X18029099Y-11831714D01*
X18029099Y-11850762D01*
X17933861Y-11869809D01*
X18200528Y-11936476D02*
X18200528Y-11736476D01*
X18200528Y-11926952D02*
X18181480Y-11936476D01*
X18143385Y-11936476D01*
X18124337Y-11926952D01*
X18114813Y-11917428D01*
X18105290Y-11898381D01*
X18105290Y-11841238D01*
X18114813Y-11822190D01*
X18124337Y-11812667D01*
X18143385Y-11803143D01*
X18181480Y-11803143D01*
X18200528Y-11812667D01*
X18276718Y-12012667D02*
X18286242Y-12003143D01*
X18305290Y-11974571D01*
X18314813Y-11955524D01*
X18324337Y-11926952D01*
X18333861Y-11879333D01*
X18333861Y-11841238D01*
X18324337Y-11793619D01*
X18314813Y-11765048D01*
X18305290Y-11746000D01*
X18286242Y-11717428D01*
X18276718Y-11707905D01*
X11523861Y-12110000D02*
G75*
G03*
X11523861Y-12110000I-100000J0D01*
G01*
X11762432Y-12000476D02*
X11886242Y-12000476D01*
X11819575Y-12076667D01*
X11848147Y-12076667D01*
X11867194Y-12086190D01*
X11876718Y-12095714D01*
X11886242Y-12114762D01*
X11886242Y-12162381D01*
X11876718Y-12181428D01*
X11867194Y-12190952D01*
X11848147Y-12200476D01*
X11791004Y-12200476D01*
X11771956Y-12190952D01*
X11762432Y-12181428D01*
X11971956Y-12181428D02*
X11981480Y-12190952D01*
X11971956Y-12200476D01*
X11962432Y-12190952D01*
X11971956Y-12181428D01*
X11971956Y-12200476D01*
X12057671Y-12019524D02*
X12067194Y-12010000D01*
X12086242Y-12000476D01*
X12133861Y-12000476D01*
X12152909Y-12010000D01*
X12162432Y-12019524D01*
X12171956Y-12038571D01*
X12171956Y-12057619D01*
X12162432Y-12086190D01*
X12048147Y-12200476D01*
X12171956Y-12200476D01*
X12295766Y-12000476D02*
X12314813Y-12000476D01*
X12333861Y-12010000D01*
X12343385Y-12019524D01*
X12352909Y-12038571D01*
X12362432Y-12076667D01*
X12362432Y-12124286D01*
X12352909Y-12162381D01*
X12343385Y-12181428D01*
X12333861Y-12190952D01*
X12314813Y-12200476D01*
X12295766Y-12200476D01*
X12276718Y-12190952D01*
X12267194Y-12181428D01*
X12257671Y-12162381D01*
X12248147Y-12124286D01*
X12248147Y-12076667D01*
X12257671Y-12038571D01*
X12267194Y-12019524D01*
X12276718Y-12010000D01*
X12295766Y-12000476D01*
X12486242Y-12000476D02*
X12505290Y-12000476D01*
X12524337Y-12010000D01*
X12533861Y-12019524D01*
X12543385Y-12038571D01*
X12552909Y-12076667D01*
X12552909Y-12124286D01*
X12543385Y-12162381D01*
X12533861Y-12181428D01*
X12524337Y-12190952D01*
X12505290Y-12200476D01*
X12486242Y-12200476D01*
X12467194Y-12190952D01*
X12457671Y-12181428D01*
X12448147Y-12162381D01*
X12438623Y-12124286D01*
X12438623Y-12076667D01*
X12448147Y-12038571D01*
X12457671Y-12019524D01*
X12467194Y-12010000D01*
X12486242Y-12000476D01*
X12638623Y-12200476D02*
X12638623Y-12067143D01*
X12638623Y-12086190D02*
X12648147Y-12076667D01*
X12667194Y-12067143D01*
X12695766Y-12067143D01*
X12714813Y-12076667D01*
X12724337Y-12095714D01*
X12724337Y-12200476D01*
X12724337Y-12095714D02*
X12733861Y-12076667D01*
X12752909Y-12067143D01*
X12781480Y-12067143D01*
X12800528Y-12076667D01*
X12810051Y-12095714D01*
X12810051Y-12200476D01*
X12905290Y-12200476D02*
X12905290Y-12067143D01*
X12905290Y-12086190D02*
X12914813Y-12076667D01*
X12933861Y-12067143D01*
X12962432Y-12067143D01*
X12981480Y-12076667D01*
X12991004Y-12095714D01*
X12991004Y-12200476D01*
X12991004Y-12095714D02*
X13000528Y-12076667D01*
X13019575Y-12067143D01*
X13048147Y-12067143D01*
X13067194Y-12076667D01*
X13076718Y-12095714D01*
X13076718Y-12200476D01*
X13467194Y-11990952D02*
X13295766Y-12248095D01*
X13724337Y-12000476D02*
X13743385Y-12000476D01*
X13762432Y-12010000D01*
X13771956Y-12019524D01*
X13781480Y-12038571D01*
X13791004Y-12076667D01*
X13791004Y-12124286D01*
X13781480Y-12162381D01*
X13771956Y-12181428D01*
X13762432Y-12190952D01*
X13743385Y-12200476D01*
X13724337Y-12200476D01*
X13705290Y-12190952D01*
X13695766Y-12181428D01*
X13686242Y-12162381D01*
X13676718Y-12124286D01*
X13676718Y-12076667D01*
X13686242Y-12038571D01*
X13695766Y-12019524D01*
X13705290Y-12010000D01*
X13724337Y-12000476D01*
X13876718Y-12181428D02*
X13886242Y-12190952D01*
X13876718Y-12200476D01*
X13867194Y-12190952D01*
X13876718Y-12181428D01*
X13876718Y-12200476D01*
X14076718Y-12200476D02*
X13962432Y-12200476D01*
X14019575Y-12200476D02*
X14019575Y-12000476D01*
X14000528Y-12029048D01*
X13981480Y-12048095D01*
X13962432Y-12057619D01*
X14152909Y-12019524D02*
X14162432Y-12010000D01*
X14181480Y-12000476D01*
X14229099Y-12000476D01*
X14248147Y-12010000D01*
X14257671Y-12019524D01*
X14267194Y-12038571D01*
X14267194Y-12057619D01*
X14257671Y-12086190D01*
X14143385Y-12200476D01*
X14267194Y-12200476D01*
X14438623Y-12000476D02*
X14400528Y-12000476D01*
X14381480Y-12010000D01*
X14371956Y-12019524D01*
X14352909Y-12048095D01*
X14343385Y-12086190D01*
X14343385Y-12162381D01*
X14352909Y-12181428D01*
X14362432Y-12190952D01*
X14381480Y-12200476D01*
X14419575Y-12200476D01*
X14438623Y-12190952D01*
X14448147Y-12181428D01*
X14457671Y-12162381D01*
X14457671Y-12114762D01*
X14448147Y-12095714D01*
X14438623Y-12086190D01*
X14419575Y-12076667D01*
X14381480Y-12076667D01*
X14362432Y-12086190D01*
X14352909Y-12095714D01*
X14343385Y-12114762D01*
X14581480Y-12000476D02*
X14600528Y-12000476D01*
X14619575Y-12010000D01*
X14629099Y-12019524D01*
X14638623Y-12038571D01*
X14648147Y-12076667D01*
X14648147Y-12124286D01*
X14638623Y-12162381D01*
X14629099Y-12181428D01*
X14619575Y-12190952D01*
X14600528Y-12200476D01*
X14581480Y-12200476D01*
X14562432Y-12190952D01*
X14552909Y-12181428D01*
X14543385Y-12162381D01*
X14533861Y-12124286D01*
X14533861Y-12076667D01*
X14543385Y-12038571D01*
X14552909Y-12019524D01*
X14562432Y-12010000D01*
X14581480Y-12000476D01*
X14724337Y-12000476D02*
X14724337Y-12038571D01*
X14800528Y-12000476D02*
X14800528Y-12038571D01*
X15095766Y-12276667D02*
X15086242Y-12267143D01*
X15067194Y-12238571D01*
X15057671Y-12219524D01*
X15048147Y-12190952D01*
X15038623Y-12143333D01*
X15038623Y-12105238D01*
X15048147Y-12057619D01*
X15057671Y-12029048D01*
X15067194Y-12010000D01*
X15086242Y-11981428D01*
X15095766Y-11971905D01*
X15257671Y-12067143D02*
X15257671Y-12200476D01*
X15210051Y-11990952D02*
X15162432Y-12133809D01*
X15286242Y-12133809D01*
X15514813Y-12200476D02*
X15514813Y-12000476D01*
X15600528Y-12200476D02*
X15600528Y-12095714D01*
X15591004Y-12076667D01*
X15571956Y-12067143D01*
X15543385Y-12067143D01*
X15524337Y-12076667D01*
X15514813Y-12086190D01*
X15724337Y-12200476D02*
X15705290Y-12190952D01*
X15695766Y-12181428D01*
X15686242Y-12162381D01*
X15686242Y-12105238D01*
X15695766Y-12086190D01*
X15705290Y-12076667D01*
X15724337Y-12067143D01*
X15752909Y-12067143D01*
X15771956Y-12076667D01*
X15781480Y-12086190D01*
X15791004Y-12105238D01*
X15791004Y-12162381D01*
X15781480Y-12181428D01*
X15771956Y-12190952D01*
X15752909Y-12200476D01*
X15724337Y-12200476D01*
X15905290Y-12200476D02*
X15886242Y-12190952D01*
X15876718Y-12171905D01*
X15876718Y-12000476D01*
X16057671Y-12190952D02*
X16038623Y-12200476D01*
X16000528Y-12200476D01*
X15981480Y-12190952D01*
X15971956Y-12171905D01*
X15971956Y-12095714D01*
X15981480Y-12076667D01*
X16000528Y-12067143D01*
X16038623Y-12067143D01*
X16057671Y-12076667D01*
X16067194Y-12095714D01*
X16067194Y-12114762D01*
X15971956Y-12133809D01*
X16143385Y-12190952D02*
X16162432Y-12200476D01*
X16200528Y-12200476D01*
X16219575Y-12190952D01*
X16229099Y-12171905D01*
X16229099Y-12162381D01*
X16219575Y-12143333D01*
X16200528Y-12133809D01*
X16171956Y-12133809D01*
X16152909Y-12124286D01*
X16143385Y-12105238D01*
X16143385Y-12095714D01*
X16152909Y-12076667D01*
X16171956Y-12067143D01*
X16200528Y-12067143D01*
X16219575Y-12076667D01*
X16295766Y-12276667D02*
X16305290Y-12267143D01*
X16324337Y-12238571D01*
X16333861Y-12219524D01*
X16343385Y-12190952D01*
X16352909Y-12143333D01*
X16352909Y-12105238D01*
X16343385Y-12057619D01*
X16333861Y-12029048D01*
X16324337Y-12010000D01*
X16305290Y-11981428D01*
X16295766Y-11971905D01*
X16657671Y-12276667D02*
X16648147Y-12267143D01*
X16629099Y-12238571D01*
X16619575Y-12219524D01*
X16610051Y-12190952D01*
X16600528Y-12143333D01*
X16600528Y-12105238D01*
X16610051Y-12057619D01*
X16619575Y-12029048D01*
X16629099Y-12010000D01*
X16648147Y-11981428D01*
X16657671Y-11971905D01*
X16733861Y-12067143D02*
X16733861Y-12200476D01*
X16733861Y-12086190D02*
X16743385Y-12076667D01*
X16762432Y-12067143D01*
X16791004Y-12067143D01*
X16810052Y-12076667D01*
X16819575Y-12095714D01*
X16819575Y-12200476D01*
X16943385Y-12200476D02*
X16924337Y-12190952D01*
X16914813Y-12181428D01*
X16905290Y-12162381D01*
X16905290Y-12105238D01*
X16914813Y-12086190D01*
X16924337Y-12076667D01*
X16943385Y-12067143D01*
X16971956Y-12067143D01*
X16991004Y-12076667D01*
X17000528Y-12086190D01*
X17010052Y-12105238D01*
X17010052Y-12162381D01*
X17000528Y-12181428D01*
X16991004Y-12190952D01*
X16971956Y-12200476D01*
X16943385Y-12200476D01*
X17067194Y-12067143D02*
X17143385Y-12067143D01*
X17095766Y-12000476D02*
X17095766Y-12171905D01*
X17105290Y-12190952D01*
X17124337Y-12200476D01*
X17143385Y-12200476D01*
X17362433Y-12067143D02*
X17362433Y-12267143D01*
X17362433Y-12076667D02*
X17381480Y-12067143D01*
X17419575Y-12067143D01*
X17438623Y-12076667D01*
X17448147Y-12086190D01*
X17457671Y-12105238D01*
X17457671Y-12162381D01*
X17448147Y-12181428D01*
X17438623Y-12190952D01*
X17419575Y-12200476D01*
X17381480Y-12200476D01*
X17362433Y-12190952D01*
X17571956Y-12200476D02*
X17552909Y-12190952D01*
X17543385Y-12171905D01*
X17543385Y-12000476D01*
X17733861Y-12200476D02*
X17733861Y-12095714D01*
X17724337Y-12076667D01*
X17705290Y-12067143D01*
X17667194Y-12067143D01*
X17648147Y-12076667D01*
X17733861Y-12190952D02*
X17714813Y-12200476D01*
X17667194Y-12200476D01*
X17648147Y-12190952D01*
X17638623Y-12171905D01*
X17638623Y-12152857D01*
X17648147Y-12133809D01*
X17667194Y-12124286D01*
X17714813Y-12124286D01*
X17733861Y-12114762D01*
X17800528Y-12067143D02*
X17876718Y-12067143D01*
X17829099Y-12000476D02*
X17829099Y-12171905D01*
X17838623Y-12190952D01*
X17857671Y-12200476D01*
X17876718Y-12200476D01*
X18019575Y-12190952D02*
X18000528Y-12200476D01*
X17962433Y-12200476D01*
X17943385Y-12190952D01*
X17933861Y-12171905D01*
X17933861Y-12095714D01*
X17943385Y-12076667D01*
X17962433Y-12067143D01*
X18000528Y-12067143D01*
X18019575Y-12076667D01*
X18029099Y-12095714D01*
X18029099Y-12114762D01*
X17933861Y-12133809D01*
X18200528Y-12200476D02*
X18200528Y-12000476D01*
X18200528Y-12190952D02*
X18181480Y-12200476D01*
X18143385Y-12200476D01*
X18124337Y-12190952D01*
X18114813Y-12181428D01*
X18105290Y-12162381D01*
X18105290Y-12105238D01*
X18114813Y-12086190D01*
X18124337Y-12076667D01*
X18143385Y-12067143D01*
X18181480Y-12067143D01*
X18200528Y-12076667D01*
X18276718Y-12276667D02*
X18286242Y-12267143D01*
X18305290Y-12238571D01*
X18314813Y-12219524D01*
X18324337Y-12190952D01*
X18333861Y-12143333D01*
X18333861Y-12105238D01*
X18324337Y-12057619D01*
X18314813Y-12029048D01*
X18305290Y-12010000D01*
X18286242Y-11981428D01*
X18276718Y-11971905D01*
M02*
