%FSLAX45Y45*%
G04 Gerber Fmt 4.5, Leading zero omitted, Abs format (unit mm)*
G04 Created by KiCad (PCBNEW (6.0.4)) date 2022-08-30 22:22:18*
%MOMM*%
%LPD*%
G01*
G04 APERTURE LIST*
%ADD10C,0.200000*%
%ADD11C,0.040000*%
%ADD12C,0.060000*%
%ADD13C,0.100000*%
G04 APERTURE END LIST*
D10*
D11*
X13078000Y-11121000D02*
X13118000Y-11161000D01*
X13118000Y-11121000D02*
X13078000Y-11161000D01*
X13080000Y-9520000D02*
X13120000Y-9560000D01*
X13120000Y-9520000D02*
X13080000Y-9560000D01*
X13080000Y-9680000D02*
X13120000Y-9720000D01*
X13120000Y-9680000D02*
X13080000Y-9720000D01*
X13080000Y-9840000D02*
X13120000Y-9880000D01*
X13120000Y-9840000D02*
X13080000Y-9880000D01*
X13080000Y-9980000D02*
X13120000Y-10020000D01*
X13120000Y-9980000D02*
X13080000Y-10020000D01*
X13080000Y-10120000D02*
X13120000Y-10160000D01*
X13120000Y-10120000D02*
X13080000Y-10160000D01*
X13080000Y-10260000D02*
X13120000Y-10300000D01*
X13120000Y-10260000D02*
X13080000Y-10300000D01*
X13080000Y-10400000D02*
X13120000Y-10440000D01*
X13120000Y-10400000D02*
X13080000Y-10440000D01*
X13080000Y-10540000D02*
X13120000Y-10580000D01*
X13120000Y-10540000D02*
X13080000Y-10580000D01*
X13080000Y-10680000D02*
X13120000Y-10720000D01*
X13120000Y-10680000D02*
X13080000Y-10720000D01*
X13080000Y-10820000D02*
X13120000Y-10860000D01*
X13120000Y-10820000D02*
X13080000Y-10860000D01*
X13120000Y-9420000D02*
X13160000Y-9460000D01*
X13160000Y-9420000D02*
X13120000Y-9460000D01*
X13160000Y-9600000D02*
X13200000Y-9640000D01*
X13200000Y-9600000D02*
X13160000Y-9640000D01*
X13200000Y-9500000D02*
X13240000Y-9540000D01*
X13240000Y-9500000D02*
X13200000Y-9540000D01*
X13230000Y-11125000D02*
X13270000Y-11165000D01*
X13270000Y-11125000D02*
X13230000Y-11165000D01*
X13269000Y-10784000D02*
X13309000Y-10824000D01*
X13309000Y-10784000D02*
X13269000Y-10824000D01*
X13300000Y-9440000D02*
X13340000Y-9480000D01*
X13340000Y-9440000D02*
X13300000Y-9480000D01*
X13316000Y-8801000D02*
X13356000Y-8841000D01*
X13356000Y-8801000D02*
X13316000Y-8841000D01*
X13326000Y-10286000D02*
X13366000Y-10326000D01*
X13366000Y-10286000D02*
X13326000Y-10326000D01*
X13329000Y-10066000D02*
X13369000Y-10106000D01*
X13369000Y-10066000D02*
X13329000Y-10106000D01*
X13346000Y-11126000D02*
X13386000Y-11166000D01*
X13386000Y-11126000D02*
X13346000Y-11166000D01*
X13365000Y-8879000D02*
X13405000Y-8919000D01*
X13405000Y-8879000D02*
X13365000Y-8919000D01*
X13408000Y-8800000D02*
X13448000Y-8840000D01*
X13448000Y-8800000D02*
X13408000Y-8840000D01*
X13421000Y-9080000D02*
X13461000Y-9120000D01*
X13461000Y-9080000D02*
X13421000Y-9120000D01*
X13464000Y-8879000D02*
X13504000Y-8919000D01*
X13504000Y-8879000D02*
X13464000Y-8919000D01*
X13547000Y-8924000D02*
X13587000Y-8964000D01*
X13587000Y-8924000D02*
X13547000Y-8964000D01*
X13588000Y-9002000D02*
X13628000Y-9042000D01*
X13628000Y-9002000D02*
X13588000Y-9042000D01*
X13618134Y-9672946D02*
X13658134Y-9712946D01*
X13658134Y-9672946D02*
X13618134Y-9712946D01*
X13710560Y-9721251D02*
X13750560Y-9761251D01*
X13750560Y-9721251D02*
X13710560Y-9761251D01*
X13730000Y-10030000D02*
X13770000Y-10070000D01*
X13770000Y-10030000D02*
X13730000Y-10070000D01*
X13730000Y-10180000D02*
X13770000Y-10220000D01*
X13770000Y-10180000D02*
X13730000Y-10220000D01*
X13730000Y-10330000D02*
X13770000Y-10370000D01*
X13770000Y-10330000D02*
X13730000Y-10370000D01*
X13740000Y-8340000D02*
X13780000Y-8380000D01*
X13780000Y-8340000D02*
X13740000Y-8380000D01*
X13760000Y-10560000D02*
X13800000Y-10600000D01*
X13800000Y-10560000D02*
X13760000Y-10600000D01*
X13795576Y-9773810D02*
X13835576Y-9813810D01*
X13835576Y-9773810D02*
X13795576Y-9813810D01*
X13800000Y-10100000D02*
X13840000Y-10140000D01*
X13840000Y-10100000D02*
X13800000Y-10140000D01*
X13800000Y-10260000D02*
X13840000Y-10300000D01*
X13840000Y-10260000D02*
X13800000Y-10300000D01*
X13803000Y-9080000D02*
X13843000Y-9120000D01*
X13843000Y-9080000D02*
X13803000Y-9120000D01*
X13820000Y-10680000D02*
X13860000Y-10720000D01*
X13860000Y-10680000D02*
X13820000Y-10720000D01*
X13880000Y-10030000D02*
X13920000Y-10070000D01*
X13920000Y-10030000D02*
X13880000Y-10070000D01*
X13880000Y-10180000D02*
X13920000Y-10220000D01*
X13920000Y-10180000D02*
X13880000Y-10220000D01*
X13880000Y-10330000D02*
X13920000Y-10370000D01*
X13920000Y-10330000D02*
X13880000Y-10370000D01*
X13895000Y-9794486D02*
X13935000Y-9834486D01*
X13935000Y-9794486D02*
X13895000Y-9834486D01*
X13900000Y-10560000D02*
X13940000Y-10600000D01*
X13940000Y-10560000D02*
X13900000Y-10600000D01*
X13933000Y-10721000D02*
X13973000Y-10761000D01*
X13973000Y-10721000D02*
X13933000Y-10761000D01*
X13960000Y-10100000D02*
X14000000Y-10140000D01*
X14000000Y-10100000D02*
X13960000Y-10140000D01*
X13960000Y-10260000D02*
X14000000Y-10300000D01*
X14000000Y-10260000D02*
X13960000Y-10300000D01*
X14000000Y-8340000D02*
X14040000Y-8380000D01*
X14040000Y-8340000D02*
X14000000Y-8380000D01*
X14030000Y-10030000D02*
X14070000Y-10070000D01*
X14070000Y-10030000D02*
X14030000Y-10070000D01*
X14030000Y-10180000D02*
X14070000Y-10220000D01*
X14070000Y-10180000D02*
X14030000Y-10220000D01*
X14030000Y-10330000D02*
X14070000Y-10370000D01*
X14070000Y-10330000D02*
X14030000Y-10370000D01*
X14060000Y-10540000D02*
X14100000Y-10580000D01*
X14100000Y-10540000D02*
X14060000Y-10580000D01*
X14062000Y-10721000D02*
X14102000Y-10761000D01*
X14102000Y-10721000D02*
X14062000Y-10761000D01*
X14260000Y-10060000D02*
X14300000Y-10100000D01*
X14300000Y-10060000D02*
X14260000Y-10100000D01*
X14260000Y-10220000D02*
X14300000Y-10260000D01*
X14300000Y-10220000D02*
X14260000Y-10260000D01*
X14268971Y-10722971D02*
X14308971Y-10762971D01*
X14308971Y-10722971D02*
X14268971Y-10762971D01*
X14280000Y-10380000D02*
X14320000Y-10420000D01*
X14320000Y-10380000D02*
X14280000Y-10420000D01*
X14360000Y-9960000D02*
X14400000Y-10000000D01*
X14400000Y-9960000D02*
X14360000Y-10000000D01*
X14360000Y-10120000D02*
X14400000Y-10160000D01*
X14400000Y-10120000D02*
X14360000Y-10160000D01*
X14360000Y-10280000D02*
X14400000Y-10320000D01*
X14400000Y-10280000D02*
X14360000Y-10320000D01*
X14373000Y-9459000D02*
X14413000Y-9499000D01*
X14413000Y-9459000D02*
X14373000Y-9499000D01*
X14383000Y-10722000D02*
X14423000Y-10762000D01*
X14423000Y-10722000D02*
X14383000Y-10762000D01*
X14482944Y-10723136D02*
X14522944Y-10763136D01*
X14522944Y-10723136D02*
X14482944Y-10763136D01*
X14555000Y-9598000D02*
X14595000Y-9638000D01*
X14595000Y-9598000D02*
X14555000Y-9638000D01*
X14588000Y-10726000D02*
X14628000Y-10766000D01*
X14628000Y-10726000D02*
X14588000Y-10766000D01*
X14623185Y-9506190D02*
X14663185Y-9546190D01*
X14663185Y-9506190D02*
X14623185Y-9546190D01*
X14751000Y-9621000D02*
X14791000Y-9661000D01*
X14791000Y-9621000D02*
X14751000Y-9661000D01*
X14870000Y-8864000D02*
X14910000Y-8904000D01*
X14910000Y-8864000D02*
X14870000Y-8904000D01*
X14898000Y-10787000D02*
X14938000Y-10827000D01*
X14938000Y-10787000D02*
X14898000Y-10827000D01*
X14932000Y-9261000D02*
X14972000Y-9301000D01*
X14972000Y-9261000D02*
X14932000Y-9301000D01*
X14940000Y-8976000D02*
X14980000Y-9016000D01*
X14980000Y-8976000D02*
X14940000Y-9016000D01*
X14942000Y-9085000D02*
X14982000Y-9125000D01*
X14982000Y-9085000D02*
X14942000Y-9125000D01*
X14959000Y-8805000D02*
X14999000Y-8845000D01*
X14999000Y-8805000D02*
X14959000Y-8845000D01*
X15000000Y-11120000D02*
X15040000Y-11160000D01*
X15040000Y-11120000D02*
X15000000Y-11160000D01*
X15097000Y-10503000D02*
X15137000Y-10543000D01*
X15137000Y-10503000D02*
X15097000Y-10543000D01*
X15100000Y-11118000D02*
X15140000Y-11158000D01*
X15140000Y-11118000D02*
X15100000Y-11158000D01*
X15143000Y-9150000D02*
X15183000Y-9190000D01*
X15183000Y-9150000D02*
X15143000Y-9190000D01*
X15145000Y-10402000D02*
X15185000Y-10442000D01*
X15185000Y-10402000D02*
X15145000Y-10442000D01*
X15149000Y-10908000D02*
X15189000Y-10948000D01*
X15189000Y-10908000D02*
X15149000Y-10948000D01*
X15163000Y-10595000D02*
X15203000Y-10635000D01*
X15203000Y-10595000D02*
X15163000Y-10635000D01*
X15200000Y-10497000D02*
X15240000Y-10537000D01*
X15240000Y-10497000D02*
X15200000Y-10537000D01*
X15202000Y-10305000D02*
X15242000Y-10345000D01*
X15242000Y-10305000D02*
X15202000Y-10345000D01*
X15254000Y-10401000D02*
X15294000Y-10441000D01*
X15294000Y-10401000D02*
X15254000Y-10441000D01*
X15259000Y-10592000D02*
X15299000Y-10632000D01*
X15299000Y-10592000D02*
X15259000Y-10632000D01*
X15360000Y-8920000D02*
X15400000Y-8960000D01*
X15400000Y-8920000D02*
X15360000Y-8960000D01*
X15400000Y-8820000D02*
X15440000Y-8860000D01*
X15440000Y-8820000D02*
X15400000Y-8860000D01*
X15434333Y-8988333D02*
X15474333Y-9028333D01*
X15474333Y-8988333D02*
X15434333Y-9028333D01*
X15460000Y-9960000D02*
X15500000Y-10000000D01*
X15500000Y-9960000D02*
X15460000Y-10000000D01*
X15460000Y-10087000D02*
X15500000Y-10127000D01*
X15500000Y-10087000D02*
X15460000Y-10127000D01*
X15460000Y-10220000D02*
X15500000Y-10260000D01*
X15500000Y-10220000D02*
X15460000Y-10260000D01*
X15560000Y-9780000D02*
X15600000Y-9820000D01*
X15600000Y-9780000D02*
X15560000Y-9820000D01*
X15563000Y-10393000D02*
X15603000Y-10433000D01*
X15603000Y-10393000D02*
X15563000Y-10433000D01*
X15580000Y-11018450D02*
X15620000Y-11058450D01*
X15620000Y-11018450D02*
X15580000Y-11058450D01*
X15640000Y-9700000D02*
X15680000Y-9740000D01*
X15680000Y-9700000D02*
X15640000Y-9740000D01*
X15666000Y-10332000D02*
X15706000Y-10372000D01*
X15706000Y-10332000D02*
X15666000Y-10372000D01*
X15666000Y-10453000D02*
X15706000Y-10493000D01*
X15706000Y-10453000D02*
X15666000Y-10493000D01*
X15695333Y-9794333D02*
X15735333Y-9834333D01*
X15735333Y-9794333D02*
X15695333Y-9834333D01*
X15728000Y-10829000D02*
X15768000Y-10869000D01*
X15768000Y-10829000D02*
X15728000Y-10869000D01*
X15756943Y-9600057D02*
X15796943Y-9640057D01*
X15796943Y-9600057D02*
X15756943Y-9640057D01*
X15780000Y-8520000D02*
X15820000Y-8560000D01*
X15820000Y-8520000D02*
X15780000Y-8560000D01*
X15891000Y-10473000D02*
X15931000Y-10513000D01*
X15931000Y-10473000D02*
X15891000Y-10513000D01*
X15900000Y-9980000D02*
X15940000Y-10020000D01*
X15940000Y-9980000D02*
X15900000Y-10020000D01*
X15940000Y-10080000D02*
X15980000Y-10120000D01*
X15980000Y-10080000D02*
X15940000Y-10120000D01*
X15989000Y-10859000D02*
X16029000Y-10899000D01*
X16029000Y-10859000D02*
X15989000Y-10899000D01*
X15992000Y-10472000D02*
X16032000Y-10512000D01*
X16032000Y-10472000D02*
X15992000Y-10512000D01*
X16000000Y-9500000D02*
X16040000Y-9540000D01*
X16040000Y-9500000D02*
X16000000Y-9540000D01*
X16000000Y-9880000D02*
X16040000Y-9920000D01*
X16040000Y-9880000D02*
X16000000Y-9920000D01*
X16000000Y-9980000D02*
X16040000Y-10020000D01*
X16040000Y-9980000D02*
X16000000Y-10020000D01*
X16012500Y-9742500D02*
X16052500Y-9782500D01*
X16052500Y-9742500D02*
X16012500Y-9782500D01*
X16120000Y-10000000D02*
X16160000Y-10040000D01*
X16160000Y-10000000D02*
X16120000Y-10040000D01*
X16130000Y-11017950D02*
X16170000Y-11057950D01*
X16170000Y-11017950D02*
X16130000Y-11057950D01*
X16200190Y-10339856D02*
X16240190Y-10379856D01*
X16240190Y-10339856D02*
X16200190Y-10379856D01*
X16208000Y-10606000D02*
X16248000Y-10646000D01*
X16248000Y-10606000D02*
X16208000Y-10646000D01*
X16219000Y-10732000D02*
X16259000Y-10772000D01*
X16259000Y-10732000D02*
X16219000Y-10772000D01*
X16220000Y-9140000D02*
X16260000Y-9180000D01*
X16260000Y-9140000D02*
X16220000Y-9180000D01*
X16237000Y-10911000D02*
X16277000Y-10951000D01*
X16277000Y-10911000D02*
X16237000Y-10951000D01*
X16277000Y-10477000D02*
X16317000Y-10517000D01*
X16317000Y-10477000D02*
X16277000Y-10517000D01*
X16280000Y-8520000D02*
X16320000Y-8560000D01*
X16320000Y-8520000D02*
X16280000Y-8560000D01*
X16281000Y-11039000D02*
X16321000Y-11079000D01*
X16321000Y-11039000D02*
X16281000Y-11079000D01*
X16286000Y-10101649D02*
X16326000Y-10141649D01*
X16326000Y-10101649D02*
X16286000Y-10141649D01*
X16340000Y-9500000D02*
X16380000Y-9540000D01*
X16380000Y-9500000D02*
X16340000Y-9540000D01*
X16420000Y-9140000D02*
X16460000Y-9180000D01*
X16460000Y-9140000D02*
X16420000Y-9180000D01*
X16431000Y-9987000D02*
X16471000Y-10027000D01*
X16471000Y-9987000D02*
X16431000Y-10027000D01*
X16549000Y-9987000D02*
X16589000Y-10027000D01*
X16589000Y-9987000D02*
X16549000Y-10027000D01*
X16588000Y-10768000D02*
X16628000Y-10808000D01*
X16628000Y-10768000D02*
X16588000Y-10808000D01*
X16660000Y-9140000D02*
X16700000Y-9180000D01*
X16700000Y-9140000D02*
X16660000Y-9180000D01*
X16695000Y-10002000D02*
X16735000Y-10042000D01*
X16735000Y-10002000D02*
X16695000Y-10042000D01*
X16740000Y-9520000D02*
X16780000Y-9560000D01*
X16780000Y-9520000D02*
X16740000Y-9560000D01*
X16822000Y-10164000D02*
X16862000Y-10204000D01*
X16862000Y-10164000D02*
X16822000Y-10204000D01*
X16844000Y-10613000D02*
X16884000Y-10653000D01*
X16884000Y-10613000D02*
X16844000Y-10653000D01*
X16960000Y-9640000D02*
X17000000Y-9680000D01*
X17000000Y-9640000D02*
X16960000Y-9680000D01*
X17020000Y-9060000D02*
X17060000Y-9100000D01*
X17060000Y-9060000D02*
X17020000Y-9100000D01*
X17024000Y-10019000D02*
X17064000Y-10059000D01*
X17064000Y-10019000D02*
X17024000Y-10059000D01*
X17040000Y-8520000D02*
X17080000Y-8560000D01*
X17080000Y-8520000D02*
X17040000Y-8560000D01*
X17060000Y-9540000D02*
X17100000Y-9580000D01*
X17100000Y-9540000D02*
X17060000Y-9580000D01*
X17144000Y-10787000D02*
X17184000Y-10827000D01*
X17184000Y-10787000D02*
X17144000Y-10827000D01*
X17157000Y-10007000D02*
X17197000Y-10047000D01*
X17197000Y-10007000D02*
X17157000Y-10047000D01*
X17180000Y-9060000D02*
X17220000Y-9100000D01*
X17220000Y-9060000D02*
X17180000Y-9100000D01*
X17237000Y-10096000D02*
X17277000Y-10136000D01*
X17277000Y-10096000D02*
X17237000Y-10136000D01*
X17318000Y-9998000D02*
X17358000Y-10038000D01*
X17358000Y-9998000D02*
X17318000Y-10038000D01*
X17431000Y-9899000D02*
X17471000Y-9939000D01*
X17471000Y-9899000D02*
X17431000Y-9939000D01*
X17437000Y-10294000D02*
X17477000Y-10334000D01*
X17477000Y-10294000D02*
X17437000Y-10334000D01*
X17440000Y-8880000D02*
X17480000Y-8920000D01*
X17480000Y-8880000D02*
X17440000Y-8920000D01*
X17440000Y-9020000D02*
X17480000Y-9060000D01*
X17480000Y-9020000D02*
X17440000Y-9060000D01*
X17440000Y-9140000D02*
X17480000Y-9180000D01*
X17480000Y-9140000D02*
X17440000Y-9180000D01*
X17440000Y-9260000D02*
X17480000Y-9300000D01*
X17480000Y-9260000D02*
X17440000Y-9300000D01*
X17440000Y-9380000D02*
X17480000Y-9420000D01*
X17480000Y-9380000D02*
X17440000Y-9420000D01*
X17440000Y-10043000D02*
X17480000Y-10083000D01*
X17480000Y-10043000D02*
X17440000Y-10083000D01*
X17441000Y-10173000D02*
X17481000Y-10213000D01*
X17481000Y-10173000D02*
X17441000Y-10213000D01*
D12*
X16445000Y-10559000D02*
G75*
G03*
X16445000Y-10559000I-30000J0D01*
G01*
D10*
X16395000Y-10504000D02*
X16395000Y-10614000D01*
X16435000Y-10504000D02*
X16435000Y-10614000D01*
X16395000Y-10614000D02*
G75*
G03*
X16435000Y-10614000I20000J0D01*
G01*
X16435000Y-10504000D02*
G75*
G03*
X16395000Y-10504000I-20000J0D01*
G01*
D12*
X16445000Y-10977000D02*
G75*
G03*
X16445000Y-10977000I-30000J0D01*
G01*
D10*
X16395000Y-10947000D02*
X16395000Y-11007000D01*
X16435000Y-10947000D02*
X16435000Y-11007000D01*
X16395000Y-11007000D02*
G75*
G03*
X16435000Y-11007000I20000J0D01*
G01*
X16435000Y-10947000D02*
G75*
G03*
X16395000Y-10947000I-20000J0D01*
G01*
D12*
X17309000Y-10559000D02*
G75*
G03*
X17309000Y-10559000I-30000J0D01*
G01*
D10*
X17259000Y-10504000D02*
X17259000Y-10614000D01*
X17299000Y-10504000D02*
X17299000Y-10614000D01*
X17259000Y-10614000D02*
G75*
G03*
X17299000Y-10614000I20000J0D01*
G01*
X17299000Y-10504000D02*
G75*
G03*
X17259000Y-10504000I-20000J0D01*
G01*
D12*
X17309000Y-10977000D02*
G75*
G03*
X17309000Y-10977000I-30000J0D01*
G01*
D10*
X17259000Y-10947000D02*
X17259000Y-11007000D01*
X17299000Y-10947000D02*
X17299000Y-11007000D01*
X17259000Y-11007000D02*
G75*
G03*
X17299000Y-11007000I20000J0D01*
G01*
X17299000Y-10947000D02*
G75*
G03*
X17259000Y-10947000I-20000J0D01*
G01*
D13*
X12367000Y-8373000D02*
X12367000Y-8473000D01*
X12317000Y-8423000D02*
X12417000Y-8423000D01*
X12367000Y-8627000D02*
X12367000Y-8727000D01*
X12317000Y-8677000D02*
X12417000Y-8677000D01*
X12621000Y-8373000D02*
X12621000Y-8473000D01*
X12571000Y-8423000D02*
X12671000Y-8423000D01*
X12621000Y-8627000D02*
X12621000Y-8727000D01*
X12571000Y-8677000D02*
X12671000Y-8677000D01*
X12875000Y-8373000D02*
X12875000Y-8473000D01*
X12825000Y-8423000D02*
X12925000Y-8423000D01*
X12875000Y-8627000D02*
X12875000Y-8727000D01*
X12825000Y-8677000D02*
X12925000Y-8677000D01*
X13129000Y-8373000D02*
X13129000Y-8473000D01*
X13079000Y-8423000D02*
X13179000Y-8423000D01*
X13129000Y-8627000D02*
X13129000Y-8727000D01*
X13079000Y-8677000D02*
X13179000Y-8677000D01*
X13383000Y-8373000D02*
X13383000Y-8473000D01*
X13333000Y-8423000D02*
X13433000Y-8423000D01*
X13383000Y-8627000D02*
X13383000Y-8727000D01*
X13333000Y-8677000D02*
X13433000Y-8677000D01*
X13637000Y-8373000D02*
X13637000Y-8473000D01*
X13587000Y-8423000D02*
X13687000Y-8423000D01*
X13637000Y-8627000D02*
X13637000Y-8727000D01*
X13587000Y-8677000D02*
X13687000Y-8677000D01*
X13891000Y-8373000D02*
X13891000Y-8473000D01*
X13841000Y-8423000D02*
X13941000Y-8423000D01*
X13891000Y-8627000D02*
X13891000Y-8727000D01*
X13841000Y-8677000D02*
X13941000Y-8677000D01*
X14145000Y-8373000D02*
X14145000Y-8473000D01*
X14095000Y-8423000D02*
X14195000Y-8423000D01*
X14145000Y-8627000D02*
X14145000Y-8727000D01*
X14095000Y-8677000D02*
X14195000Y-8677000D01*
X14399000Y-8373000D02*
X14399000Y-8473000D01*
X14349000Y-8423000D02*
X14449000Y-8423000D01*
X14399000Y-8627000D02*
X14399000Y-8727000D01*
X14349000Y-8677000D02*
X14449000Y-8677000D01*
X14653000Y-8373000D02*
X14653000Y-8473000D01*
X14603000Y-8423000D02*
X14703000Y-8423000D01*
X14653000Y-8627000D02*
X14653000Y-8727000D01*
X14603000Y-8677000D02*
X14703000Y-8677000D01*
X14907000Y-8373000D02*
X14907000Y-8473000D01*
X14857000Y-8423000D02*
X14957000Y-8423000D01*
X14907000Y-8627000D02*
X14907000Y-8727000D01*
X14857000Y-8677000D02*
X14957000Y-8677000D01*
X15161000Y-8373000D02*
X15161000Y-8473000D01*
X15111000Y-8423000D02*
X15211000Y-8423000D01*
X15161000Y-8627000D02*
X15161000Y-8727000D01*
X15111000Y-8677000D02*
X15211000Y-8677000D01*
X15415000Y-8373000D02*
X15415000Y-8473000D01*
X15365000Y-8423000D02*
X15465000Y-8423000D01*
X15415000Y-8627000D02*
X15415000Y-8727000D01*
X15365000Y-8677000D02*
X15465000Y-8677000D01*
X15669000Y-8373000D02*
X15669000Y-8473000D01*
X15619000Y-8423000D02*
X15719000Y-8423000D01*
X15669000Y-8627000D02*
X15669000Y-8727000D01*
X15619000Y-8677000D02*
X15719000Y-8677000D01*
X15923000Y-8373000D02*
X15923000Y-8473000D01*
X15873000Y-8423000D02*
X15973000Y-8423000D01*
X15923000Y-8627000D02*
X15923000Y-8727000D01*
X15873000Y-8677000D02*
X15973000Y-8677000D01*
X16177000Y-8373000D02*
X16177000Y-8473000D01*
X16127000Y-8423000D02*
X16227000Y-8423000D01*
X16177000Y-8627000D02*
X16177000Y-8727000D01*
X16127000Y-8677000D02*
X16227000Y-8677000D01*
X16431000Y-8373000D02*
X16431000Y-8473000D01*
X16381000Y-8423000D02*
X16481000Y-8423000D01*
X16431000Y-8627000D02*
X16431000Y-8727000D01*
X16381000Y-8677000D02*
X16481000Y-8677000D01*
X16685000Y-8373000D02*
X16685000Y-8473000D01*
X16635000Y-8423000D02*
X16735000Y-8423000D01*
X16685000Y-8627000D02*
X16685000Y-8727000D01*
X16635000Y-8677000D02*
X16735000Y-8677000D01*
X16939000Y-8373000D02*
X16939000Y-8473000D01*
X16889000Y-8423000D02*
X16989000Y-8423000D01*
X16939000Y-8627000D02*
X16939000Y-8727000D01*
X16889000Y-8677000D02*
X16989000Y-8677000D01*
X17193000Y-8373000D02*
X17193000Y-8473000D01*
X17143000Y-8423000D02*
X17243000Y-8423000D01*
X17193000Y-8627000D02*
X17193000Y-8727000D01*
X17143000Y-8677000D02*
X17243000Y-8677000D01*
D10*
X11781480Y-11516476D02*
X11781480Y-11316476D01*
X11829099Y-11316476D01*
X11857671Y-11326000D01*
X11876718Y-11345048D01*
X11886242Y-11364095D01*
X11895766Y-11402190D01*
X11895766Y-11430762D01*
X11886242Y-11468857D01*
X11876718Y-11487905D01*
X11857671Y-11506952D01*
X11829099Y-11516476D01*
X11781480Y-11516476D01*
X11981480Y-11516476D02*
X11981480Y-11383143D01*
X11981480Y-11421238D02*
X11991004Y-11402190D01*
X12000528Y-11392667D01*
X12019575Y-11383143D01*
X12038623Y-11383143D01*
X12105290Y-11516476D02*
X12105290Y-11383143D01*
X12105290Y-11316476D02*
X12095766Y-11326000D01*
X12105290Y-11335524D01*
X12114813Y-11326000D01*
X12105290Y-11316476D01*
X12105290Y-11335524D01*
X12229099Y-11516476D02*
X12210051Y-11506952D01*
X12200528Y-11487905D01*
X12200528Y-11316476D01*
X12333861Y-11516476D02*
X12314813Y-11506952D01*
X12305290Y-11487905D01*
X12305290Y-11316476D01*
X12562432Y-11516476D02*
X12562432Y-11316476D01*
X12629099Y-11459333D01*
X12695766Y-11316476D01*
X12695766Y-11516476D01*
X12876718Y-11516476D02*
X12876718Y-11411714D01*
X12867194Y-11392667D01*
X12848147Y-11383143D01*
X12810051Y-11383143D01*
X12791004Y-11392667D01*
X12876718Y-11506952D02*
X12857671Y-11516476D01*
X12810051Y-11516476D01*
X12791004Y-11506952D01*
X12781480Y-11487905D01*
X12781480Y-11468857D01*
X12791004Y-11449809D01*
X12810051Y-11440286D01*
X12857671Y-11440286D01*
X12876718Y-11430762D01*
X12971956Y-11383143D02*
X12971956Y-11583143D01*
X12971956Y-11392667D02*
X12991004Y-11383143D01*
X13029099Y-11383143D01*
X13048147Y-11392667D01*
X13057671Y-11402190D01*
X13067194Y-11421238D01*
X13067194Y-11478381D01*
X13057671Y-11497428D01*
X13048147Y-11506952D01*
X13029099Y-11516476D01*
X12991004Y-11516476D01*
X12971956Y-11506952D01*
X13152909Y-11497428D02*
X13162432Y-11506952D01*
X13152909Y-11516476D01*
X13143385Y-11506952D01*
X13152909Y-11497428D01*
X13152909Y-11516476D01*
X13152909Y-11392667D02*
X13162432Y-11402190D01*
X13152909Y-11411714D01*
X13143385Y-11402190D01*
X13152909Y-11392667D01*
X13152909Y-11411714D01*
D11*
X11483861Y-11826000D02*
X11523861Y-11866000D01*
X11523861Y-11826000D02*
X11483861Y-11866000D01*
D10*
X11819575Y-11736476D02*
X11838623Y-11736476D01*
X11857671Y-11746000D01*
X11867194Y-11755524D01*
X11876718Y-11774571D01*
X11886242Y-11812667D01*
X11886242Y-11860286D01*
X11876718Y-11898381D01*
X11867194Y-11917428D01*
X11857671Y-11926952D01*
X11838623Y-11936476D01*
X11819575Y-11936476D01*
X11800528Y-11926952D01*
X11791004Y-11917428D01*
X11781480Y-11898381D01*
X11771956Y-11860286D01*
X11771956Y-11812667D01*
X11781480Y-11774571D01*
X11791004Y-11755524D01*
X11800528Y-11746000D01*
X11819575Y-11736476D01*
X11971956Y-11917428D02*
X11981480Y-11926952D01*
X11971956Y-11936476D01*
X11962432Y-11926952D01*
X11971956Y-11917428D01*
X11971956Y-11936476D01*
X12152909Y-11803143D02*
X12152909Y-11936476D01*
X12105290Y-11726952D02*
X12057671Y-11869809D01*
X12181480Y-11869809D01*
X12295766Y-11736476D02*
X12314813Y-11736476D01*
X12333861Y-11746000D01*
X12343385Y-11755524D01*
X12352909Y-11774571D01*
X12362432Y-11812667D01*
X12362432Y-11860286D01*
X12352909Y-11898381D01*
X12343385Y-11917428D01*
X12333861Y-11926952D01*
X12314813Y-11936476D01*
X12295766Y-11936476D01*
X12276718Y-11926952D01*
X12267194Y-11917428D01*
X12257671Y-11898381D01*
X12248147Y-11860286D01*
X12248147Y-11812667D01*
X12257671Y-11774571D01*
X12267194Y-11755524D01*
X12276718Y-11746000D01*
X12295766Y-11736476D01*
X12486242Y-11736476D02*
X12505290Y-11736476D01*
X12524337Y-11746000D01*
X12533861Y-11755524D01*
X12543385Y-11774571D01*
X12552909Y-11812667D01*
X12552909Y-11860286D01*
X12543385Y-11898381D01*
X12533861Y-11917428D01*
X12524337Y-11926952D01*
X12505290Y-11936476D01*
X12486242Y-11936476D01*
X12467194Y-11926952D01*
X12457671Y-11917428D01*
X12448147Y-11898381D01*
X12438623Y-11860286D01*
X12438623Y-11812667D01*
X12448147Y-11774571D01*
X12457671Y-11755524D01*
X12467194Y-11746000D01*
X12486242Y-11736476D01*
X12638623Y-11936476D02*
X12638623Y-11803143D01*
X12638623Y-11822190D02*
X12648147Y-11812667D01*
X12667194Y-11803143D01*
X12695766Y-11803143D01*
X12714813Y-11812667D01*
X12724337Y-11831714D01*
X12724337Y-11936476D01*
X12724337Y-11831714D02*
X12733861Y-11812667D01*
X12752909Y-11803143D01*
X12781480Y-11803143D01*
X12800528Y-11812667D01*
X12810051Y-11831714D01*
X12810051Y-11936476D01*
X12905290Y-11936476D02*
X12905290Y-11803143D01*
X12905290Y-11822190D02*
X12914813Y-11812667D01*
X12933861Y-11803143D01*
X12962432Y-11803143D01*
X12981480Y-11812667D01*
X12991004Y-11831714D01*
X12991004Y-11936476D01*
X12991004Y-11831714D02*
X13000528Y-11812667D01*
X13019575Y-11803143D01*
X13048147Y-11803143D01*
X13067194Y-11812667D01*
X13076718Y-11831714D01*
X13076718Y-11936476D01*
X13467194Y-11726952D02*
X13295766Y-11984095D01*
X13724337Y-11736476D02*
X13743385Y-11736476D01*
X13762432Y-11746000D01*
X13771956Y-11755524D01*
X13781480Y-11774571D01*
X13791004Y-11812667D01*
X13791004Y-11860286D01*
X13781480Y-11898381D01*
X13771956Y-11917428D01*
X13762432Y-11926952D01*
X13743385Y-11936476D01*
X13724337Y-11936476D01*
X13705290Y-11926952D01*
X13695766Y-11917428D01*
X13686242Y-11898381D01*
X13676718Y-11860286D01*
X13676718Y-11812667D01*
X13686242Y-11774571D01*
X13695766Y-11755524D01*
X13705290Y-11746000D01*
X13724337Y-11736476D01*
X13876718Y-11917428D02*
X13886242Y-11926952D01*
X13876718Y-11936476D01*
X13867194Y-11926952D01*
X13876718Y-11917428D01*
X13876718Y-11936476D01*
X14010051Y-11736476D02*
X14029099Y-11736476D01*
X14048147Y-11746000D01*
X14057671Y-11755524D01*
X14067194Y-11774571D01*
X14076718Y-11812667D01*
X14076718Y-11860286D01*
X14067194Y-11898381D01*
X14057671Y-11917428D01*
X14048147Y-11926952D01*
X14029099Y-11936476D01*
X14010051Y-11936476D01*
X13991004Y-11926952D01*
X13981480Y-11917428D01*
X13971956Y-11898381D01*
X13962432Y-11860286D01*
X13962432Y-11812667D01*
X13971956Y-11774571D01*
X13981480Y-11755524D01*
X13991004Y-11746000D01*
X14010051Y-11736476D01*
X14267194Y-11936476D02*
X14152909Y-11936476D01*
X14210051Y-11936476D02*
X14210051Y-11736476D01*
X14191004Y-11765048D01*
X14171956Y-11784095D01*
X14152909Y-11793619D01*
X14448147Y-11736476D02*
X14352909Y-11736476D01*
X14343385Y-11831714D01*
X14352909Y-11822190D01*
X14371956Y-11812667D01*
X14419575Y-11812667D01*
X14438623Y-11822190D01*
X14448147Y-11831714D01*
X14457671Y-11850762D01*
X14457671Y-11898381D01*
X14448147Y-11917428D01*
X14438623Y-11926952D01*
X14419575Y-11936476D01*
X14371956Y-11936476D01*
X14352909Y-11926952D01*
X14343385Y-11917428D01*
X14524337Y-11736476D02*
X14657671Y-11736476D01*
X14571956Y-11936476D01*
X14724337Y-11736476D02*
X14724337Y-11774571D01*
X14800528Y-11736476D02*
X14800528Y-11774571D01*
X15095766Y-12012667D02*
X15086242Y-12003143D01*
X15067194Y-11974571D01*
X15057671Y-11955524D01*
X15048147Y-11926952D01*
X15038623Y-11879333D01*
X15038623Y-11841238D01*
X15048147Y-11793619D01*
X15057671Y-11765048D01*
X15067194Y-11746000D01*
X15086242Y-11717428D01*
X15095766Y-11707905D01*
X15276718Y-11936476D02*
X15162432Y-11936476D01*
X15219575Y-11936476D02*
X15219575Y-11736476D01*
X15200528Y-11765048D01*
X15181480Y-11784095D01*
X15162432Y-11793619D01*
X15448147Y-11803143D02*
X15448147Y-11936476D01*
X15400528Y-11726952D02*
X15352909Y-11869809D01*
X15476718Y-11869809D01*
X15562432Y-11936476D02*
X15600528Y-11936476D01*
X15619575Y-11926952D01*
X15629099Y-11917428D01*
X15648147Y-11888857D01*
X15657671Y-11850762D01*
X15657671Y-11774571D01*
X15648147Y-11755524D01*
X15638623Y-11746000D01*
X15619575Y-11736476D01*
X15581480Y-11736476D01*
X15562432Y-11746000D01*
X15552909Y-11755524D01*
X15543385Y-11774571D01*
X15543385Y-11822190D01*
X15552909Y-11841238D01*
X15562432Y-11850762D01*
X15581480Y-11860286D01*
X15619575Y-11860286D01*
X15638623Y-11850762D01*
X15648147Y-11841238D01*
X15657671Y-11822190D01*
X15895766Y-11936476D02*
X15895766Y-11736476D01*
X15981480Y-11936476D02*
X15981480Y-11831714D01*
X15971956Y-11812667D01*
X15952909Y-11803143D01*
X15924337Y-11803143D01*
X15905290Y-11812667D01*
X15895766Y-11822190D01*
X16105290Y-11936476D02*
X16086242Y-11926952D01*
X16076718Y-11917428D01*
X16067194Y-11898381D01*
X16067194Y-11841238D01*
X16076718Y-11822190D01*
X16086242Y-11812667D01*
X16105290Y-11803143D01*
X16133861Y-11803143D01*
X16152909Y-11812667D01*
X16162432Y-11822190D01*
X16171956Y-11841238D01*
X16171956Y-11898381D01*
X16162432Y-11917428D01*
X16152909Y-11926952D01*
X16133861Y-11936476D01*
X16105290Y-11936476D01*
X16286242Y-11936476D02*
X16267194Y-11926952D01*
X16257671Y-11907905D01*
X16257671Y-11736476D01*
X16438623Y-11926952D02*
X16419575Y-11936476D01*
X16381480Y-11936476D01*
X16362432Y-11926952D01*
X16352909Y-11907905D01*
X16352909Y-11831714D01*
X16362432Y-11812667D01*
X16381480Y-11803143D01*
X16419575Y-11803143D01*
X16438623Y-11812667D01*
X16448147Y-11831714D01*
X16448147Y-11850762D01*
X16352909Y-11869809D01*
X16524337Y-11926952D02*
X16543385Y-11936476D01*
X16581480Y-11936476D01*
X16600528Y-11926952D01*
X16610051Y-11907905D01*
X16610051Y-11898381D01*
X16600528Y-11879333D01*
X16581480Y-11869809D01*
X16552909Y-11869809D01*
X16533861Y-11860286D01*
X16524337Y-11841238D01*
X16524337Y-11831714D01*
X16533861Y-11812667D01*
X16552909Y-11803143D01*
X16581480Y-11803143D01*
X16600528Y-11812667D01*
X16676718Y-12012667D02*
X16686242Y-12003143D01*
X16705290Y-11974571D01*
X16714813Y-11955524D01*
X16724337Y-11926952D01*
X16733861Y-11879333D01*
X16733861Y-11841238D01*
X16724337Y-11793619D01*
X16714813Y-11765048D01*
X16705290Y-11746000D01*
X16686242Y-11717428D01*
X16676718Y-11707905D01*
D12*
X11523861Y-12110000D02*
G75*
G03*
X11523861Y-12110000I-30000J0D01*
G01*
D10*
X11819575Y-12000476D02*
X11838623Y-12000476D01*
X11857671Y-12010000D01*
X11867194Y-12019524D01*
X11876718Y-12038571D01*
X11886242Y-12076667D01*
X11886242Y-12124286D01*
X11876718Y-12162381D01*
X11867194Y-12181428D01*
X11857671Y-12190952D01*
X11838623Y-12200476D01*
X11819575Y-12200476D01*
X11800528Y-12190952D01*
X11791004Y-12181428D01*
X11781480Y-12162381D01*
X11771956Y-12124286D01*
X11771956Y-12076667D01*
X11781480Y-12038571D01*
X11791004Y-12019524D01*
X11800528Y-12010000D01*
X11819575Y-12000476D01*
X11971956Y-12181428D02*
X11981480Y-12190952D01*
X11971956Y-12200476D01*
X11962432Y-12190952D01*
X11971956Y-12181428D01*
X11971956Y-12200476D01*
X12152909Y-12000476D02*
X12114813Y-12000476D01*
X12095766Y-12010000D01*
X12086242Y-12019524D01*
X12067194Y-12048095D01*
X12057671Y-12086190D01*
X12057671Y-12162381D01*
X12067194Y-12181428D01*
X12076718Y-12190952D01*
X12095766Y-12200476D01*
X12133861Y-12200476D01*
X12152909Y-12190952D01*
X12162432Y-12181428D01*
X12171956Y-12162381D01*
X12171956Y-12114762D01*
X12162432Y-12095714D01*
X12152909Y-12086190D01*
X12133861Y-12076667D01*
X12095766Y-12076667D01*
X12076718Y-12086190D01*
X12067194Y-12095714D01*
X12057671Y-12114762D01*
X12295766Y-12000476D02*
X12314813Y-12000476D01*
X12333861Y-12010000D01*
X12343385Y-12019524D01*
X12352909Y-12038571D01*
X12362432Y-12076667D01*
X12362432Y-12124286D01*
X12352909Y-12162381D01*
X12343385Y-12181428D01*
X12333861Y-12190952D01*
X12314813Y-12200476D01*
X12295766Y-12200476D01*
X12276718Y-12190952D01*
X12267194Y-12181428D01*
X12257671Y-12162381D01*
X12248147Y-12124286D01*
X12248147Y-12076667D01*
X12257671Y-12038571D01*
X12267194Y-12019524D01*
X12276718Y-12010000D01*
X12295766Y-12000476D01*
X12486242Y-12000476D02*
X12505290Y-12000476D01*
X12524337Y-12010000D01*
X12533861Y-12019524D01*
X12543385Y-12038571D01*
X12552909Y-12076667D01*
X12552909Y-12124286D01*
X12543385Y-12162381D01*
X12533861Y-12181428D01*
X12524337Y-12190952D01*
X12505290Y-12200476D01*
X12486242Y-12200476D01*
X12467194Y-12190952D01*
X12457671Y-12181428D01*
X12448147Y-12162381D01*
X12438623Y-12124286D01*
X12438623Y-12076667D01*
X12448147Y-12038571D01*
X12457671Y-12019524D01*
X12467194Y-12010000D01*
X12486242Y-12000476D01*
X12638623Y-12200476D02*
X12638623Y-12067143D01*
X12638623Y-12086190D02*
X12648147Y-12076667D01*
X12667194Y-12067143D01*
X12695766Y-12067143D01*
X12714813Y-12076667D01*
X12724337Y-12095714D01*
X12724337Y-12200476D01*
X12724337Y-12095714D02*
X12733861Y-12076667D01*
X12752909Y-12067143D01*
X12781480Y-12067143D01*
X12800528Y-12076667D01*
X12810051Y-12095714D01*
X12810051Y-12200476D01*
X12905290Y-12200476D02*
X12905290Y-12067143D01*
X12905290Y-12086190D02*
X12914813Y-12076667D01*
X12933861Y-12067143D01*
X12962432Y-12067143D01*
X12981480Y-12076667D01*
X12991004Y-12095714D01*
X12991004Y-12200476D01*
X12991004Y-12095714D02*
X13000528Y-12076667D01*
X13019575Y-12067143D01*
X13048147Y-12067143D01*
X13067194Y-12076667D01*
X13076718Y-12095714D01*
X13076718Y-12200476D01*
X13467194Y-11990952D02*
X13295766Y-12248095D01*
X13724337Y-12000476D02*
X13743385Y-12000476D01*
X13762432Y-12010000D01*
X13771956Y-12019524D01*
X13781480Y-12038571D01*
X13791004Y-12076667D01*
X13791004Y-12124286D01*
X13781480Y-12162381D01*
X13771956Y-12181428D01*
X13762432Y-12190952D01*
X13743385Y-12200476D01*
X13724337Y-12200476D01*
X13705290Y-12190952D01*
X13695766Y-12181428D01*
X13686242Y-12162381D01*
X13676718Y-12124286D01*
X13676718Y-12076667D01*
X13686242Y-12038571D01*
X13695766Y-12019524D01*
X13705290Y-12010000D01*
X13724337Y-12000476D01*
X13876718Y-12181428D02*
X13886242Y-12190952D01*
X13876718Y-12200476D01*
X13867194Y-12190952D01*
X13876718Y-12181428D01*
X13876718Y-12200476D01*
X14010051Y-12000476D02*
X14029099Y-12000476D01*
X14048147Y-12010000D01*
X14057671Y-12019524D01*
X14067194Y-12038571D01*
X14076718Y-12076667D01*
X14076718Y-12124286D01*
X14067194Y-12162381D01*
X14057671Y-12181428D01*
X14048147Y-12190952D01*
X14029099Y-12200476D01*
X14010051Y-12200476D01*
X13991004Y-12190952D01*
X13981480Y-12181428D01*
X13971956Y-12162381D01*
X13962432Y-12124286D01*
X13962432Y-12076667D01*
X13971956Y-12038571D01*
X13981480Y-12019524D01*
X13991004Y-12010000D01*
X14010051Y-12000476D01*
X14152909Y-12019524D02*
X14162432Y-12010000D01*
X14181480Y-12000476D01*
X14229099Y-12000476D01*
X14248147Y-12010000D01*
X14257671Y-12019524D01*
X14267194Y-12038571D01*
X14267194Y-12057619D01*
X14257671Y-12086190D01*
X14143385Y-12200476D01*
X14267194Y-12200476D01*
X14333861Y-12000476D02*
X14457671Y-12000476D01*
X14391004Y-12076667D01*
X14419575Y-12076667D01*
X14438623Y-12086190D01*
X14448147Y-12095714D01*
X14457671Y-12114762D01*
X14457671Y-12162381D01*
X14448147Y-12181428D01*
X14438623Y-12190952D01*
X14419575Y-12200476D01*
X14362432Y-12200476D01*
X14343385Y-12190952D01*
X14333861Y-12181428D01*
X14629099Y-12000476D02*
X14591004Y-12000476D01*
X14571956Y-12010000D01*
X14562432Y-12019524D01*
X14543385Y-12048095D01*
X14533861Y-12086190D01*
X14533861Y-12162381D01*
X14543385Y-12181428D01*
X14552909Y-12190952D01*
X14571956Y-12200476D01*
X14610051Y-12200476D01*
X14629099Y-12190952D01*
X14638623Y-12181428D01*
X14648147Y-12162381D01*
X14648147Y-12114762D01*
X14638623Y-12095714D01*
X14629099Y-12086190D01*
X14610051Y-12076667D01*
X14571956Y-12076667D01*
X14552909Y-12086190D01*
X14543385Y-12095714D01*
X14533861Y-12114762D01*
X14724337Y-12000476D02*
X14724337Y-12038571D01*
X14800528Y-12000476D02*
X14800528Y-12038571D01*
X15095766Y-12276667D02*
X15086242Y-12267143D01*
X15067194Y-12238571D01*
X15057671Y-12219524D01*
X15048147Y-12190952D01*
X15038623Y-12143333D01*
X15038623Y-12105238D01*
X15048147Y-12057619D01*
X15057671Y-12029048D01*
X15067194Y-12010000D01*
X15086242Y-11981428D01*
X15095766Y-11971905D01*
X15210051Y-12000476D02*
X15229099Y-12000476D01*
X15248147Y-12010000D01*
X15257671Y-12019524D01*
X15267194Y-12038571D01*
X15276718Y-12076667D01*
X15276718Y-12124286D01*
X15267194Y-12162381D01*
X15257671Y-12181428D01*
X15248147Y-12190952D01*
X15229099Y-12200476D01*
X15210051Y-12200476D01*
X15191004Y-12190952D01*
X15181480Y-12181428D01*
X15171956Y-12162381D01*
X15162432Y-12124286D01*
X15162432Y-12076667D01*
X15171956Y-12038571D01*
X15181480Y-12019524D01*
X15191004Y-12010000D01*
X15210051Y-12000476D01*
X15514813Y-12200476D02*
X15514813Y-12000476D01*
X15600528Y-12200476D02*
X15600528Y-12095714D01*
X15591004Y-12076667D01*
X15571956Y-12067143D01*
X15543385Y-12067143D01*
X15524337Y-12076667D01*
X15514813Y-12086190D01*
X15724337Y-12200476D02*
X15705290Y-12190952D01*
X15695766Y-12181428D01*
X15686242Y-12162381D01*
X15686242Y-12105238D01*
X15695766Y-12086190D01*
X15705290Y-12076667D01*
X15724337Y-12067143D01*
X15752909Y-12067143D01*
X15771956Y-12076667D01*
X15781480Y-12086190D01*
X15791004Y-12105238D01*
X15791004Y-12162381D01*
X15781480Y-12181428D01*
X15771956Y-12190952D01*
X15752909Y-12200476D01*
X15724337Y-12200476D01*
X15905290Y-12200476D02*
X15886242Y-12190952D01*
X15876718Y-12171905D01*
X15876718Y-12000476D01*
X16057671Y-12190952D02*
X16038623Y-12200476D01*
X16000528Y-12200476D01*
X15981480Y-12190952D01*
X15971956Y-12171905D01*
X15971956Y-12095714D01*
X15981480Y-12076667D01*
X16000528Y-12067143D01*
X16038623Y-12067143D01*
X16057671Y-12076667D01*
X16067194Y-12095714D01*
X16067194Y-12114762D01*
X15971956Y-12133809D01*
X16143385Y-12190952D02*
X16162432Y-12200476D01*
X16200528Y-12200476D01*
X16219575Y-12190952D01*
X16229099Y-12171905D01*
X16229099Y-12162381D01*
X16219575Y-12143333D01*
X16200528Y-12133809D01*
X16171956Y-12133809D01*
X16152909Y-12124286D01*
X16143385Y-12105238D01*
X16143385Y-12095714D01*
X16152909Y-12076667D01*
X16171956Y-12067143D01*
X16200528Y-12067143D01*
X16219575Y-12076667D01*
X16467194Y-12124286D02*
X16619575Y-12124286D01*
X16543385Y-12200476D02*
X16543385Y-12048095D01*
X16952909Y-12067143D02*
X16952909Y-12200476D01*
X16905290Y-11990952D02*
X16857671Y-12133809D01*
X16981480Y-12133809D01*
X17200528Y-12190952D02*
X17219575Y-12200476D01*
X17257671Y-12200476D01*
X17276718Y-12190952D01*
X17286242Y-12171905D01*
X17286242Y-12162381D01*
X17276718Y-12143333D01*
X17257671Y-12133809D01*
X17229099Y-12133809D01*
X17210052Y-12124286D01*
X17200528Y-12105238D01*
X17200528Y-12095714D01*
X17210052Y-12076667D01*
X17229099Y-12067143D01*
X17257671Y-12067143D01*
X17276718Y-12076667D01*
X17400528Y-12200476D02*
X17381480Y-12190952D01*
X17371956Y-12171905D01*
X17371956Y-12000476D01*
X17505290Y-12200476D02*
X17486242Y-12190952D01*
X17476718Y-12181428D01*
X17467194Y-12162381D01*
X17467194Y-12105238D01*
X17476718Y-12086190D01*
X17486242Y-12076667D01*
X17505290Y-12067143D01*
X17533861Y-12067143D01*
X17552909Y-12076667D01*
X17562433Y-12086190D01*
X17571956Y-12105238D01*
X17571956Y-12162381D01*
X17562433Y-12181428D01*
X17552909Y-12190952D01*
X17533861Y-12200476D01*
X17505290Y-12200476D01*
X17629099Y-12067143D02*
X17705290Y-12067143D01*
X17657671Y-12000476D02*
X17657671Y-12171905D01*
X17667194Y-12190952D01*
X17686242Y-12200476D01*
X17705290Y-12200476D01*
X17762433Y-12190952D02*
X17781480Y-12200476D01*
X17819575Y-12200476D01*
X17838623Y-12190952D01*
X17848147Y-12171905D01*
X17848147Y-12162381D01*
X17838623Y-12143333D01*
X17819575Y-12133809D01*
X17791004Y-12133809D01*
X17771956Y-12124286D01*
X17762433Y-12105238D01*
X17762433Y-12095714D01*
X17771956Y-12076667D01*
X17791004Y-12067143D01*
X17819575Y-12067143D01*
X17838623Y-12076667D01*
X17914813Y-12276667D02*
X17924337Y-12267143D01*
X17943385Y-12238571D01*
X17952909Y-12219524D01*
X17962433Y-12190952D01*
X17971956Y-12143333D01*
X17971956Y-12105238D01*
X17962433Y-12057619D01*
X17952909Y-12029048D01*
X17943385Y-12010000D01*
X17924337Y-11981428D01*
X17914813Y-11971905D01*
D13*
X11473861Y-12324000D02*
X11473861Y-12424000D01*
X11423861Y-12374000D02*
X11523861Y-12374000D01*
D10*
X11886242Y-12464476D02*
X11771956Y-12464476D01*
X11829099Y-12464476D02*
X11829099Y-12264476D01*
X11810051Y-12293048D01*
X11791004Y-12312095D01*
X11771956Y-12321619D01*
X11971956Y-12445428D02*
X11981480Y-12454952D01*
X11971956Y-12464476D01*
X11962432Y-12454952D01*
X11971956Y-12445428D01*
X11971956Y-12464476D01*
X12105290Y-12264476D02*
X12124337Y-12264476D01*
X12143385Y-12274000D01*
X12152909Y-12283524D01*
X12162432Y-12302571D01*
X12171956Y-12340667D01*
X12171956Y-12388286D01*
X12162432Y-12426381D01*
X12152909Y-12445428D01*
X12143385Y-12454952D01*
X12124337Y-12464476D01*
X12105290Y-12464476D01*
X12086242Y-12454952D01*
X12076718Y-12445428D01*
X12067194Y-12426381D01*
X12057671Y-12388286D01*
X12057671Y-12340667D01*
X12067194Y-12302571D01*
X12076718Y-12283524D01*
X12086242Y-12274000D01*
X12105290Y-12264476D01*
X12295766Y-12264476D02*
X12314813Y-12264476D01*
X12333861Y-12274000D01*
X12343385Y-12283524D01*
X12352909Y-12302571D01*
X12362432Y-12340667D01*
X12362432Y-12388286D01*
X12352909Y-12426381D01*
X12343385Y-12445428D01*
X12333861Y-12454952D01*
X12314813Y-12464476D01*
X12295766Y-12464476D01*
X12276718Y-12454952D01*
X12267194Y-12445428D01*
X12257671Y-12426381D01*
X12248147Y-12388286D01*
X12248147Y-12340667D01*
X12257671Y-12302571D01*
X12267194Y-12283524D01*
X12276718Y-12274000D01*
X12295766Y-12264476D01*
X12486242Y-12264476D02*
X12505290Y-12264476D01*
X12524337Y-12274000D01*
X12533861Y-12283524D01*
X12543385Y-12302571D01*
X12552909Y-12340667D01*
X12552909Y-12388286D01*
X12543385Y-12426381D01*
X12533861Y-12445428D01*
X12524337Y-12454952D01*
X12505290Y-12464476D01*
X12486242Y-12464476D01*
X12467194Y-12454952D01*
X12457671Y-12445428D01*
X12448147Y-12426381D01*
X12438623Y-12388286D01*
X12438623Y-12340667D01*
X12448147Y-12302571D01*
X12457671Y-12283524D01*
X12467194Y-12274000D01*
X12486242Y-12264476D01*
X12638623Y-12464476D02*
X12638623Y-12331143D01*
X12638623Y-12350190D02*
X12648147Y-12340667D01*
X12667194Y-12331143D01*
X12695766Y-12331143D01*
X12714813Y-12340667D01*
X12724337Y-12359714D01*
X12724337Y-12464476D01*
X12724337Y-12359714D02*
X12733861Y-12340667D01*
X12752909Y-12331143D01*
X12781480Y-12331143D01*
X12800528Y-12340667D01*
X12810051Y-12359714D01*
X12810051Y-12464476D01*
X12905290Y-12464476D02*
X12905290Y-12331143D01*
X12905290Y-12350190D02*
X12914813Y-12340667D01*
X12933861Y-12331143D01*
X12962432Y-12331143D01*
X12981480Y-12340667D01*
X12991004Y-12359714D01*
X12991004Y-12464476D01*
X12991004Y-12359714D02*
X13000528Y-12340667D01*
X13019575Y-12331143D01*
X13048147Y-12331143D01*
X13067194Y-12340667D01*
X13076718Y-12359714D01*
X13076718Y-12464476D01*
X13467194Y-12254952D02*
X13295766Y-12512095D01*
X13724337Y-12264476D02*
X13743385Y-12264476D01*
X13762432Y-12274000D01*
X13771956Y-12283524D01*
X13781480Y-12302571D01*
X13791004Y-12340667D01*
X13791004Y-12388286D01*
X13781480Y-12426381D01*
X13771956Y-12445428D01*
X13762432Y-12454952D01*
X13743385Y-12464476D01*
X13724337Y-12464476D01*
X13705290Y-12454952D01*
X13695766Y-12445428D01*
X13686242Y-12426381D01*
X13676718Y-12388286D01*
X13676718Y-12340667D01*
X13686242Y-12302571D01*
X13695766Y-12283524D01*
X13705290Y-12274000D01*
X13724337Y-12264476D01*
X13876718Y-12445428D02*
X13886242Y-12454952D01*
X13876718Y-12464476D01*
X13867194Y-12454952D01*
X13876718Y-12445428D01*
X13876718Y-12464476D01*
X14010051Y-12264476D02*
X14029099Y-12264476D01*
X14048147Y-12274000D01*
X14057671Y-12283524D01*
X14067194Y-12302571D01*
X14076718Y-12340667D01*
X14076718Y-12388286D01*
X14067194Y-12426381D01*
X14057671Y-12445428D01*
X14048147Y-12454952D01*
X14029099Y-12464476D01*
X14010051Y-12464476D01*
X13991004Y-12454952D01*
X13981480Y-12445428D01*
X13971956Y-12426381D01*
X13962432Y-12388286D01*
X13962432Y-12340667D01*
X13971956Y-12302571D01*
X13981480Y-12283524D01*
X13991004Y-12274000D01*
X14010051Y-12264476D01*
X14143385Y-12264476D02*
X14267194Y-12264476D01*
X14200528Y-12340667D01*
X14229099Y-12340667D01*
X14248147Y-12350190D01*
X14257671Y-12359714D01*
X14267194Y-12378762D01*
X14267194Y-12426381D01*
X14257671Y-12445428D01*
X14248147Y-12454952D01*
X14229099Y-12464476D01*
X14171956Y-12464476D01*
X14152909Y-12454952D01*
X14143385Y-12445428D01*
X14362432Y-12464476D02*
X14400528Y-12464476D01*
X14419575Y-12454952D01*
X14429099Y-12445428D01*
X14448147Y-12416857D01*
X14457671Y-12378762D01*
X14457671Y-12302571D01*
X14448147Y-12283524D01*
X14438623Y-12274000D01*
X14419575Y-12264476D01*
X14381480Y-12264476D01*
X14362432Y-12274000D01*
X14352909Y-12283524D01*
X14343385Y-12302571D01*
X14343385Y-12350190D01*
X14352909Y-12369238D01*
X14362432Y-12378762D01*
X14381480Y-12388286D01*
X14419575Y-12388286D01*
X14438623Y-12378762D01*
X14448147Y-12369238D01*
X14457671Y-12350190D01*
X14629099Y-12331143D02*
X14629099Y-12464476D01*
X14581480Y-12254952D02*
X14533861Y-12397809D01*
X14657671Y-12397809D01*
X14724337Y-12264476D02*
X14724337Y-12302571D01*
X14800528Y-12264476D02*
X14800528Y-12302571D01*
X15095766Y-12540667D02*
X15086242Y-12531143D01*
X15067194Y-12502571D01*
X15057671Y-12483524D01*
X15048147Y-12454952D01*
X15038623Y-12407333D01*
X15038623Y-12369238D01*
X15048147Y-12321619D01*
X15057671Y-12293048D01*
X15067194Y-12274000D01*
X15086242Y-12245428D01*
X15095766Y-12235905D01*
X15257671Y-12331143D02*
X15257671Y-12464476D01*
X15210051Y-12254952D02*
X15162432Y-12397809D01*
X15286242Y-12397809D01*
X15400528Y-12264476D02*
X15419575Y-12264476D01*
X15438623Y-12274000D01*
X15448147Y-12283524D01*
X15457671Y-12302571D01*
X15467194Y-12340667D01*
X15467194Y-12388286D01*
X15457671Y-12426381D01*
X15448147Y-12445428D01*
X15438623Y-12454952D01*
X15419575Y-12464476D01*
X15400528Y-12464476D01*
X15381480Y-12454952D01*
X15371956Y-12445428D01*
X15362432Y-12426381D01*
X15352909Y-12388286D01*
X15352909Y-12340667D01*
X15362432Y-12302571D01*
X15371956Y-12283524D01*
X15381480Y-12274000D01*
X15400528Y-12264476D01*
X15705290Y-12464476D02*
X15705290Y-12264476D01*
X15791004Y-12464476D02*
X15791004Y-12359714D01*
X15781480Y-12340667D01*
X15762432Y-12331143D01*
X15733861Y-12331143D01*
X15714813Y-12340667D01*
X15705290Y-12350190D01*
X15914813Y-12464476D02*
X15895766Y-12454952D01*
X15886242Y-12445428D01*
X15876718Y-12426381D01*
X15876718Y-12369238D01*
X15886242Y-12350190D01*
X15895766Y-12340667D01*
X15914813Y-12331143D01*
X15943385Y-12331143D01*
X15962432Y-12340667D01*
X15971956Y-12350190D01*
X15981480Y-12369238D01*
X15981480Y-12426381D01*
X15971956Y-12445428D01*
X15962432Y-12454952D01*
X15943385Y-12464476D01*
X15914813Y-12464476D01*
X16095766Y-12464476D02*
X16076718Y-12454952D01*
X16067194Y-12435905D01*
X16067194Y-12264476D01*
X16248147Y-12454952D02*
X16229099Y-12464476D01*
X16191004Y-12464476D01*
X16171956Y-12454952D01*
X16162432Y-12435905D01*
X16162432Y-12359714D01*
X16171956Y-12340667D01*
X16191004Y-12331143D01*
X16229099Y-12331143D01*
X16248147Y-12340667D01*
X16257671Y-12359714D01*
X16257671Y-12378762D01*
X16162432Y-12397809D01*
X16333861Y-12454952D02*
X16352909Y-12464476D01*
X16391004Y-12464476D01*
X16410051Y-12454952D01*
X16419575Y-12435905D01*
X16419575Y-12426381D01*
X16410051Y-12407333D01*
X16391004Y-12397809D01*
X16362432Y-12397809D01*
X16343385Y-12388286D01*
X16333861Y-12369238D01*
X16333861Y-12359714D01*
X16343385Y-12340667D01*
X16362432Y-12331143D01*
X16391004Y-12331143D01*
X16410051Y-12340667D01*
X16486242Y-12540667D02*
X16495766Y-12531143D01*
X16514813Y-12502571D01*
X16524337Y-12483524D01*
X16533861Y-12454952D01*
X16543385Y-12407333D01*
X16543385Y-12369238D01*
X16533861Y-12321619D01*
X16524337Y-12293048D01*
X16514813Y-12274000D01*
X16495766Y-12245428D01*
X16486242Y-12235905D01*
M02*
