G04 #@! TF.GenerationSoftware,KiCad,Pcbnew,(6.0.8)*
G04 #@! TF.CreationDate,2022-11-09T14:46:31+03:00*
G04 #@! TF.ProjectId,Pluton32,506c7574-6f6e-4333-922e-6b696361645f,1.0*
G04 #@! TF.SameCoordinates,Original*
G04 #@! TF.FileFunction,Soldermask,Bot*
G04 #@! TF.FilePolarity,Negative*
%FSLAX46Y46*%
G04 Gerber Fmt 4.6, Leading zero omitted, Abs format (unit mm)*
G04 Created by KiCad (PCBNEW (6.0.8)) date 2022-11-09 14:46:31*
%MOMM*%
%LPD*%
G01*
G04 APERTURE LIST*
%ADD10C,1.200000*%
%ADD11C,0.650000*%
%ADD12O,1.000000X1.600000*%
%ADD13O,1.000000X2.100000*%
%ADD14C,3.200000*%
%ADD15R,1.508000X1.508000*%
%ADD16C,1.508000*%
G04 APERTURE END LIST*
D10*
X121023594Y-85503594D02*
G75*
G03*
X121023594Y-85503594I-2213594J0D01*
G01*
X179023594Y-85503594D02*
G75*
G03*
X179023594Y-85503594I-2213594J0D01*
G01*
X179027188Y-108500000D02*
G75*
G03*
X179027188Y-108500000I-2213594J0D01*
G01*
X121013594Y-108503594D02*
G75*
G03*
X121013594Y-108503594I-2213594J0D01*
G01*
D11*
X171360000Y-106120000D03*
X165580000Y-106120000D03*
D12*
X172790000Y-109770000D03*
X164150000Y-109770000D03*
D13*
X172790000Y-105590000D03*
X164150000Y-105590000D03*
D14*
X118800000Y-85500000D03*
X176800000Y-108500000D03*
X118800000Y-108500000D03*
X176800000Y-85500000D03*
D15*
X123670000Y-86770000D03*
D16*
X123670000Y-84230000D03*
X126210000Y-86770000D03*
X126210000Y-84230000D03*
X128750000Y-86770000D03*
X128750000Y-84230000D03*
X131290000Y-86770000D03*
X131290000Y-84230000D03*
X133830000Y-86770000D03*
X133830000Y-84230000D03*
X136370000Y-86770000D03*
X136370000Y-84230000D03*
X138910000Y-86770000D03*
X138910000Y-84230000D03*
X141450000Y-86770000D03*
X141450000Y-84230000D03*
X143990000Y-86770000D03*
X143990000Y-84230000D03*
X146530000Y-86770000D03*
X146530000Y-84230000D03*
X149070000Y-86770000D03*
X149070000Y-84230000D03*
X151610000Y-86770000D03*
X151610000Y-84230000D03*
X154150000Y-86770000D03*
X154150000Y-84230000D03*
X156690000Y-86770000D03*
X156690000Y-84230000D03*
X159230000Y-86770000D03*
X159230000Y-84230000D03*
X161770000Y-86770000D03*
X161770000Y-84230000D03*
X164310000Y-86770000D03*
X164310000Y-84230000D03*
X166850000Y-86770000D03*
X166850000Y-84230000D03*
X169390000Y-86770000D03*
X169390000Y-84230000D03*
X171930000Y-86770000D03*
X171930000Y-84230000D03*
M02*
